<svg width="163" height="58" viewBox="0 0 163 58" fill="none" xmlns="http://www.w3.org/2000/svg">
<path fill-rule="evenodd" clip-rule="evenodd" d="M49.6351 39.1263L49.971 40.0607L50.2328 39.6492C50.0458 39.5004 49.8588 39.3134 49.6351 39.1263Z" fill="white"/>
<path fill-rule="evenodd" clip-rule="evenodd" d="M29.277 43.1983L32.6388 32.1039L35.9265 43.1983H29.277ZM54.3046 52.2751C53.8558 52.2003 53.4077 52.0889 52.9596 51.9759C52.8848 51.9759 52.81 51.9392 52.7352 51.9392C50.307 51.3041 48.1781 50.3698 46.3476 49.137C45.4514 48.5401 45.227 47.3073 45.8247 46.4104L50.0085 40.0976L49.6727 39.1633C49.2612 38.79 48.888 38.4167 48.5521 38.006C47.5056 36.7358 46.7216 35.242 46.2354 33.5985C45.7499 31.9924 45.5262 30.3108 45.5262 28.5551C45.5262 28.2193 45.5262 27.8826 45.5629 27.5468L40.147 12.4556H25.5413L9.40503 57.2803H23.9726L25.9893 53.2094H38.989L41.1187 57.2803H52.9222H56.0603L54.3046 52.2751Z" fill="white"/>
<path fill-rule="evenodd" clip-rule="evenodd" d="M11.7581 36.1009C11.6459 36.1009 11.5711 36.1383 11.4963 36.1383C11.5711 36.1383 11.6833 36.1009 11.7581 36.1009Z" fill="white"/>
<path fill-rule="evenodd" clip-rule="evenodd" d="M20.0879 35.7272C19.752 35.7647 19.5276 35.8021 19.5276 35.8021C19.1543 35.8395 18.8177 35.9143 18.4818 35.9891C18.9299 35.8769 19.4528 35.8021 20.0879 35.7272Z" fill="white"/>
<path fill-rule="evenodd" clip-rule="evenodd" d="M20.0878 35.7272C22.2542 35.4288 25.3549 35.0547 28.6044 34.8685C25.6534 34.8685 23.1137 34.9051 20.9848 35.0547C20.6855 35.0547 20.3863 35.0921 20.0878 35.1295C16.3528 35.3914 13.1399 35.9142 11.7957 36.1379C11.7201 36.1379 11.6087 36.1753 11.5339 36.1753H11.4591C4.39895 37.4455 -0.419252 39.3882 0.0288312 41.0691C0.476914 42.7499 5.14626 43.6087 12.7293 43.3102C8.508 43.011 6.75232 42.2263 6.45385 41.0317C6.00577 39.3508 10.6377 37.4455 17.4734 36.1379C17.4734 36.1379 17.5108 36.1379 17.5849 36.1013C17.7345 36.0639 18.0711 36.0257 18.5566 35.9516C18.8925 35.8768 19.2291 35.8394 19.6024 35.7646C19.5276 35.802 19.7146 35.7646 20.0878 35.7272Z" fill="white"/>
<path fill-rule="evenodd" clip-rule="evenodd" d="M18.4818 35.9515C17.9963 36.0263 17.6597 36.1011 17.5109 36.1011C17.8467 36.0637 18.1834 36.0263 18.4818 35.9515Z" fill="white"/>
<path fill-rule="evenodd" clip-rule="evenodd" d="M17.3985 36.1381C17.4359 36.1381 17.4733 36.1381 17.5107 36.1007C17.4359 36.1381 17.3985 36.1381 17.3985 36.1381Z" fill="white"/>
<path fill-rule="evenodd" clip-rule="evenodd" d="M11.4217 36.1754H11.4965C11.4591 36.138 11.4217 36.1754 11.4217 36.1754Z" fill="white"/>
<path fill-rule="evenodd" clip-rule="evenodd" d="M82.88 4.76093C85.8304 4.76093 88.2219 7.15245 88.2219 10.1028C88.2219 13.0523 85.8304 15.4439 82.88 15.4439C79.9305 15.4439 77.5382 13.0523 77.5382 10.1028C77.5382 7.15245 79.9305 4.76093 82.88 4.76093Z" fill="white"/>
<path fill-rule="evenodd" clip-rule="evenodd" d="M77.7623 41.7036H87.9598V18.4698H77.7623V41.7036Z" fill="white"/>
<path fill-rule="evenodd" clip-rule="evenodd" d="M101.034 41.7036C98.009 41.7036 95.5434 40.8449 93.6755 39.0892C91.8076 37.3335 90.8741 34.9053 90.9115 31.7306L91.0237 9.9159L100.511 7.45032L100.549 29.265C100.549 30.4604 100.922 31.3566 101.669 31.9543C102.417 32.5145 103.238 32.8138 104.21 32.8138C104.919 32.8138 105.479 32.6642 105.928 32.4023L108.132 40.2472C105.591 41.2189 103.238 41.7036 101.034 41.7036Z" fill="white"/>
<path fill-rule="evenodd" clip-rule="evenodd" d="M121.094 26.1275C121.094 25.3053 120.795 24.6328 120.197 24.11C119.599 23.5871 118.778 23.3252 117.732 23.3252C116.611 23.3252 115.752 23.6245 115.117 24.2596C114.481 24.8947 114.146 25.5298 114.071 26.1649H121.094V26.1275ZM129.872 29.4144C129.872 29.7884 129.872 30.1991 129.834 30.5724C129.834 30.9831 129.797 31.3197 129.76 31.5815H114.108C114.146 31.9922 114.295 32.3655 114.519 32.7021C114.781 33.038 115.079 33.299 115.452 33.5234C115.826 33.7479 116.237 33.9341 116.685 34.0463C117.134 34.1585 117.62 34.2333 118.068 34.2333C119.002 34.2333 119.786 34.0463 120.421 33.7105C121.056 33.3738 121.542 33.0006 121.841 32.5899L129.087 36.2501C128.041 37.931 126.548 39.2386 124.605 40.2095C122.662 41.1812 120.384 41.666 117.769 41.666C116.088 41.666 114.444 41.4049 112.875 40.8828C111.269 40.3591 109.888 39.5752 108.655 38.5287C107.422 37.4829 106.45 36.1753 105.704 34.6066C104.957 33.038 104.583 31.2449 104.583 29.1526C104.583 27.248 104.919 25.4924 105.592 23.9611C106.264 22.4291 107.198 21.0841 108.356 20.0383C109.514 18.9551 110.896 18.133 112.465 17.5361C114.033 16.9384 115.714 16.6392 117.507 16.6392C119.338 16.6392 120.981 16.9384 122.513 17.5727C124.007 18.2086 125.315 19.1047 126.398 20.2253C127.481 21.3459 128.302 22.6909 128.901 24.2596C129.573 25.903 129.872 27.5839 129.872 29.4144Z" fill="white"/>
<path fill-rule="evenodd" clip-rule="evenodd" d="M151.35 33.6354C151.35 35.2041 151.014 36.5117 150.342 37.5582C149.669 38.6032 148.847 39.4627 147.839 40.0978C146.83 40.7329 145.71 41.181 144.514 41.4802C143.319 41.7413 142.161 41.8909 141.078 41.8909C139.06 41.8909 137.118 41.5917 135.176 41.0314C133.234 40.4711 131.59 39.6498 130.171 38.5658L135.176 32.7767C135.886 33.4117 136.707 33.9339 137.679 34.3453C138.65 34.756 139.547 34.943 140.443 34.943C140.779 34.943 141.115 34.8682 141.451 34.756C141.75 34.6064 141.9 34.3827 141.9 34.0094C141.9 33.6354 141.638 33.3369 141.078 33.1125C140.518 32.8881 139.584 32.627 138.239 32.2912C137.492 32.1042 136.745 31.8423 135.998 31.5065C135.213 31.1706 134.541 30.7218 133.906 30.1615C133.271 29.6012 132.748 28.9287 132.337 28.1073C131.926 27.2852 131.702 26.3142 131.702 25.1936C131.702 23.699 132.038 22.3922 132.711 21.3457C133.383 20.2999 134.205 19.4411 135.213 18.7686C136.222 18.0961 137.342 17.6106 138.538 17.3122C139.733 17.013 140.853 16.8633 141.937 16.8633C143.73 16.8633 145.523 17.1252 147.278 17.648C149.034 18.1709 150.64 18.9182 152.06 19.8518L147.278 25.5669C146.532 25.0814 145.785 24.7456 145.037 24.4463C144.253 24.1853 143.506 24.0357 142.796 24.0357C142.311 24.0357 141.9 24.1105 141.563 24.2227C141.227 24.3715 141.078 24.596 141.078 25.0066C141.078 25.3059 141.265 25.5295 141.638 25.6791C142.011 25.828 142.834 26.0524 144.179 26.3142C145.075 26.5005 145.972 26.7623 146.83 27.1363C147.689 27.5096 148.474 27.9577 149.146 28.5554C149.819 29.1157 150.379 29.8256 150.79 30.6469C151.126 31.5439 151.35 32.5148 151.35 33.6354Z" fill="white"/>
<path fill-rule="evenodd" clip-rule="evenodd" d="M56.9192 28.3687C56.9192 29.4892 57.255 30.4228 57.8901 31.1701C58.5252 31.9174 59.4962 32.2907 60.729 32.2907C61.9244 32.2907 62.8953 31.9174 63.6426 31.1327C64.3525 30.348 64.7266 29.4518 64.7266 28.3312C64.7266 27.2855 64.3525 26.3886 63.6426 25.6413C62.9335 24.8573 61.9618 24.484 60.729 24.484C59.4962 24.484 58.5626 24.8573 57.8901 25.6413C57.255 26.4634 56.9192 27.3595 56.9192 28.3687ZM47.4683 28.3687C47.4683 26.874 47.6927 25.3802 48.1408 23.9604C48.5888 22.5039 49.2613 21.2337 50.1575 20.0757C51.0544 18.9178 52.1376 17.9842 53.4826 17.2743C54.7894 16.5644 56.3589 16.2285 58.0771 16.2285C59.3099 16.2285 60.5427 16.4522 61.7374 16.9384C62.9335 17.4239 63.9045 18.1712 64.6884 19.1796H64.838V16.8262H74.4378V37.7066C74.4378 40.247 74.0271 42.3393 73.205 44.0201C72.3836 45.701 71.3004 47.046 69.918 48.017C68.5364 48.988 67.0044 49.6979 65.2487 50.1085C63.4938 50.5192 61.7374 50.7062 59.9443 50.7062C57.7413 50.7062 55.5368 50.4078 53.333 49.8475C51.1292 49.2872 49.1865 48.4277 47.5431 47.3071L52.0254 40.5454C53.1467 41.405 54.3414 42.04 55.5742 42.4133C56.8069 42.7866 58.0023 43.011 59.1229 43.011C59.8702 43.011 60.5427 42.8996 61.2145 42.7125C61.887 42.5255 62.4473 42.2263 62.9701 41.8904C63.4556 41.5172 63.8671 41.0691 64.1663 40.5088C64.4648 39.9477 64.6144 39.3508 64.6144 38.6409V37.6325H64.4648C63.9045 38.2669 63.0823 38.8646 61.9618 39.3508C60.8412 39.8363 59.6084 40.0981 58.1893 40.0981C56.3963 40.0981 54.8276 39.7989 53.52 39.1638C52.2124 38.5287 51.0918 37.6699 50.1957 36.586C49.2987 35.5036 48.6636 34.2708 48.2156 32.851C47.6553 31.4312 47.4683 29.9373 47.4683 28.3687Z" fill="white"/>
<path fill-rule="evenodd" clip-rule="evenodd" d="M151.089 38.3418C151.201 38.3044 151.276 38.3044 151.35 38.3044C151.276 38.3044 151.201 38.3044 151.089 38.3418Z" fill="white"/>
<path fill-rule="evenodd" clip-rule="evenodd" d="M142.796 38.753C143.132 38.7156 143.356 38.6782 143.356 38.6782C143.73 38.6034 144.066 38.566 144.402 38.4912C143.954 38.5286 143.394 38.6416 142.796 38.753C142.759 38.753 142.759 38.753 142.796 38.753Z" fill="white"/>
<path fill-rule="evenodd" clip-rule="evenodd" d="M142.796 38.7531C142.759 38.7531 142.759 38.7531 142.796 38.7531C140.63 39.089 137.529 39.4622 134.28 39.6493C137.231 39.6493 139.77 39.5752 141.9 39.4622C142.198 39.4248 142.498 39.4248 142.796 39.3882C146.532 39.089 149.744 38.5661 151.088 38.3417C151.164 38.3417 151.275 38.3043 151.35 38.3043H151.425C158.485 36.96 163.304 34.9051 162.855 33.1502C162.407 31.3571 157.738 30.4609 150.155 30.7594C154.376 31.0579 156.132 31.88 156.431 33.1502C156.879 34.9051 152.247 36.96 145.411 38.3043C145.411 38.3043 145.373 38.3043 145.299 38.3417C145.149 38.3798 144.813 38.4172 144.327 38.5287C143.991 38.6035 143.655 38.6416 143.282 38.7157C143.319 38.6416 143.132 38.6783 142.796 38.7531Z" fill="white"/>
<path fill-rule="evenodd" clip-rule="evenodd" d="M144.365 38.4543C144.85 38.3795 145.187 38.3047 145.336 38.2673C145.037 38.3421 144.702 38.4169 144.365 38.4543Z" fill="white"/>
<path fill-rule="evenodd" clip-rule="evenodd" d="M145.448 38.2673C145.411 38.2673 145.373 38.2673 145.336 38.3047C145.411 38.2673 145.448 38.2673 145.448 38.2673Z" fill="white"/>
<path fill-rule="evenodd" clip-rule="evenodd" d="M83.8512 51.2296H86.5786L85.2336 47.5312L83.8512 51.2296Z" fill="white"/>
<path fill-rule="evenodd" clip-rule="evenodd" d="M140.891 51.2296H143.618L142.273 47.5312L140.891 51.2296Z" fill="white"/>
<path fill-rule="evenodd" clip-rule="evenodd" d="M145.187 55.4506L144.365 53.3208H140.182L139.397 55.4506H136.521L141.04 44.6547H143.581L148.063 55.4506H145.187ZM131.179 55.749C127.854 55.749 125.351 53.4331 125.351 50.0339C125.351 46.56 127.929 44.3562 131.216 44.3562C132.711 44.3562 134.354 44.9165 135.25 45.9623L133.495 47.7179C133.009 47.0462 132.15 46.7088 131.328 46.7088C129.498 46.7088 128.228 48.1286 128.228 50.0339C128.228 52.0133 129.498 53.3583 131.291 53.3583C132.299 53.3583 133.121 52.9102 133.57 52.2751L135.4 53.9933C134.429 55.0391 133.009 55.749 131.179 55.749ZM122.625 55.4506H115.079V44.6547H122.326V46.8592H117.582V48.8759H122.064V50.9682H117.582V53.2094H122.625V55.4506ZM112.353 46.8592H109.289V55.4506H106.675V46.8592H103.649V44.618H112.353V46.8592ZM101.445 55.4506H92.9286V53.1712L98.0834 46.8218H93.0408V44.618H101.333V46.7088L96.0659 53.1712H101.445V55.4506ZM88.1096 55.4506L87.2883 53.3208H83.1044L82.3197 55.4506H79.4809L84.0006 44.6547H86.541L91.0233 55.4506H88.1096ZM76.0069 41.6662C75.7832 42.8997 75.4092 44.0577 74.9237 45.0653C73.9528 47.0462 72.6452 48.6141 71.0017 49.8095C69.4323 50.9301 67.6025 51.7522 65.6225 52.2003C63.7553 52.6109 61.8126 52.8354 59.8699 52.8354C58.2639 52.8354 56.6204 52.6865 54.9769 52.3873L56.77 57.2803H154.19V41.6662H76.0069Z" fill="white"/>
<path fill-rule="evenodd" clip-rule="evenodd" d="M25.5992 10.1024H39.5452L44.4008 0H29.2774L25.5992 10.1024Z" fill="white"/>
</svg>
