<svg width="180" height="26" viewBox="0 0 180 26" fill="none" xmlns="http://www.w3.org/2000/svg">
<path fill-rule="evenodd" clip-rule="evenodd" d="M147.369 19.3119C147.697 21.4416 148.829 22.6857 152.775 22.6857C156.133 22.6857 159.642 22.23 162.274 21.3801V24.427C160.334 25.3799 156.023 26 152.92 26C144.701 26 142 24.1616 142 16.8217C142 10.411 144.339 8 152.812 8C159.825 8 162.925 10.1158 163 13.6837C163 18.0995 159.642 19.1812 147.369 19.3119ZM93 5H98V0H93V5ZM33.2769 22C36.9313 22 38 21.4968 38 19.7861V17L33.5268 17.1989C29.0321 17.4343 28 18.041 28 19.4513C28 21.5678 28.6766 22 33.2769 22ZM93 25H98V8H93V25ZM166 14.1124C166 9.36254 169.814 8 173.27 8C174.877 8 179.118 8.20067 180 8.36722V11.7043H174.549C171.759 11.7043 171.066 11.9351 171.066 14.3793V26H166V14.1124ZM11.2093 22C5.81418 22 5 21.1563 5 15.4938C5 10.675 6.68553 10 10.9806 10C15.3076 10 17 10.675 17 15.4938C17 21.1563 16.0509 22 11.2093 22ZM139.894 11.2984H131.778V20.1148C131.778 21.7552 133.01 22.4068 135.011 22.4068C137.262 22.4068 138.841 22.202 140 21.9269V25.1767C138.068 25.6938 136.064 26 134.415 26C129.04 26 127 23.8093 127 20.5223V2H131.778V7.82313H139.894V11.2984ZM107.093 26V14.8731C107.093 12.1729 108.125 11.4335 112.444 11.4335C116.913 11.4335 117.867 12.1729 117.867 14.8731V26H123V14.7049C123 9.65699 118.942 8 113.365 8H111.63C106.023 8 102 9.65699 102 14.7049V26H107.093ZM52.0999 26V14.8731C52.0999 12.1729 53.1333 11.4335 57.4743 11.4335C61.9069 11.4335 62.9023 12.1729 62.9023 14.8731V26H68V14.7049C68 9.65699 63.9736 8 58.3783 8H56.6597C51.0442 8 47 9.65699 47 14.7049V26H52.0999ZM75.8913 18.6182V26H71V0H75.928V14.5199H76.8558C78.3208 14.5199 78.8213 14.2782 79.8397 13.2761L85.6243 7.79646H91.3204L82.5346 16.4492L92 26H85.6588L79.6218 19.7599C78.6099 18.7223 78.215 18.6182 76.7479 18.6182H75.8913ZM38.0415 14.6912V13.8685C38.0415 11.8745 36.6149 11.4442 32.8524 11.4442C29.3118 11.4442 26.157 12.1375 24.5279 12.6494V9.40239C27.3616 8.39641 30.5875 8 33.0312 8C38.4337 8 43 8.78885 43 14.4303V19.7371C43 25.9622 37.5071 26 33.0312 26C26.2906 26 23 24.253 23 20.7251C23 15.9801 26.2906 15.0538 38.0415 14.6912ZM11.0841 26C18.3883 26 22 23.9832 22 16.7767C22 10.2679 19.3058 7.34688 12.0689 7.34688C8.89242 7.34688 6.72091 7.58634 5.13939 8.80016V0H0V17.2205C0 23.8139 3.13613 26 11.0841 26ZM175 26H180V21H175V26ZM150.629 14.8579C156.98 14.5802 158 14.0522 158 12.5763C158 10.8418 156.84 10 153.228 10C148.598 10 148 10.8651 148 15L150.629 14.8579Z" fill="white"/>
</svg>
