<svg width="133" height="40" viewBox="0 0 133 40" fill="none" xmlns="http://www.w3.org/2000/svg">
<mask id="mask0" mask-type="alpha" maskUnits="userSpaceOnUse" x="0" y="0" width="133" height="40">
<path fill-rule="evenodd" clip-rule="evenodd" d="M0 0H133V40H0V0Z" fill="white"/>
</mask>
<g mask="url(#mask0)">
<path fill-rule="evenodd" clip-rule="evenodd" d="M69.2432 5.00577C68.3835 5.00577 67.5238 5.00562 66.6642 5.00592C66.581 5.00592 66.4972 5.00195 66.415 5.01113C66.1673 5.03872 65.9861 5.23322 66.0008 5.48583C66.0082 5.61065 66.0547 5.74147 66.1134 5.85368C66.7224 7.02071 67.3373 8.18471 67.9512 9.34931C73.0921 19.1042 78.2334 28.8589 83.3743 38.6137C83.5574 38.9605 83.7336 39.3112 83.926 39.6525C84.1091 39.9767 84.4709 40.0849 84.7861 39.931C84.955 39.8487 85.0466 39.7013 85.1303 39.5416C86.0565 37.7816 86.9838 36.0225 87.9115 34.2633C92.365 25.8135 96.8185 17.3638 101.272 8.91406C101.821 7.87334 102.366 6.83078 102.92 5.79314C103.153 5.35615 102.835 4.99748 102.482 5.00001C100.661 5.01317 98.8399 5.00671 97.0187 5.00557C96.7421 5.00542 96.5414 5.12821 96.4097 5.37104C96.3519 5.47769 96.2976 5.58618 96.2418 5.69393C92.5471 12.8234 88.8524 19.9529 85.1577 27.0822C85.1102 27.1732 85.0671 27.2684 85.006 27.3494C84.7372 27.7057 84.2212 27.7022 83.9554 27.3432C83.9 27.2689 83.8584 27.1839 83.8153 27.1012C83.2176 25.9493 82.6203 24.7969 82.0226 23.6448C78.8806 17.5858 75.7372 11.5271 72.5981 5.46598C72.4341 5.1484 72.2084 4.99709 71.8501 5.002C70.9811 5.01386 70.1121 5.00587 69.2432 5.00577Z" fill="white"/>
<path fill-rule="evenodd" clip-rule="evenodd" d="M129.761 34.9944C130.611 34.9944 131.461 34.9945 132.312 34.9942C132.394 34.9942 132.479 34.9977 132.561 34.989C132.888 34.9543 133.079 34.6499 132.969 34.3372C132.934 34.2411 132.882 34.1509 132.835 34.0603C130.529 29.6822 128.223 25.3044 125.916 20.9266C122.331 14.1203 118.745 7.314 115.159 0.507739C115.12 0.433395 115.084 0.35657 115.037 0.287586C114.778 -0.0908319 114.238 -0.0970355 113.973 0.27632C113.919 0.351706 113.88 0.437812 113.836 0.520344C111.403 5.13724 108.97 9.75424 106.537 14.3715C103.077 20.938 99.6181 27.5047 96.1582 34.0714C96.1191 34.1458 96.077 34.219 96.0447 34.2965C95.9072 34.6289 96.0995 34.9572 96.4509 34.9901C96.5336 34.9977 96.6172 34.9944 96.7004 34.9944C97.7443 34.9945 98.7886 34.9944 99.8329 34.9944C100.507 34.9944 101.182 34.981 101.856 34.9995C102.25 35.0102 102.513 34.8575 102.662 34.494C102.666 34.4854 102.671 34.4774 102.676 34.4691C105.677 28.674 108.678 22.8786 111.68 17.0834C112.414 15.6659 113.152 14.2499 113.882 12.8306C114.017 12.5682 114.206 12.3923 114.504 12.388C114.814 12.3836 115.017 12.5606 115.149 12.8363C115.247 13.0382 115.354 13.2348 115.457 13.4338C119.097 20.4543 122.738 27.4742 126.372 34.4977C126.553 34.8472 126.792 35.0066 127.183 34.9993C128.042 34.9836 128.902 34.9944 129.761 34.9944Z" fill="white"/>
<path fill-rule="evenodd" clip-rule="evenodd" d="M12.157 10.0584C12.157 10.0573 12.157 10.0563 12.157 10.0553C10.3531 10.0553 8.54886 10.0699 6.74516 10.0474C6.10026 10.0393 5.81957 10.3387 5.82427 10.956C5.84294 13.4194 5.83188 15.8832 5.83218 18.3468C5.83218 18.4404 5.82978 18.5347 5.83943 18.6275C5.87381 18.9549 6.11562 19.1955 6.44605 19.2337C6.51146 19.2412 6.57807 19.2396 6.64417 19.2396C10.0065 19.2398 13.3689 19.2431 16.7313 19.2379C17.7084 19.2364 18.6718 19.1195 19.5966 18.7867C20.7394 18.3754 21.6235 17.6659 22.1046 16.5367C22.6166 15.3354 22.6977 14.0831 22.4111 12.819C22.2132 11.946 21.691 11.2812 20.8981 10.8431C20.6603 10.7117 20.4092 10.5975 20.1531 10.506C19.2181 10.1719 18.2422 10.0688 17.2572 10.0618C15.5572 10.0498 13.8571 10.0584 12.157 10.0584ZM12.2412 34.9384C13.828 34.9384 15.4149 34.9361 17.0017 34.9392C17.8152 34.9409 18.6245 34.8914 19.4271 34.7581C20.2312 34.6246 21.0107 34.4104 21.7375 34.0329C22.9455 33.4055 23.723 32.4433 24.021 31.1171C24.2806 29.9616 24.2381 28.8077 23.9305 27.6688C23.6085 26.4766 22.8668 25.6147 21.7355 25.1016C21.3599 24.9312 20.9645 24.7929 20.5655 24.6874C19.3803 24.3741 18.1644 24.2959 16.9444 24.2935C13.5439 24.287 10.1436 24.2913 6.74316 24.2913C6.67705 24.2913 6.61085 24.2896 6.54484 24.2919C6.12067 24.3065 5.8584 24.5512 5.82317 24.9671C5.81686 25.0417 5.81822 25.1168 5.81822 25.1918C5.81797 28.1522 5.81772 31.1125 5.81902 34.0727C5.81907 34.1846 5.82277 34.2987 5.84454 34.4079C5.90214 34.6978 6.13659 34.9042 6.43234 34.9328C6.52602 34.942 6.6211 34.9383 6.71553 34.9383C8.55736 34.9384 10.3993 34.9384 12.2412 34.9384ZM24.5077 21.1566C24.589 21.1922 24.6365 21.2153 24.6857 21.2344C27.0938 22.165 28.6725 23.8763 29.4951 26.2871C29.9433 27.6004 30.0569 28.9571 29.9758 30.3358C29.9173 31.3309 29.7729 32.3104 29.4764 33.2642C28.7058 35.7437 27.1105 37.5109 24.758 38.6191C23.6246 39.153 22.4279 39.4842 21.195 39.6973C19.8884 39.9234 18.5706 40.0003 17.246 39.9999C11.8227 39.998 6.39931 39.9991 0.975966 39.9989C0.862569 39.9989 0.748821 40.0029 0.635924 39.9955C0.276516 39.9718 0.0469697 39.7482 0.0116394 39.3891C0.00338234 39.3054 0.00443324 39.2206 0.00443324 39.1364C0.00413298 28.0507 0.00423307 16.965 0.00423307 5.87939C0.00423307 5.87001 0.00483358 5.86053 0.00413298 5.85125C-0.0405053 5.28549 0.278668 4.99881 0.853661 5C6.6171 5.01172 12.3806 5.00541 18.1441 5.00819C19.9718 5.00909 21.7329 5.33984 23.3809 6.14482C25.6518 7.25406 27.2448 8.97064 27.9825 11.3949C28.5777 13.3511 28.5515 15.3155 27.8569 17.2486C27.2678 18.8878 26.2311 20.1723 24.6866 21.0313C24.6331 21.0611 24.5858 21.1014 24.5077 21.1566Z" fill="white"/>
<path fill-rule="evenodd" clip-rule="evenodd" d="M47.152 10.0527C47.152 10.0517 47.152 10.0505 47.152 10.0495C45.3475 10.0495 43.5431 10.0495 41.7386 10.0496C41.6536 10.0496 41.5684 10.0467 41.4836 10.0515C41.1109 10.0729 40.8528 10.329 40.8315 10.6984C40.8266 10.7826 40.8294 10.8671 40.8294 10.9514C40.8293 13.4156 40.8292 15.8798 40.8293 18.3439C40.8293 18.4282 40.8265 18.5128 40.8324 18.5968C40.856 18.9387 41.0977 19.192 41.4409 19.2296C41.5438 19.241 41.6485 19.2361 41.7524 19.2361C44.8418 19.2363 47.9311 19.2387 51.0203 19.234C51.5674 19.2331 52.1156 19.2144 52.6617 19.1818C53.3339 19.142 53.9897 19.0052 54.6219 18.7733C55.8778 18.3124 56.7848 17.4919 57.2298 16.2192C57.5897 15.1891 57.6543 14.1281 57.468 13.0591C57.3264 12.2456 56.9309 11.5657 56.2522 11.065C55.9163 10.817 55.5459 10.6342 55.1515 10.4972C54.2134 10.1712 53.2388 10.0634 52.2537 10.0562C50.5533 10.0438 48.8524 10.0527 47.152 10.0527ZM47.2425 34.9377C48.7353 34.9377 50.2279 34.9348 51.7206 34.939C52.496 34.941 53.2693 34.9203 54.0382 34.816C54.9027 34.6988 55.7461 34.5037 56.5385 34.1309C57.8064 33.5344 58.6629 32.5846 58.9953 31.2194C59.2961 29.9832 59.2505 28.7444 58.8856 27.527C58.5658 26.4586 57.891 25.6605 56.8784 25.1739C56.4564 24.9712 56.0089 24.8073 55.5564 24.685C54.3911 24.37 53.1928 24.2936 51.9914 24.291C48.5526 24.2835 45.1135 24.2939 41.6745 24.282C41.2034 24.2804 40.7697 24.5033 40.8154 25.139C40.8167 25.1575 40.8154 25.1764 40.8154 25.1951C40.8154 28.1465 40.8152 31.098 40.8161 34.0495C40.8161 34.1616 40.8156 34.2756 40.8343 34.3853C40.8863 34.6893 41.1245 34.9045 41.4323 34.9325C41.5261 34.941 41.621 34.9376 41.7155 34.9376C43.5578 34.9378 45.4001 34.9378 47.2425 34.9377ZM59.5053 21.153C59.5784 21.1846 59.6175 21.2031 59.658 21.2186C62.1398 22.1766 63.7421 23.9474 64.548 26.4448C64.9264 27.6178 65.0365 28.8278 64.99 30.0534C64.9479 31.1431 64.8023 32.2177 64.4764 33.2634C63.7205 35.6893 62.1753 37.4423 59.8843 38.5579C58.7134 39.1277 57.4731 39.4765 56.1931 39.6976C54.9047 39.9201 53.6057 40.0003 52.2998 40C46.8465 39.9986 41.3934 39.9995 35.9402 39.9992C35.8175 39.9992 35.6938 40.0028 35.5721 39.9899C35.2724 39.9575 35.0527 39.7423 35.0122 39.4446C34.9996 39.3523 35.0004 39.2578 35.0004 39.1642C34.9999 28.0575 34.9999 16.9508 35.0002 5.84413C35.0002 5.75984 34.9983 5.6749 35.0072 5.5914C35.0427 5.25537 35.2832 5.02558 35.6203 5.00319C35.6956 4.99813 35.7715 5.00061 35.8471 5.00061C41.6121 5.00051 47.3771 4.99912 53.1422 5.0013C54.8822 5.00195 56.5635 5.30531 58.1503 6.03C60.2507 6.98924 61.8154 8.48403 62.7119 10.6215C63.217 11.8245 63.4117 13.0841 63.3822 14.3838C63.3566 15.5304 63.1454 16.6367 62.6834 17.6895C62.0527 19.1258 61.0761 20.2603 59.6855 21.0278C59.632 21.0574 59.5844 21.0976 59.5053 21.153Z" fill="white"/>
<path fill-rule="evenodd" clip-rule="evenodd" d="M69.2432 5.00582C70.1121 5.00587 70.9811 5.01386 71.8501 5.002C72.2084 4.99709 72.4341 5.1484 72.5981 5.46598C75.7372 11.5271 78.8806 17.5858 82.0226 23.6448C82.6203 24.7969 83.2176 25.9493 83.8153 27.1012C83.8584 27.1839 83.9 27.2689 83.9554 27.3432C84.2212 27.7022 84.7372 27.7057 85.006 27.3494C85.0671 27.2684 85.1102 27.1732 85.1577 27.0822C88.8524 19.9529 92.5471 12.8234 96.2418 5.69393C96.2976 5.58618 96.3519 5.47769 96.4097 5.37104C96.5414 5.12821 96.7421 5.00542 97.0187 5.00557C98.8399 5.00671 100.661 5.01317 102.482 5.00001C102.835 4.99748 103.153 5.35615 102.92 5.79314C102.366 6.83078 101.821 7.87334 101.272 8.91406C96.8185 17.3638 92.365 25.8135 87.9115 34.2633C86.9838 36.0225 86.0565 37.7816 85.1303 39.5416C85.0466 39.7013 84.955 39.8487 84.7861 39.931C84.4709 40.0849 84.1091 39.9767 83.926 39.6525C83.7336 39.3112 83.5574 38.9605 83.3743 38.6137C78.2334 28.8589 73.0921 19.1042 67.9512 9.34931C67.3373 8.18471 66.7224 7.02071 66.1134 5.85368C66.0547 5.74147 66.0082 5.61065 66.0008 5.48583C65.9861 5.23322 66.1673 5.03872 66.415 5.01113C66.4972 5.00195 66.581 5.00592 66.6642 5.00592C67.5238 5.00562 68.3835 5.00577 69.2432 5.00582Z" fill="white"/>
<path fill-rule="evenodd" clip-rule="evenodd" d="M129.761 34.9944C128.902 34.9944 128.042 34.9836 127.183 34.9993C126.792 35.0066 126.553 34.8472 126.372 34.4977C122.738 27.4742 119.097 20.4543 115.457 13.4338C115.354 13.2348 115.247 13.0382 115.149 12.8363C115.017 12.5606 114.814 12.3836 114.504 12.388C114.206 12.3923 114.017 12.5682 113.882 12.8306C113.152 14.2499 112.414 15.6659 111.68 17.0834C108.678 22.8786 105.677 28.674 102.676 34.4691C102.671 34.4774 102.666 34.4854 102.662 34.494C102.513 34.8575 102.25 35.0102 101.856 34.9995C101.182 34.981 100.507 34.9944 99.8329 34.9944C98.7886 34.9944 97.7443 34.9945 96.7004 34.9944C96.6172 34.9944 96.5336 34.9977 96.4509 34.9901C96.0995 34.9572 95.9072 34.6289 96.0447 34.2965C96.077 34.219 96.1191 34.1458 96.1582 34.0714C99.6181 27.5047 103.077 20.938 106.537 14.3715C108.97 9.75424 111.403 5.13724 113.836 0.520344C113.88 0.437812 113.919 0.351706 113.973 0.27632C114.238 -0.0970355 114.778 -0.0908319 115.037 0.287586C115.084 0.35657 115.12 0.433395 115.159 0.507739C118.745 7.314 122.331 14.1203 125.916 20.9266C128.223 25.3044 130.529 29.6822 132.835 34.0603C132.882 34.1509 132.934 34.2411 132.969 34.3372C133.079 34.6499 132.888 34.9543 132.561 34.989C132.479 34.9977 132.394 34.9942 132.312 34.9942C131.461 34.9945 130.611 34.9944 129.761 34.9944Z" fill="white"/>
</g>
</svg>
