<svg width="158" height="99" viewBox="0 0 158 99" fill="none" xmlns="http://www.w3.org/2000/svg">
<path fill-rule="evenodd" clip-rule="evenodd" d="M78.3701 1.09876C78.3701 1.09876 80.7371 -0.000244141 83.9971 -0.000244141C84.4251 -0.000244141 84.8681 0.0177559 85.3231 0.0607559C85.3231 0.0607559 87.0711 0.154756 89.4661 2.09876C90.2128 2.70741 91.5744 3.76878 92.8019 4.72566L92.8021 4.7258C93.2907 5.10674 93.7582 5.47111 94.1571 5.78376C92.7151 4.99876 91.1301 4.68976 89.5231 4.68976C83.3561 4.68976 76.8681 9.27776 76.8681 9.27776C61.8881 20.4328 63.9971 34.9198 64.4241 37.1598C64.4571 37.3018 64.4871 37.4388 64.4741 37.4558L64.2931 37.0658C63.2811 34.0588 61.8831 28.3858 63.6391 19.5648C63.6391 19.5648 65.6721 5.92976 78.3701 1.09876ZM84.5977 12.0528C89.0827 9.54876 89.7287 7.39476 89.9737 6.33276C94.0527 6.55976 94.9547 9.03776 94.9547 9.03776C95.9227 11.1098 95.1567 13.4788 93.9007 15.5038C92.7747 17.2928 91.6147 18.5758 90.6227 19.4158L90.6167 19.4213C90.6103 19.4272 90.6062 19.4306 90.6013 19.4344L90.595 19.4394C90.5833 19.4485 90.5637 19.4638 90.5127 19.5068C90.3457 19.6478 89.9757 19.9458 89.6837 20.1758C88.6571 19.3948 87.3449 18.4422 86.1328 17.5623L86.1315 17.5613L86.1313 17.5612L86.1312 17.5611L86.1308 17.5608C84.4581 16.3466 82.9764 15.2708 82.6987 14.9758C81.6757 13.8928 82.6187 13.1188 83.0547 12.8488C83.3221 12.6862 83.5207 12.5929 83.7497 12.4853C83.9729 12.3805 84.225 12.2621 84.5977 12.0528ZM80.1456 14.9422C80.1246 15.3172 79.7696 21.0432 78.8506 25.4982C78.8462 25.525 78.8402 25.5567 78.8333 25.5931C78.7915 25.8135 78.7174 26.2046 78.7766 26.7292C78.8766 27.6174 79.3989 28.21 79.6684 28.5156L79.6996 28.5512C80.0906 28.9992 82.1906 30.8572 87.1866 34.5402C89.4036 36.1752 92.9906 39.3832 93.1236 42.8392C93.1246 42.8852 93.1226 43.4792 93.0246 43.8322C92.9716 44.1242 92.8646 44.4182 92.8606 44.4272L92.8366 44.5012L92.8516 44.5172L92.8986 44.4372L92.9626 44.3382C93.1246 44.0632 96.0596 38.1532 96.6126 36.8562C96.6378 36.7965 96.6753 36.7192 96.7211 36.6245C97.2673 35.4959 99.0022 31.9115 95.3476 26.6672C95.3476 26.6672 93.6026 23.9752 89.1076 20.7762C86.8086 19.2322 85.5706 18.5222 81.4086 16.2582C81.4086 16.2582 80.2236 15.6802 80.1526 15.0022L80.1456 14.9422ZM90.1705 39.2268C90.2188 39.3068 90.2658 39.3846 90.3125 39.4588C93.4205 44.5468 88.8445 48.9998 81.9045 48.9148C72.7715 48.7988 63.5105 41.6138 65.9385 29.1978C66.0035 28.8438 66.0785 28.4938 66.1565 28.1538C66.9265 36.3108 74.0365 39.5718 74.0365 39.5718C83.1375 44.0678 89.9265 38.8358 89.9265 38.8358C90.0137 38.9671 90.0937 39.0997 90.1705 39.2268ZM49.5538 64.3484H54.4398V62.2624H49.5538V58.7684H55.5348V56.6784H47.0588V70.0164H55.8488V67.9324H49.5538V64.3484ZM110.468 64.3485V64.3885C110.468 64.3885 110.653 64.5715 110.92 65.0415L113.743 70.0235H110.972L108.239 65.0415H105.576V70.0235H103.087V56.6785H107.782C109.266 56.6785 109.945 56.7935 110.54 57.0615C111.907 57.6595 112.778 58.9325 112.778 60.7085C112.778 62.2975 111.907 63.7825 110.468 64.3485ZM105.576 62.9325H108.087C109.42 62.9325 110.247 62.1595 110.247 60.8395C110.247 59.5585 109.695 58.7695 107.744 58.7695H105.576V62.9325ZM40.8018 63.0125V62.9685C41.8448 62.4255 42.4598 61.3605 42.4598 60.1205C42.4598 57.9235 40.7028 56.6785 38.2408 56.6785H33.0648V70.0225H38.2918C40.8228 70.0225 43.0208 68.8185 43.0208 66.1535C43.0208 64.7925 42.3108 63.4465 40.8018 63.0125ZM35.5218 58.7455H38.1978C39.3628 58.7455 39.9448 59.4465 39.9448 60.4065C39.9448 61.3785 39.3238 62.1305 38.2458 62.1305H35.5218V58.7455ZM38.4978 67.9735H35.5218V64.0845H38.4978C39.7498 64.0845 40.4888 64.8995 40.4888 66.0135C40.4888 67.1555 39.7718 67.9735 38.4978 67.9735ZM60.0385 56.6785H62.5235V67.9305H68.7185V70.0235H60.0385V56.6785ZM122.996 56.6785H117.432V70.0235H119.927V65.4115H122.996C125.564 65.4115 127.351 63.6145 127.351 61.0245C127.351 58.4255 125.564 56.6785 122.996 56.6785ZM122.53 63.3135H119.927V58.7635H122.574C123.98 58.7635 124.826 59.6455 124.826 61.0245C124.826 62.4095 123.98 63.3135 122.53 63.3135ZM73.0921 63.2611C73.0921 65.7951 74.8481 68.0291 77.7061 68.0291C80.0751 68.0291 81.6771 66.3431 81.6771 66.3431L82.9881 68.0871C82.9881 68.0871 81.1001 70.2471 77.6061 70.2471C73.4191 70.2471 70.5281 67.2221 70.5281 63.3001C70.5281 59.4251 73.5311 56.4591 77.5691 56.4591C80.9021 56.4591 82.6161 58.2731 82.6161 58.2731L81.4311 60.0851C81.4311 60.0851 79.8581 58.6761 77.6851 58.6761C74.7881 58.6761 73.0921 60.7751 73.0921 63.2611ZM92.4307 56.4598C88.3977 56.4598 85.3457 59.4398 85.3457 63.2648C85.3457 67.1888 88.3977 70.2498 92.4307 70.2498C96.4607 70.2498 99.5137 67.1888 99.5137 63.2648C99.5137 59.4398 96.4607 56.4598 92.4307 56.4598ZM92.4307 68.0288C89.9177 68.0288 87.9167 65.9998 87.9167 63.2648C87.9167 60.6248 89.9177 58.6768 92.4307 58.6768C94.9357 58.6768 96.9437 60.6248 96.9437 63.2648C96.9437 65.9998 94.9357 68.0288 92.4307 68.0288ZM0 96.257V88.075H1.354V95.022H7.682V96.257H0ZM16.2657 95.0242C17.3947 95.0242 17.9597 94.6572 17.9597 93.9202C17.9597 93.1311 17.4677 92.7392 16.4777 92.7392H11.0897V95.0242H16.2657ZM16.3737 91.4982C16.7477 91.4982 17.0587 91.3892 17.3147 91.1762C17.5687 90.9622 17.6937 90.7001 17.6937 90.3941C17.6937 90.0652 17.5787 89.7971 17.3517 89.6002C17.1297 89.4072 16.8187 89.3092 16.4257 89.3092H11.0897V91.4982H16.3737ZM17.9527 92.0471C18.8847 92.3602 19.3517 93.0482 19.3517 94.1072C19.3517 95.5452 18.3197 96.2592 16.2577 96.2592H9.7357V88.0692H16.3497C17.1797 88.0692 17.8317 88.2782 18.3057 88.6842C18.7837 89.0932 19.0197 89.6332 19.0197 90.3062C19.0197 91.0592 18.6677 91.6382 17.9527 92.0471ZM21.4388 96.2596H30.0118V95.0226H22.7928V92.6396H27.5918V91.4016H22.7928V89.3096H29.7938V88.0746H21.4388V96.2596ZM39.7334 96.2596H32.0524V88.0746H33.4124V95.0226H39.7334V96.2596ZM6.4229 89.8891V88.0721H7.6909V91.0441H7.5949C6.9489 91.0441 6.4229 90.5241 6.4229 89.8891ZM155.796 92.2195H157.672V91.1845H156.914V87.5985H157.672V86.5535H155.796V92.2195ZM128.28 95.7545C128.628 95.3865 128.801 94.8615 128.801 94.1805V93.1145H127.616V94.1685C127.616 94.5445 127.533 94.8135 127.383 94.9775C127.224 95.1335 127.032 95.2205 126.8 95.2205H126.744C126.521 95.2205 126.335 95.1335 126.177 94.9775C126.025 94.8135 125.945 94.5395 125.945 94.1575V89.6935C125.945 89.3145 126.025 89.0515 126.177 88.8855C126.335 88.7265 126.521 88.6465 126.744 88.6465H126.8C127.032 88.6465 127.224 88.7234 127.383 88.8855C127.533 89.0485 127.616 89.3145 127.616 89.6865V90.5725H128.801V89.6865C128.801 89.0125 128.628 88.4925 128.28 88.1245C127.938 87.7495 127.447 87.5645 126.816 87.5645H126.728C126.082 87.5645 125.591 87.7555 125.248 88.1285C124.898 88.5075 124.727 89.0215 124.727 89.6995V94.1685C124.727 94.8325 124.898 95.3605 125.248 95.7335C125.591 96.1155 126.082 96.3015 126.728 96.3015H126.816C127.447 96.3015 127.938 96.1175 128.28 95.7545ZM133.943 87.657L131.88 98.242H130.659L131.217 95.429L129.415 87.657H130.707L131.787 93.308L132.724 87.657H133.943ZM134.645 87.6541V88.7361H136.977L134.625 95.1261V96.2101H138.221V95.1261H135.862L138.176 88.7361V87.6541H134.645ZM140.349 94.1717C140.349 94.5477 140.435 94.8137 140.601 94.9777C140.76 95.1337 140.962 95.2207 141.195 95.2207H141.244C141.468 95.2207 141.665 95.1337 141.828 94.9777C141.998 94.8137 142.077 94.5477 142.077 94.1717V89.6927C142.077 89.3147 141.998 89.0517 141.839 88.8857C141.678 88.7267 141.476 88.6467 141.244 88.6467H141.195C140.962 88.6467 140.76 88.7267 140.601 88.8857C140.435 89.0517 140.349 89.3147 140.349 89.6927V94.1717ZM139.132 89.7017C139.132 89.0287 139.31 88.5017 139.666 88.1287C140.031 87.7557 140.533 87.5647 141.167 87.5647H141.244C141.894 87.5647 142.401 87.7557 142.76 88.1287C143.117 88.5017 143.296 89.0287 143.296 89.7017V94.1687C143.296 94.8327 143.117 95.3597 142.76 95.7337C142.401 96.1147 141.894 96.3017 141.244 96.3017H141.167C140.533 96.3017 140.031 96.1147 139.666 95.7337C139.31 95.3597 139.132 94.8327 139.132 94.1687V89.7017ZM153.114 91.1893H151.445V89.7053C151.445 89.3193 151.523 89.0513 151.676 88.8853C151.833 88.7263 152.025 88.6463 152.254 88.6463H152.3C152.53 88.6463 152.725 88.7263 152.882 88.8853C153.034 89.0513 153.114 89.3143 153.114 89.6933V91.1893ZM151.445 94.1573V92.2253H154.335V89.6993C154.335 89.0213 154.157 88.5073 153.803 88.1283C153.452 87.7553 152.956 87.5643 152.321 87.5643H152.235C151.588 87.5643 151.092 87.7553 150.747 88.1283C150.398 88.5073 150.225 89.0213 150.225 89.6993V94.1693C150.225 94.8333 150.405 95.3603 150.76 95.7333C151.121 96.1153 151.617 96.3013 152.264 96.3013H152.339C152.993 96.3013 153.483 96.1183 153.822 95.7543C154.159 95.3863 154.335 94.8553 154.335 94.1693V93.1143H153.145V94.1693C153.145 94.5443 153.066 94.8133 152.912 94.9773C152.757 95.1333 152.56 95.2203 152.328 95.2203H152.29C152.052 95.2203 151.854 95.1333 151.694 94.9773C151.528 94.8133 151.445 94.5403 151.445 94.1573ZM145.701 89.0388V96.2119H144.556V87.6569H146.468L147.842 94.6589V87.6569H148.98V96.2119H147.096L145.701 89.0388ZM63.2605 87.9622L69.5245 82.8602L69.6865 83.0592L63.4225 88.1612L63.2605 87.9622ZM62.7442 91.8006L62.7502 91.7726H62.7482L62.7542 91.7546C62.9122 91.1006 63.2682 90.5716 63.7832 90.2246C63.8182 90.1996 63.8542 90.1756 63.8902 90.1536L63.9172 90.1386L63.9372 90.1266C63.9972 90.0916 64.0582 90.0596 64.1182 90.0316L64.1302 90.0266C64.2002 89.9926 64.2742 89.9636 64.3482 89.9376L64.3512 89.9356C64.4282 89.9086 64.5062 89.8856 64.5842 89.8646L64.5982 89.8616C64.6632 89.8446 64.7312 89.8306 64.8072 89.8176L64.8292 89.8136C64.8365 89.8122 64.843 89.8109 64.8494 89.8096L64.8592 89.8076L64.8968 89.8023L64.9336 89.7976L64.9647 89.794L65.0062 89.7896C65.1462 89.7746 65.2652 89.7666 65.3812 89.7666C66.7642 89.7666 67.7342 90.5076 67.9782 91.7486L67.9842 91.7716V91.7726H67.9812L67.9862 91.7996C68.0152 91.9546 68.0302 92.0976 68.0372 92.2356H62.6732C62.6852 92.0956 62.7092 91.9536 62.7442 91.8006ZM67.7702 93.8976C67.4022 94.7886 66.6372 95.2396 65.4932 95.2396C63.9152 95.2396 62.8442 94.3586 62.6952 92.9396L62.6941 92.9267V92.9267C62.69 92.8789 62.6755 92.7089 62.6712 92.5976H69.5112L69.5102 92.5736C69.4842 91.8816 69.3832 91.3686 69.1572 90.8066C68.5862 89.4096 67.1772 88.5756 65.3892 88.5756C62.9492 88.5756 61.2452 90.2096 61.2452 92.5496C61.2452 94.8816 62.8982 96.4476 65.3592 96.4476C67.3272 96.4476 68.6422 95.6196 69.3812 93.9156L69.3942 93.8836H67.7762L67.7702 93.8976ZM90.832 96.2396L87.254 91.8436L90.619 88.8456L90.702 88.7726H88.818L85.16 92.0656V85.6646H83.674V96.2396H85.16V93.5466L86.144 92.6766L89.056 96.2246L89.068 96.2396H90.832ZM78.0538 91.199C77.8898 89.504 76.5818 88.57 74.3668 88.57C72.4308 88.57 71.1308 89.497 71.1308 90.876C71.1308 92.079 71.9338 92.752 73.6568 92.995L75.0608 93.215C76.0568 93.379 76.5978 93.595 76.5978 94.271C76.5978 94.932 75.8988 95.328 74.7278 95.328C73.4298 95.328 72.6008 94.816 72.3598 93.884H70.9068C71.1268 95.488 72.5378 96.442 74.7278 96.442C76.8198 96.442 78.1718 95.537 78.1718 94.137C78.1718 92.889 77.3658 92.236 75.4748 91.949L73.9188 91.729C73.0668 91.595 72.6868 91.29 72.6868 90.741C72.6868 90.099 73.3458 89.684 74.3668 89.684C75.7228 89.684 76.4558 90.168 76.6708 91.199H78.0538ZM81.5058 96.2392H80.0198V88.7722H81.5058V96.2392ZM79.8184 86.5945C79.8184 87.8545 81.7074 87.8545 81.7074 86.6125C81.7074 85.3525 79.8184 85.3525 79.8184 86.5945ZM95.1975 95.1594C96.9665 95.1594 97.8165 93.8324 97.8565 92.6014C97.8795 91.8404 97.6325 91.1544 97.1625 90.6674C96.6835 90.1744 95.9995 89.9144 95.1825 89.9144C93.7025 89.9144 92.6275 91.0144 92.6275 92.5294C92.6275 94.0784 93.6835 95.1594 95.1975 95.1594ZM97.8145 89.9374L97.8275 88.7684H99.1705V96.2464H97.8585L97.8575 96.2424L97.7965 95.1144C97.2505 95.8484 96.2845 96.4434 95.1365 96.4434C92.8145 96.4434 91.2525 94.8524 91.2525 92.4844C91.2525 90.1794 92.8565 88.5704 95.1515 88.5704C96.2655 88.5704 97.2545 89.1904 97.8145 89.9374Z" fill="white"/>
</svg>
