<svg width="104" height="89" viewBox="0 0 104 89" fill="none" xmlns="http://www.w3.org/2000/svg">
<path fill-rule="evenodd" clip-rule="evenodd" d="M28.7751 38.4488C28.7404 38.4792 28.706 38.494 28.6706 38.494C28.638 38.494 28.6197 38.4672 28.6197 38.4381C28.6197 38.3872 28.6698 38.3602 28.7751 38.347V38.4488ZM28.5088 38.446C28.5088 38.5179 28.5559 38.571 28.6363 38.571C28.6872 38.571 28.7341 38.5575 28.7777 38.5282L28.788 38.5663H28.8881V38.2549C28.8881 38.1756 28.8251 38.1274 28.7135 38.1274C28.6316 38.1274 28.5707 38.1554 28.5305 38.2113L28.6069 38.2549C28.6325 38.2226 28.6676 38.2055 28.7117 38.2055C28.755 38.2055 28.7786 38.2235 28.7786 38.2549V38.2789C28.5967 38.2992 28.5088 38.3503 28.5088 38.446Z" fill="#FEFEFE"/>
<path fill-rule="evenodd" clip-rule="evenodd" d="M29.4285 38.2072C29.4893 38.2072 29.5223 38.2616 29.5223 38.329C29.5223 38.3859 29.5149 38.4732 29.4292 38.4739H29.4286C29.3466 38.4739 29.3428 38.3865 29.3428 38.3336C29.3428 38.237 29.3882 38.2072 29.4285 38.2072ZM29.4089 38.5658C29.4748 38.5658 29.5017 38.5355 29.5198 38.5035L29.5213 38.5052V38.5547C29.5213 38.6221 29.4931 38.6504 29.435 38.6504C29.3718 38.6504 29.3589 38.6293 29.3542 38.608L29.2428 38.626C29.2579 38.6971 29.3311 38.7311 29.412 38.7331H29.4275C29.6252 38.729 29.6306 38.6131 29.6306 38.5418V38.1351H29.5353L29.5264 38.184C29.5268 38.1849 29.5271 38.1858 29.5274 38.1866L29.526 38.1864L29.5264 38.184C29.5175 38.1629 29.4848 38.127 29.4032 38.127H29.4029C29.3118 38.1272 29.2305 38.2078 29.2305 38.3512C29.2305 38.4964 29.3094 38.5658 29.4089 38.5658Z" fill="#FEFEFE"/>
<path fill-rule="evenodd" clip-rule="evenodd" d="M28.1217 38.2209C28.2058 38.2209 28.2212 38.2971 28.2212 38.3524C28.2212 38.4073 28.2058 38.4833 28.1217 38.4833C28.037 38.4833 28.0213 38.4073 28.0213 38.3524C28.0213 38.2971 28.037 38.2209 28.1217 38.2209ZM28.1217 38.5789C28.2329 38.5789 28.3339 38.5079 28.3339 38.3524C28.3339 38.1966 28.2329 38.1255 28.1217 38.1255C28.0099 38.1255 27.9092 38.1966 27.9092 38.3524C27.9092 38.5079 28.0099 38.5789 28.1217 38.5789Z" fill="#FEFEFE"/>
<path fill-rule="evenodd" clip-rule="evenodd" d="M28.3877 38.2458C28.4014 38.2159 28.4427 38.2103 28.4808 38.2103H28.4849V38.1282L28.4738 38.1277C28.437 38.1277 28.3979 38.1525 28.382 38.1735V38.1345H28.2988V38.4667H28.3877V38.2458Z" fill="#FEFEFE"/>
<path fill-rule="evenodd" clip-rule="evenodd" d="M28.9589 38.228C28.9886 38.2033 29.0146 38.1912 29.0407 38.1912C29.0723 38.1912 29.083 38.2095 29.083 38.2505V38.4665H29.1707V38.235C29.1707 38.1629 29.1354 38.127 29.0668 38.127C29.0261 38.127 28.9934 38.1428 28.9526 38.1728L28.9447 38.1333L28.8721 38.1433V38.4665H28.9589V38.228Z" fill="#FEFEFE"/>
<path fill-rule="evenodd" clip-rule="evenodd" d="M29.7941 38.2035C29.8474 38.2035 29.8801 38.2372 29.8801 38.2948H29.7062C29.7109 38.2365 29.7429 38.2035 29.7941 38.2035ZM29.7954 38.574C29.8837 38.574 29.9492 38.542 29.9854 38.4812L29.9029 38.4351C29.8765 38.4732 29.8483 38.4903 29.8055 38.4903C29.7391 38.4903 29.7057 38.4494 29.7045 38.3679H29.9899L29.9911 38.3455C29.9911 38.2062 29.9172 38.127 29.794 38.127C29.67 38.127 29.5938 38.2083 29.5938 38.3514C29.5938 38.4932 29.669 38.574 29.7954 38.574Z" fill="#FEFEFE"/>
<path fill-rule="evenodd" clip-rule="evenodd" d="M29.977 38.0265H29.9773L30.0133 38.1183H30.025L30.061 38.0265H30.0617V38.1183H30.0801V38.0083H30.0519L30.0197 38.0917L29.9867 38.0083H29.959V38.1183H29.977V38.0265Z" fill="#FEFEFE"/>
<path fill-rule="evenodd" clip-rule="evenodd" d="M29.8892 38.1183H29.9103V38.023H29.9496V38.0083H29.8496V38.023H29.8892V38.1183Z" fill="#FEFEFE"/>
<mask id="mask0" mask-type="alpha" maskUnits="userSpaceOnUse" x="0" y="0" width="104" height="89">
<path fill-rule="evenodd" clip-rule="evenodd" d="M0 0.0507812H103.449V89H0V0.0507812Z" fill="white"/>
</mask>
<g mask="url(#mask0)">
<path fill-rule="evenodd" clip-rule="evenodd" d="M100.119 82.8411C99.1628 82.5733 98.2633 82.6451 97.9463 81.7576C97.4735 81.1686 98.0088 80.2086 98.3343 79.9002C99.6396 78.6637 102.056 79.6892 102.215 81.2933C102.558 81.2446 103.009 81.1033 103.224 80.9063C103.49 80.5808 102.266 79.0805 101.982 78.8941C100.067 77.6369 97.3393 78.6801 96.7045 80.3646C96.5665 80.7305 96.6108 81.4145 96.7045 81.7576C97.0381 82.9798 97.7813 83.493 98.9552 83.8472C100.165 84.2121 101.67 84.0783 102.06 85.2402C102.493 85.8239 101.978 86.8961 101.594 87.175C100.053 88.2959 97.4824 87.2831 97.403 85.4724C97.0262 85.4983 96.6267 85.5967 96.394 85.782H96.2388C96.642 86.9058 97.0335 87.7455 98.0239 88.2585C100.397 89.4878 102.902 88.11 103.379 86.0915C103.885 83.954 101.514 83.2314 100.119 82.8411ZM77.7672 79.8228H77.6119C77.5089 79.5268 77.5249 78.9995 77.5343 78.5846H76.3701V88.3359H77.5343C77.4905 84.8716 76.8704 80.8507 79.2418 79.668C79.5636 79.5076 80.2667 79.2882 80.8716 79.4359C81.6668 79.63 82.3606 80.1384 82.6567 80.8289C83.2132 82.1268 82.9137 86.4703 82.8895 88.3359H84.0537C84.0802 85.847 84.4746 81.2921 83.5104 79.7454C82.3017 77.8065 78.9417 77.9842 77.7672 79.8228ZM71.0925 87.4846C70.4883 87.6577 69.5444 87.7075 69.0746 87.3298C68.2954 87.0664 67.7834 85.6691 68.3761 84.7759C69.2838 83.4078 71.9319 84.2067 73.1881 83.3054H73.4209C73.4467 83.3312 73.4727 83.357 73.4985 83.3828C73.5513 85.8757 72.9866 86.9417 71.0925 87.4846ZM73.6537 79.1263C71.2393 77.3336 67.3807 78.6301 67.0567 81.448H68.2985C68.5199 79.4715 71.6752 78.6285 73.0328 80.1324C73.3332 80.4651 73.7715 81.6118 73.3433 82.1446C72.8945 82.753 71.9709 82.5587 71.0925 82.7637C69.1675 83.2132 67.4205 83.3261 66.9015 85.1628C65.8639 88.8347 71.647 89.6752 73.2657 87.0976H73.4209C73.4727 87.1492 73.5244 87.2008 73.5761 87.2524C73.602 87.6393 73.6279 88.0264 73.6537 88.4133H74.8179C74.8095 85.7123 75.1709 80.2528 73.6537 79.1263ZM29.6478 88.3359H32.6746V78.275H29.6478V88.3359ZM14.203 88.3359H17.2299V78.275H14.203V88.3359ZM54.7164 78.8941C53.5578 77.9236 50.6137 77.6465 49.6716 79.0489C49.4926 79.0238 49.4789 79.0129 49.3612 78.9715C49.3172 78.7602 49.2822 78.5709 49.2836 78.275C48.3904 78.2686 47.0779 78.1038 46.3343 78.3524V88.3359H49.4388C49.4133 86.5794 49.0837 82.3453 49.8269 81.3706C50.2345 80.836 51.0259 80.8393 51.8448 80.9063C52.1507 81.2147 52.5288 81.3833 52.6985 81.835C52.897 82.363 52.7761 83.2674 52.7761 83.9246V88.3359H55.803C55.8342 85.3419 56.321 80.2383 54.7164 78.8941ZM40.203 85.8593C38.2738 86.3555 37.0327 83.9447 37.6418 82.2993C37.8391 81.7663 38.3665 81.2039 38.8836 80.9837C39.0909 80.8954 39.3388 80.9311 39.5045 80.8289C42.8185 80.7648 42.864 85.175 40.203 85.8593ZM44.9373 81.6802C44.2008 79.3779 42.3155 77.9927 39.194 78.0428C38.7679 78.305 38.1002 78.2383 37.6418 78.4298C36.2734 79.0012 35.2115 80.1866 34.6925 81.6028C33.4944 84.8724 35.8354 87.552 38.0299 88.3359C38.5829 88.5334 39.5834 88.832 40.4358 88.6454C42.5525 88.1822 44.0229 87.2627 44.7821 85.4724C45.0287 84.8907 45.2173 83.7843 45.0925 83.1506C44.9796 82.5775 45.0929 82.1666 44.9373 81.6802ZM93.2119 85.0854C92.727 86.2743 91.8779 87.0148 90.4955 87.3298C87.8451 87.9338 86.1973 84.3627 86.9254 81.9124C87.1791 81.0585 87.7858 80.1719 88.4776 79.7454C88.8397 79.6165 89.202 79.4875 89.5642 79.3585C90.2125 79.3464 90.8738 79.3204 91.3493 79.5133C92.9079 80.1455 94.1488 82.7885 93.2119 85.0854ZM94.6866 83.1506V73.6315H93.4448V77.888C93.4448 78.5013 93.5274 79.3404 93.3672 79.8228C92.8791 79.7083 92.8497 79.293 92.5134 79.0489C92.1865 78.8115 91.6686 78.5524 91.2716 78.4298C90.8656 78.3043 90.1634 78.2994 89.8746 78.3524C89.3457 78.4495 88.9957 78.3475 88.5552 78.5072C86.9093 79.1035 86.0422 80.5537 85.606 82.3767V83.4602C85.6082 85.9129 86.8319 87.5253 88.6328 88.1811C90.5145 88.8662 92.5288 87.8485 93.2119 86.788H93.3672C93.4951 87.1306 93.5343 87.5305 93.5224 88.0263C93.5482 88.0521 93.5742 88.0779 93.6 88.1037H94.7642C94.4881 86.6623 94.6866 84.7347 94.6866 83.1506ZM59.1403 79.7454C58.9613 79.7203 58.9475 79.7094 58.8299 79.668V73.6315H57.6657V88.3359H58.8299C58.7915 85.361 58.2755 81.1971 60.0716 79.9776C60.4527 79.7189 61.0899 79.2699 61.8567 79.4359C62.6255 79.6022 63.3442 79.8889 63.7194 80.4419C64.5782 81.7076 64.2132 86.2044 64.1851 88.3359H65.3493C65.3766 85.7655 65.7691 81.2054 64.7284 79.668C63.6087 78.0141 60.1769 77.9935 59.1403 79.7454ZM24.6806 88.3359H27.6299V73.6315H24.6806V88.3359ZM19.3254 88.3359H22.2746V73.6315H19.3254V88.3359ZM30.8119 73.322C30.5859 73.4961 30.2691 73.5379 30.0358 73.7089C29.5498 74.0651 29.1933 75.2047 29.5701 75.9533C29.8547 76.237 30.1393 76.5208 30.4239 76.8046C31.768 77.0114 32.6758 76.6833 32.9075 75.3341C32.948 75.0982 32.9933 74.7883 32.8298 74.5602C32.6912 73.7023 31.8693 73.2885 30.8119 73.322ZM15.3672 73.322C14.8444 73.7269 14.325 73.7375 14.1254 74.4828C13.4055 75.4648 14.6125 76.3611 14.9791 76.8046C16.6967 77.0528 17.5585 76.3503 17.4627 74.5602C16.8332 73.8737 16.765 73.2985 15.3672 73.322ZM11.4866 79.8228C10.7104 78.6802 9.36388 77.818 7.83881 77.4237C7.06804 77.2245 5.89595 77.2961 5.2 77.5011C4.99898 77.5603 4.74776 77.8114 4.42388 77.7333C4.16427 77.6706 3.97443 77.4403 3.8806 77.1915C3.65467 76.8152 3.80299 75.7905 3.80299 75.2567C3.80299 72.9666 3.66173 71.5416 1.39701 71.5419C1.33058 71.5932 1.15331 71.6466 1.08657 71.6967H0.931343V82.6863C0.931343 84.5592 1.1315 86.2762 0 87.0202C0.749421 88.1682 2.73512 88.1596 3.49254 87.0202C4.16675 86.006 3.45047 84.186 3.80299 82.7637C4.33261 80.6266 6.92353 79.2185 8.77015 81.0611C10.1621 82.45 9.54448 85.0751 7.99403 85.7819C7.30072 86.098 6.11466 85.9277 5.51045 86.3237C5.13124 86.5723 4.30738 87.6146 4.65672 88.2585V88.568C5.14125 88.6825 5.67576 88.8373 6.20896 88.955C6.87331 89.1017 7.63127 88.8537 8.07164 88.7228C10.2107 88.087 11.3649 87.0291 12.1075 85.008C12.4195 84.159 12.6536 82.8222 12.3403 81.7576C12.1522 81.1184 11.8436 80.3485 11.4866 79.8228ZM65.7373 46.6993C67.0483 46.4884 68.9477 45.4963 70.1612 44.9967C72.5975 43.9938 75.0837 43.1873 77.4567 42.2106C78.9972 41.5767 80.9561 41.2826 81.8806 40.0437C82.1751 39.649 82.4798 39.13 82.6567 38.6506C83.5417 36.253 81.9391 33.9233 80.3284 33.2333C79.6104 32.9256 78.7344 32.9122 77.6896 32.9237C77.415 33.1227 77.0226 33.093 76.6806 33.2333C75.9659 33.5262 75.1994 33.7659 74.4298 34.0846C72.2095 35.0039 69.8187 35.8731 67.6 36.7933C66.7588 37.1421 65.6172 37.245 64.9612 37.7993H64.806C65.1082 39.79 65.8139 41.6113 65.8149 44.068C65.8152 44.7033 66.0288 46.0929 65.7373 46.5446V46.6993ZM61.003 27.5837C60.5871 27.8972 60.2957 28.4795 59.7612 28.6672C60.066 29.508 61.0358 30.1396 61.5463 30.8341C62.474 32.0965 64.0184 34.4487 64.4179 36.0967H64.4955C64.9932 35.3661 66.6114 34.1895 67.3672 33.6202C67.7293 33.2591 68.0915 32.8978 68.4537 32.5367C70.2516 31.184 71.7784 29.5558 73.5761 28.2028C73.9383 27.8417 74.3005 27.4804 74.6627 27.1193C75.5481 26.4534 76.2796 25.6037 77.1463 24.9524C77.7718 24.4823 78.5013 23.9811 78.9313 23.3272C80.6032 20.7848 78.9856 17.7981 76.8358 16.9037C76.2263 16.6502 75.4308 16.6584 74.5851 16.6715C74.3934 16.8009 74.1437 16.733 73.8866 16.8263C73.4653 16.9791 72.9278 17.2626 72.5672 17.5228C71.7826 18.0888 71.1646 18.9552 70.394 19.535C68.1878 21.195 66.3133 23.2125 64.1075 24.875C63.0226 25.6926 62.1065 26.7519 61.003 27.5837ZM35.0806 50.6463C34.8149 49.5817 34.8838 48.6196 34.6149 47.5506C34.3651 46.5576 33.9146 44.9097 34.2269 43.5263C34.8111 40.9376 35.8126 39.202 37.6418 37.8767C38.5349 37.2297 39.5245 36.6695 40.7463 36.3289C41.2982 36.175 41.7611 36.3079 42.3761 36.1741C44.0002 35.8208 46.0719 36.6283 47.1104 37.2576C48.3728 38.0226 49.2781 39.0184 50.0597 40.2759C50.5617 41.0835 50.9516 41.9895 51.2239 43.0619C51.5539 44.3621 51.2535 46.2259 50.9134 47.1637C49.916 49.9139 48.2959 51.671 45.6358 52.7359C44.6835 53.117 43.3377 52.9776 42.4537 53.4324C40.0922 54.6474 38.0371 58.0869 39.5821 61.4811C42.8721 62.1276 46.5859 61.5792 49.0507 60.5524C53.9567 58.5086 57.0578 55.2616 59.0627 50.3367C60.7424 46.2107 59.8687 40.5552 58.2866 37.1028C57.9817 36.4376 57.4506 35.7496 57.0448 35.168C54.5983 31.6621 51.9473 29.6622 47.4209 28.2028C46.3717 27.8645 43.3731 27.1743 41.8328 27.5063C40.4366 27.8072 39.0596 27.795 37.797 28.2028C36.9434 28.5382 36.0895 28.8736 35.2358 29.2089C34.8525 29.4069 34.3967 29.7565 33.994 29.9054C33.3134 30.157 32.3986 29.8804 31.9761 29.5959C30.6948 28.7331 30.9339 26.0483 30.5015 24.3333C29.0584 18.6094 29.8982 13.4506 22.5075 13.4211C22.2814 13.5735 21.9622 13.4824 21.6537 13.5759C21.0518 13.758 20.4869 14.1075 19.9463 14.3498C19.9775 15.1607 20.163 15.9066 20.3343 16.5941C20.6284 17.774 20.6753 18.9806 20.9552 20.0767C21.5816 22.5287 21.6643 25.125 22.2746 27.5063C22.6971 29.1548 22.6304 30.7328 23.0507 32.3819C24.2755 37.1871 24.556 42.4232 25.7672 47.2411C25.9963 48.1524 25.9227 48.962 26.1552 49.8724C26.9324 52.916 27.7329 57.6457 25.1463 59.3141C25.4032 60.0349 26.4554 60.4075 27.1642 60.7072C30.5828 62.1524 34.1202 60.2198 35.2358 57.6889C36.1438 55.629 35.6102 52.7681 35.0806 50.6463ZM53.6298 24.4106C54.7879 25.0126 55.9335 25.7419 56.9672 26.5002C57.5042 26.8942 57.9391 27.4638 58.5194 27.8159C59.6162 25.571 60.9566 23.3486 62.2448 21.2376C63.4492 19.2639 64.2978 17.1701 65.5045 15.2011C66.3989 13.7416 67.5316 12.1279 68.1433 10.4802C69.3001 7.36413 66.3835 4.76432 63.5642 4.83064C63.3453 4.96623 62.9879 4.89325 62.7104 4.98543C62.2346 5.14354 61.6288 5.46889 61.2358 5.75934C59.8255 6.80188 59.2196 9.03245 58.2866 10.5576C56.5036 13.4719 54.9459 16.6183 53.1642 19.535C52.4549 20.696 52.0448 22.1862 51.1463 23.1724C51.3504 23.5696 53.1348 24.1533 53.6298 24.4106ZM47.3433 22.0889C47.9775 22.2563 48.746 22.207 49.206 22.5533C49.5053 22.1379 49.3711 21.4226 49.5164 20.8506C49.8822 19.4114 49.9125 17.817 50.2925 16.2846C50.8784 13.9219 51.0224 11.2856 51.6119 8.93238C51.6896 8.31333 51.7672 7.69405 51.8448 7.07499C52.1314 5.92093 52.5111 4.04179 52 2.81847C51.3633 1.29471 50.1411 0.513215 48.3522 0.109775C46.6673 -0.270217 44.8671 1.27745 44.3164 2.12195C43.2919 3.69291 43.5079 6.33482 42.997 8.39064C42.3712 10.9091 42.3214 13.6224 41.6776 16.2072C41.4227 17.2305 41.409 18.3559 41.1343 19.4576C40.9675 20.127 40.7613 20.9334 40.7463 21.7019C43.037 21.6963 45.4507 21.5895 47.3433 22.0889Z" fill="#FEFEFE"/>
</g>
</svg>
