<svg width="207" height="63" viewBox="0 0 207 63" fill="none" xmlns="http://www.w3.org/2000/svg">
<path fill-rule="evenodd" clip-rule="evenodd" d="M191.045 22.4202V0.822678H185.354V34.965H191.045V28.6926L199.238 34.9845H206.672L206.694 34.965L191.045 22.4202ZM28.458 21.0908H40.3661C41.6444 11.7514 27.4373 12.1305 28.458 21.0908ZM45.7126 24.8285H28.633C28.6902 32.2796 38.2331 31.4921 45.3266 30.9067L45.7126 30.8749V34.4352C39.4305 35.609 31.8725 36.1826 27.3887 33.2663C21.9401 29.7181 21.0433 18.4151 26.1395 13.4453C29.6561 10.0187 38.5191 9.1122 42.6578 13.1391C45.144 15.5645 45.8828 19.4358 45.7126 24.8285ZM19.2037 15.4016V11.6664C13.986 9.91418 7.30038 11.0224 4.08761 13.6203C-0.857909 17.6399 -0.906514 28.0194 3.81057 32.2213C7.59687 35.5993 14.1318 35.6722 19.9157 34.4352V30.8239C14.2338 31.3464 8.35024 31.1957 6.58103 26.2526C5.42424 23.0399 5.99049 18.7797 8.35753 16.8233C10.7343 14.8621 15.0091 14.884 19.2037 15.4016ZM68.219 11.6664V15.4016C64.0317 14.884 59.7497 14.8621 57.3729 16.8233C55.0107 18.7797 54.4445 23.0399 55.5988 26.2526C57.368 31.1957 63.2492 31.3464 68.9359 30.8239V34.4352C63.1471 35.6722 56.6147 35.5993 52.8259 32.2213C48.1137 28.0194 48.1575 17.6399 53.1127 13.6203C56.3133 11.0224 63.0013 9.91418 68.219 11.6664ZM173.577 34.965H179.215V23.9366C179.215 23.3587 179.222 22.7639 179.228 22.1641C179.266 18.8389 179.304 15.3574 178.224 13.7248C174.931 8.74767 165.445 10.5412 162.199 15.1222V10.9592H156.505V34.965H162.199V20.3836C162.879 17.1563 170.422 12.6603 172.867 16.6459C173.263 17.2948 173.562 18.1405 173.577 20.1066V34.965ZM88.5358 24.5928C88.5795 27.9465 84.3266 31.2492 80.7371 31.152C78.4017 31.0937 76.37 29.6404 77.3591 26.5856C78.3094 23.6427 82.3693 23.6292 86.5486 23.6154H86.5487H86.5488H86.549H86.5491H86.5492H86.5493H86.5494H86.5495H86.5496H86.5498H86.5499H86.55H86.5501H86.5502H86.5503H86.5504H86.5506H86.5507H86.5508H86.5509H86.551H86.5511H86.5512C87.2235 23.6131 87.8989 23.6109 88.5649 23.5964L88.5358 24.5928ZM94.2517 18.0846C94.2298 16.1696 93.8191 14.8135 93.2188 13.7539C90.8542 9.5545 80.3459 10.1232 74.8706 11.7198V15.1562C75.8309 15.1178 76.9349 15.0032 78.0906 14.8832C82.854 14.3889 88.4945 13.8035 88.5649 18.0846V20.4322C80.29 19.9632 71.6335 21.3217 71.4925 28.3426C71.4658 29.8032 72.0296 31.7158 72.7344 32.5396C76.6957 37.1133 86.227 34.7123 88.5649 30.1775C88.5528 30.593 88.5528 31.0183 88.5649 31.4436V34.965H94.259V18.0846H94.2517ZM136.632 31.152C140.212 31.2492 144.465 27.9465 144.429 24.5928L144.458 23.5964C143.791 23.6109 143.115 23.6131 142.442 23.6154C138.265 23.6292 134.204 23.6427 133.252 26.5856C132.263 29.6404 134.292 31.0937 136.632 31.152ZM149.109 13.7539C149.714 14.8135 150.12 16.1696 150.142 18.0846H150.154V34.965H144.458V31.4436C144.443 31.0183 144.443 30.593 144.458 30.1775C142.12 34.7123 132.589 37.1133 128.63 32.5396C127.92 31.7158 127.356 29.8032 127.381 28.3426C127.526 21.3217 136.18 19.9632 144.458 20.4322V18.0846C144.387 13.8031 138.743 14.389 133.979 14.8834C132.824 15.0032 131.721 15.1178 130.761 15.1562V11.7198C136.241 10.1232 146.742 9.5545 149.109 13.7539ZM113.995 30.1629C112.684 30.8081 111.524 30.8068 109.676 30.8047L109.346 30.8045H106.709V19.8441C107.419 16.4223 112.534 13.3044 115.956 15.7589C119.985 18.6606 118.153 28.1215 113.995 30.1629ZM112.223 11.0054C110.168 11.5129 108.578 13.0582 107.318 14.2823L107.318 14.2824C107.106 14.4886 106.903 14.6856 106.709 14.867V0.822678H101.015V34.965H109.912C110.641 35.0185 111.348 35.0063 112.041 34.965H112.058C118.513 34.5567 122.955 30.0754 123.604 23.4044C124.379 15.3919 120.318 9.00527 112.223 11.0054ZM206.993 11.0758H200.339L191.203 22.5392H197.889L206.993 11.0758ZM1.22966 62.1958V61.5347H1.44838C1.88582 61.7899 2.43263 61.9382 2.9454 61.9382C3.85917 61.9382 4.36952 61.6077 4.36952 60.8786C4.36952 60.22 3.92965 59.9648 3.34639 59.7461L2.50553 59.418C1.81292 59.1993 1.22966 58.6865 1.22966 57.8092C1.22966 56.6791 2.25036 56.091 3.49464 56.091C4.11192 56.091 4.73406 56.2757 5.02568 56.5333V57.1555H4.87987C4.44243 56.8979 3.78627 56.8274 3.4193 56.8274C2.72668 56.8274 2.17745 57.0777 2.17745 57.8092C2.17745 58.3973 2.61732 58.5796 2.98186 58.7254L3.82029 59.0535C4.55179 59.3087 5.31974 59.7461 5.31974 60.8057C5.31974 62.0086 4.4084 62.6697 2.9454 62.6697C2.36215 62.6697 1.5942 62.5214 1.22966 62.1958ZM11.4877 56.1664V62.5943H15.3566V61.8288H12.399V59.5663H14.9192V58.7959H12.399V56.9367H15.2837V56.1664H11.4877ZM24.1565 59.3475C24.5599 59.124 24.9949 58.8348 24.9949 58.0668C24.9949 57.2259 24.5599 56.9367 23.6461 56.9367H22.5841V59.3475H24.1565ZM21.6703 62.5943V56.1664H23.7166C25.0314 56.1664 25.9451 56.6791 25.9451 57.9939C25.9451 58.8348 25.5806 59.3816 24.8126 59.785L26.2368 62.5214V62.5943H25.2525L23.9718 60.1106H22.5841V62.5943H21.6703ZM31.8943 56.3146L34.084 62.5943H35.18L37.4085 56.3146V56.1664H36.5336L34.7037 61.7194L32.8081 56.1664H31.8943V56.3146ZM43.4306 62.5943H44.342V56.1664H43.4306V62.5943ZM53.6133 56.0959C51.8976 56.0959 50.6193 57.2259 50.6193 59.3087C50.6193 61.2455 51.4966 62.6697 53.4675 62.6697C54.233 62.6697 54.9281 62.4121 55.2926 62.0816V61.5007H55.0739C54.8187 61.7194 54.2695 61.9382 53.6133 61.9382C52.3715 61.9382 51.5695 61.0973 51.5695 59.3087C51.5695 57.7387 52.3715 56.8274 53.6133 56.8274C54.1626 56.8274 54.6365 56.9367 55.0739 57.1555H55.2926V56.5698C55.0739 56.3511 54.3813 56.0959 53.6133 56.0959ZM61.4241 62.5943H62.3354V56.1664H61.4241V62.5943ZM71.4998 56.8274C72.7781 56.8274 73.4003 57.7387 73.4003 59.3816C73.4003 61.022 72.7781 61.9382 71.4998 61.9382C70.1851 61.9382 69.5629 61.022 69.5629 59.3816C69.5629 57.7387 70.1851 56.8274 71.4998 56.8274ZM71.4998 56.0959C69.7112 56.0959 68.6152 57.2624 68.6152 59.3816C68.6152 61.4983 69.6358 62.6697 71.4998 62.6697C73.2885 62.6697 74.3481 61.4983 74.3481 59.3816C74.3481 57.2624 73.3614 56.0959 71.4998 56.0959ZM80.2244 62.1958V61.5347H80.4431C80.8805 61.7899 81.4298 61.9382 81.9401 61.9382C82.8539 61.9382 83.3642 61.6077 83.3642 60.8786C83.3642 60.22 82.9268 59.9648 82.3411 59.7461L81.5027 59.418C80.8076 59.1993 80.2244 58.6865 80.2244 57.8092C80.2244 56.6791 81.2475 56.091 82.4869 56.091C83.1091 56.091 83.7312 56.2757 84.0204 56.5333V57.1555H83.877C83.4396 56.8979 82.781 56.8274 82.4164 56.8274C81.7214 56.8274 81.1722 57.0777 81.1722 57.8092C81.1722 58.3973 81.612 58.5796 81.9766 58.7254L82.8174 59.0535C83.5465 59.3087 84.312 59.7461 84.312 60.8057C84.312 62.0086 83.4007 62.6697 81.9401 62.6697C81.3569 62.6697 80.5889 62.5214 80.2244 62.1958ZM99.8631 56.1664V62.5943H100.777V59.5663H103.295V58.7959H100.777V56.9367H103.662V56.1664H99.8631ZM109.902 62.5943H110.819V56.1664H109.902V62.5943ZM118.406 57.661L121.691 62.5943H122.605V56.1664H121.691V61.0706L118.406 56.1664H117.494V62.5943H118.406V57.661ZM132.574 60.4023L131.439 57.1555L130.28 60.4023H132.574ZM128.63 62.5943V62.4509L130.965 56.1664H132.064L134.251 62.4509V62.5943H133.337L132.836 61.1702H130.008L129.505 62.5943H128.63ZM141.189 57.661L144.475 62.5943H145.386V56.1664H144.475V61.0706L141.189 56.1664H140.275V62.5943H141.189V57.661ZM151.663 59.3087C151.663 57.2259 152.947 56.0959 154.66 56.0959C155.428 56.0959 156.121 56.3511 156.339 56.5698V57.1555H156.121C155.683 56.9367 155.207 56.8274 154.66 56.8274C153.421 56.8274 152.616 57.7387 152.616 59.3087C152.616 61.0973 153.421 61.9382 154.66 61.9382C155.319 61.9382 155.865 61.7194 156.121 61.5007H156.339V62.0816C155.977 62.4121 155.282 62.6697 154.514 62.6697C152.546 62.6697 151.663 61.2455 151.663 59.3087ZM163.385 62.5943H162.473V56.1664H163.385V62.5943ZM170.065 62.5943V56.1664H173.859V56.9367H170.977V58.7959H173.497V59.5663H170.977V61.8288H173.932V62.5943H170.065ZM183.57 58.0668C183.57 58.8348 183.133 59.124 182.732 59.3475H181.162V56.9367H182.221C183.133 56.9367 183.57 57.2259 183.57 58.0668ZM180.25 56.1664V62.5943H181.162V60.1106H182.547L183.83 62.5943H184.812V62.5214L183.39 59.785C184.156 59.3816 184.523 58.8348 184.523 57.9939C184.523 56.6791 183.609 56.1664 182.294 56.1664H180.25ZM195.473 59.3816C195.473 57.7387 194.854 56.8274 193.573 56.8274C192.258 56.8274 191.638 57.7387 191.638 59.3816C191.638 61.022 192.258 61.9382 193.573 61.9382C194.854 61.9382 195.473 61.022 195.473 59.3816ZM190.688 59.3816C190.688 57.2624 191.787 56.0959 193.573 56.0959C195.437 56.0959 196.421 57.2624 196.421 59.3816C196.421 61.4983 195.366 62.6697 193.573 62.6697C191.714 62.6697 190.688 61.4983 190.688 59.3816ZM202.297 61.5347V62.1958C202.664 62.5214 203.432 62.6697 204.016 62.6697C205.476 62.6697 206.392 62.0086 206.392 60.8057C206.392 59.7461 205.622 59.3087 204.89 59.0535L204.054 58.7254C203.685 58.5796 203.25 58.3973 203.25 57.8092C203.25 57.0777 203.794 56.8274 204.489 56.8274C204.856 56.8274 205.513 56.8979 205.95 57.1555H206.096V56.5333C205.804 56.2757 205.184 56.091 204.562 56.091C203.321 56.091 202.297 56.6791 202.297 57.8092C202.297 58.6865 202.883 59.1993 203.578 59.418L204.417 59.7461C205.002 59.9648 205.437 60.22 205.437 60.8786C205.437 61.6077 204.927 61.9382 204.016 61.9382C203.505 61.9382 202.956 61.7899 202.516 61.5347H202.297Z" fill="white"/>
</svg>
