<svg width="95" height="95" viewBox="0 0 95 95" fill="none" xmlns="http://www.w3.org/2000/svg">
<path fill-rule="evenodd" clip-rule="evenodd" d="M46.572 86.9558C45.5964 87.5862 44.5517 87.8735 43.418 87.8735C41.6249 87.8735 40.5802 86.7328 40.5802 85.1912C40.5802 83.1392 42.5359 82.0414 46.5898 81.6061V81.0915C46.5898 80.4204 46.0619 80.0323 45.0975 80.0323C44.1152 80.0323 43.3333 80.399 42.7631 81.0915L41.0614 80.1545C41.9568 78.9581 43.3177 78.3556 45.1375 78.3556C47.6256 78.3556 49.0288 79.3934 49.0288 81.0915V87.7706H46.8014L46.572 86.9558ZM43.0482 85.0218C43.0482 85.6457 43.4581 86.2225 44.182 86.2225C44.9727 86.2225 45.7389 85.903 46.5119 85.2512V83.0684C44.1642 83.3472 43.0482 83.9283 43.0482 85.0218ZM51.009 78.7952L53.0983 78.5186L53.3211 79.6121C54.4927 78.7801 55.4349 78.3406 56.6021 78.3406C58.5733 78.3406 59.5868 79.3398 59.5868 81.336V87.7513H57.0698V81.7648C57.0698 80.6305 56.7624 80.1245 55.8537 80.1245C55.103 80.1245 54.3546 80.4569 53.5037 81.1451V87.7534H51.009V78.7952ZM61.5024 87.7534V75H63.7833V82.1186H63.8635L66.9306 78.5679H69.7795L66.7101 81.9964L70 87.7534H67.3516L65.0462 83.6366L63.7833 84.9274V87.7534H61.5024ZM36.6889 84.282C36.6043 84.6358 36.4684 84.9489 36.2836 85.219C36.1076 85.4849 35.8693 85.7058 35.5864 85.8666C35.3035 86.0252 34.9716 86.1067 34.5929 86.1067C34.1987 86.1067 33.8646 86.0252 33.5884 85.8666C33.3099 85.7036 33.0738 85.4828 32.9001 85.219C32.7152 84.9489 32.5794 84.6358 32.4947 84.282C32.4078 83.9218 32.3655 83.553 32.3655 83.1821C32.3655 82.794 32.4101 82.4231 32.4947 82.0671C32.5794 81.7133 32.7152 81.4003 32.9001 81.128C33.0738 80.8643 33.3099 80.6434 33.5884 80.4805C33.8646 80.3218 34.1987 80.2425 34.5929 80.2425C34.9716 80.2425 35.3035 80.3218 35.5864 80.4805C35.867 80.6413 36.1076 80.8621 36.2836 81.128C36.4684 81.4003 36.6043 81.7133 36.6912 82.0671C36.7758 82.4231 36.8181 82.794 36.8181 83.1821C36.8181 83.5616 36.7758 83.9283 36.6889 84.282ZM38.9119 80.9972C38.678 80.3883 38.3729 79.8887 37.9987 79.4984C37.6245 79.1103 37.2057 78.8187 36.7402 78.6301C36.2925 78.4457 35.8091 78.3492 35.3235 78.347C34.7355 78.347 34.1675 78.4564 33.6218 78.6751C33.0872 78.8831 32.635 79.2454 32.3232 79.7128H32.2853V75.0107H30V87.7534H31.9423L32.1584 86.6063V86.5827H32.194C32.4635 87.0802 32.9068 87.4661 33.4458 87.6741C33.9982 87.8928 34.6241 88 35.3235 88C35.8024 88 36.2724 87.9057 36.7402 87.717C37.2057 87.5304 37.6245 87.2367 37.9987 86.84C38.3729 86.4455 38.678 85.9438 38.9119 85.3348C39.1436 84.7259 39.2594 84.0033 39.2594 83.1649C39.2594 82.3266 39.1436 81.604 38.9119 80.9972Z" fill="#FEFEFE"/>
<path fill-rule="evenodd" clip-rule="evenodd" d="M68 0H0V68H68V25.4992V0ZM64.4412 49.2024H65.2401V52.3299H64.7185V49.7196H64.7031L63.6775 52.3299H63.3474L62.3262 49.7196H62.3174V52.3299H61.8068V49.2024H62.5947L63.5279 51.575L64.4412 49.2024ZM58.6948 49.2024H61.1663V49.6184H60.1935V52.3299H59.6741V49.6184H58.6948V49.2024ZM3.67544 57.5327C3.67544 54.1038 5.8917 52.5412 8.35007 52.5412C10.7974 52.5412 13.0225 54.1038 13.0225 57.5327C13.0225 60.955 10.7974 62.5177 8.35007 62.5177C5.8917 62.5177 3.67544 60.955 3.67544 57.5327ZM55.8865 62.4142C53.1046 62.4142 51.4473 60.6359 51.4473 57.5151C51.4473 54.3657 53.1288 52.5764 55.8557 52.5764C58.5693 52.5764 60.1936 54.3172 60.1936 57.3852L60.1671 57.876H53.8881C53.9123 59.6719 54.6496 60.5699 56.111 60.5699C57.0463 60.5699 57.6714 60.1957 58.2524 59.355L60.0681 60.3696C59.2714 61.7099 57.832 62.4142 55.8865 62.4142ZM33.2616 53.8815C34.4193 53.0297 35.348 52.5764 36.5013 52.5764C38.449 52.5764 39.4504 53.602 39.4504 55.6488V62.2337H36.9613V56.0889C36.9613 54.9247 36.6597 54.4053 35.7618 54.4053C35.0223 54.4053 34.2828 54.7464 33.4421 55.4529V62.2337H30.9793V53.0429L33.0393 52.7568L33.2616 53.8815ZM45.0736 62.2381C42.8816 62.2381 41.1473 60.7085 41.1473 57.5151C41.1473 54.3591 42.9366 52.5852 44.9416 52.5808H44.9482C46.7441 52.5808 47.4638 53.3709 47.6596 53.8331L47.8555 52.7568H49.9529V61.7099C49.9529 63.277 49.8341 65.8299 45.483 65.9202H45.1419C43.3614 65.874 41.7503 65.1279 41.4158 63.5609L43.8698 63.1669C43.9732 63.6357 44.2571 64.1001 45.6481 64.1001C46.9268 64.1001 47.5474 63.4772 47.5474 61.9916V60.9044L47.5144 60.867C47.116 61.5691 46.524 62.2381 45.0736 62.2381ZM22.8339 55.3979L21.1525 54.4383C22.0372 53.208 23.3797 52.5918 25.18 52.5918C27.6384 52.5918 29.025 53.6526 29.025 55.3979V62.2514H26.8219L26.5952 61.415C25.6334 62.0599 24.6012 62.357 23.4832 62.357C21.7115 62.357 20.6771 61.1861 20.6771 59.6037C20.6771 57.4975 22.6094 56.3751 26.6128 55.9261V55.3979C26.6128 54.7068 26.0934 54.3106 25.1404 54.3106C24.1699 54.3106 23.3974 54.687 22.8339 55.3979ZM17.0721 53.9035C17.5255 53.3049 18.6325 52.5984 19.6801 52.5984L19.9926 52.6138V54.9467H19.876C18.7976 54.9467 17.6223 55.1096 17.2349 55.9569V62.2403H14.7172V52.792H17.0721V53.9035ZM55.8557 54.26C54.7332 54.26 54.0267 54.9841 53.9233 56.2694H57.7528C57.7528 55.0017 57.0309 54.26 55.8557 54.26ZM45.505 54.3459C44.6159 54.3459 43.6189 55.0017 43.6189 57.1277C43.6189 58.292 43.7003 60.2156 45.5072 60.2156H45.5204C47.4065 60.2001 47.5694 58.2788 47.5694 57.0265C47.5694 55.5431 46.8431 54.3459 45.505 54.3459ZM8.35007 54.6386C6.48814 54.6386 6.1426 56.3156 6.1426 57.5327C6.1426 58.741 6.48814 60.4136 8.35007 60.4136C10.201 60.4136 10.5399 58.741 10.5399 57.5327C10.5399 56.3156 10.201 54.6386 8.35007 54.6386ZM26.5358 57.4249C24.2183 57.7154 23.1156 58.3096 23.1156 59.4298C23.1156 60.0681 23.5184 60.6601 24.2381 60.6601C25.0172 60.6601 25.7721 60.3366 26.5358 59.6653V57.4249Z" fill="#FEFEFE"/>
<path d="M68.3685 26H94V94H25V68.4995" stroke="white" stroke-width="2"/>
</svg>
