<svg width="166" height="78" viewBox="0 0 166 78" fill="none" xmlns="http://www.w3.org/2000/svg">
<path fill-rule="evenodd" clip-rule="evenodd" d="M4 5.97027C4.00134 5.97013 4.00475 5.96809 4.01021 5.96422L4 5.97027ZM4.01021 5.96422C4.02762 5.95188 4.06588 5.92094 4.12441 5.87359L4.12443 5.87358L4.12459 5.87344L4.12467 5.87338C5.07691 5.10307 11.3853 0 20.6262 0C25.7235 0 34 2.98218 34 16C30.2433 8.73424 21.9431 3.70168 14.5167 3.70168C7.96411 3.70168 4.22925 5.83567 4.01021 5.96422ZM5.971 35C5.97086 34.9987 5.96883 34.9953 5.96497 34.9898L5.971 35ZM5.96497 34.9898C5.95267 34.9725 5.92181 34.9343 5.87459 34.8759L5.8742 34.8755L5.87416 34.8754L5.8741 34.8753C5.10371 33.9232 0 27.6152 0 18.3749C0 13.278 2.98255 5 16 5C8.73728 8.7584 3.70214 17.0581 3.70214 24.484C3.70214 31.0346 5.83661 34.771 5.96497 34.9898ZM36 33.031C35.9987 33.0311 35.9952 33.0331 35.9898 33.037L36 33.031ZM35.9898 33.037C35.7705 33.1658 32.0359 35.2998 25.484 35.2998C18.0581 35.2998 9.75643 30.2647 6 23C6 36.0194 14.276 39 19.3749 39C28.6134 39 34.9228 33.898 35.8753 33.1278C35.934 33.0804 35.9723 33.0494 35.9898 33.037ZM34.031 4C34.0311 4.00134 34.0331 4.00476 34.037 4.01023L34.031 4ZM34.1274 4.12411L34.1278 4.12465C34.8979 5.07683 40 11.3853 40 20.6282C40 25.7254 37.0194 34 24 34C31.2627 30.2453 36.2998 21.9431 36.2998 14.5167C36.2998 7.96432 34.1657 4.22948 34.037 4.01023C34.0494 4.02762 34.0802 4.06577 34.1274 4.12411ZM166 57C164.614 57.9549 162.236 59.3853 159.089 60.4371C158.622 63.7183 157.053 65.3732 154.383 65.3732C152.049 65.3732 150.732 64.1881 150.075 61.78C147.894 61.6602 145.279 61.0078 143 59.3529C143.977 65.0878 147.822 68 154.383 68C161.962 68 165.744 64.3764 166 57ZM159.226 58C159.224 49.9476 158.68 45.7843 154.431 45.7843C150.714 45.7843 149.514 49.1351 149.514 55.9395L149.516 56.4879C147.201 55.5141 144.973 54.125 143 52.4052C143.991 46.1472 147.83 43 154.372 43C161.504 43 166 47.7944 166 55.9395L165.996 56.3911C164.658 56.9516 162.366 57.7359 159.226 58ZM73.5923 64.1461C74.0628 64.1461 74.5314 64.4495 74.9426 65.0585C75 65.1616 75 65.3104 75 65.4155C75 66.7841 71.8326 68 66.259 68C57.3976 68 52 63.0789 52 55.0696C52 47.207 56.3399 43 64.3215 43C70.7749 43 74.9426 46.3481 74.9426 50.0474C74.9426 52.2788 73.2996 53.6474 70.4249 53.6474H61.1522C59.6852 53.6474 59.2165 54.1552 59.2165 55.3731C59.2165 57.0987 60.1538 59.7844 61.2689 61.2561C63.0897 63.6383 65.5533 64.755 68.78 64.755C70.0445 64.755 71.0903 64.5484 71.9636 64.3759L71.9636 64.3758C72.5895 64.2522 73.1267 64.1461 73.5923 64.1461ZM59.4499 50.6067H63.6176C63.9402 50.6067 64.2488 50.6196 64.5572 50.6325C64.8652 50.6454 65.1729 50.6583 65.494 50.6583C67.4315 50.6583 68.3113 50.5056 68.3113 49.847C68.3113 49.4384 68.1947 48.9346 67.9001 48.2741C67.1963 46.5505 65.9645 45.6876 64.2048 45.6876C61.6801 45.6876 60.0964 47.3617 59.4499 50.6067ZM90 68H83.6789C80.5808 68 79.0594 66.1806 79.0594 62.6523V62.1466L79 54.3315V33H85.8064V62.1466C85.8064 64.9182 86.4146 65.827 89.4533 65.827H90V68ZM114 52.0598V64.6093H110.668C109.212 64.6093 108.001 64.9636 107.151 65.4703C106.861 65.6499 106.582 65.8342 106.304 66.0177L106.303 66.0178L106.303 66.0179C104.778 67.0233 103.297 68 100.425 68C95.6367 68 92 65.2664 92 61.9272C92 57.1211 97.0313 54.3876 107.031 53.9818V51.7569C107.031 47.707 106.365 45.6841 104.003 45.6841C101.856 45.6841 101.647 47.1213 101.417 48.6942C101.375 48.9874 101.331 49.2853 101.274 49.5796C100.909 51.4006 99.5756 52.2102 97.1538 52.2617L93.3334 49.1758C93.4578 45.4802 97.5173 43 104.062 43C111.394 43 114 45.5812 114 52.0598ZM102.365 64.3064C103.941 64.3064 106 63.293 107.031 61.5234V56.7154C102.061 56.9173 99.5164 58.384 99.5164 61.0661C99.5164 63.0891 100.668 64.3064 102.365 64.3064ZM141.878 45.5629L131.45 68.3954C131.177 68.9785 130.926 69.5488 130.684 70.0998C129.967 71.7344 129.323 73.1994 128.375 74.3277C126.328 76.7923 124.035 78 120.781 78H116.442V75.6869H119.635C121.746 75.6869 124.278 73.9776 125.422 71.3104L126.75 68.2459L118.067 50.0397C117.924 49.7349 117.788 49.4477 117.657 49.1762L115 43.6019H121.867L130.185 61.4048L138.021 44.2589C138.383 43.4524 139.106 43 140.012 43C141.157 43 142 43.8556 142 44.8607C142 45.1125 142 45.3112 141.878 45.5629ZM25 75.1895V44.2389C25.3438 44.2389 25.6545 44.2522 25.9494 44.2649C26.2159 44.2763 26.4696 44.2871 26.7233 44.2871C28.6228 44.2871 29.8736 44.1406 30.5842 43.6973C31.2878 43.2782 31.9049 42.8298 32.5033 42.3949C34.2285 41.1412 35.799 40 38.8424 40C45.019 40 49 44.4837 49 52.2214C49 60.1556 44.899 64.5912 38.0698 64.5912C35.3358 64.5912 33.4344 63.903 31.713 62.1758V75.1895C31.713 76.7181 30.2879 78 28.3865 78C26.4871 78 25 76.7181 25 75.1895ZM31.713 48.3275V53.9466C31.713 58.6289 33.3763 60.9942 36.7028 60.9942C40.0893 60.9942 41.5163 58.0391 41.5163 52.0749C41.5163 46.3574 40.1474 43.5488 36.8228 43.5488C34.6833 43.5488 33.02 45.1237 31.713 48.3275Z" fill="white"/>
</svg>
