<svg width="106" height="88" viewBox="0 0 106 88" fill="none" xmlns="http://www.w3.org/2000/svg">
<mask id="mask0" mask-type="alpha" maskUnits="userSpaceOnUse" x="0" y="69" width="106" height="19">
<path fill-rule="evenodd" clip-rule="evenodd" d="M0 69.9579H106V87.2521H0V69.9579Z" fill="white"/>
</mask>
<g mask="url(#mask0)">
<path fill-rule="evenodd" clip-rule="evenodd" d="M73.383 70.6532L73.015 72.3702C72.805 73.1582 72.209 73.7182 71.368 73.7362H70.984C67.532 73.7542 67.322 74.6822 66.656 77.8882L65.833 81.6892C64.834 86.5242 60.455 86.6122 60.087 86.6122H51.363L51.732 84.8952C51.959 84.0542 52.572 83.5812 53.378 83.5292H55.481C58.931 83.5112 59.142 82.5832 59.807 79.3772L60.63 75.5932C61.664 70.7762 66.919 70.6712 67.725 70.6712H73.383V70.6532ZM28.959 77.1702H36.211L35.844 78.8512C35.703 79.5882 34.95 80.2172 34.197 80.2172H28.312L27.611 83.5112H34.862L34.478 85.2802C34.337 85.9992 33.567 86.5772 32.848 86.5772H22.408C22.093 86.5592 20.902 86.4542 21.094 85.1232L23.897 72.0032C24.055 71.2492 24.808 70.6352 25.543 70.6352H37.595L37.228 72.3352C37.07 73.0892 36.317 73.7022 35.581 73.7022H29.695L28.959 77.1702ZM100.482 83.5112H106L105.632 85.2802C105.475 85.9992 104.721 86.5772 103.986 86.5772H95.297C94.982 86.5592 93.79 86.4542 93.984 85.1232L96.786 72.0032C96.944 71.2492 97.696 70.6352 98.433 70.6352H103.233L100.482 83.5112ZM5.88901 86.5772H1.33501C1.02001 86.5592 -0.17199 86.4542 0.0210099 85.1232L2.82301 72.0032C2.98201 71.2492 3.71701 70.6352 4.48701 70.6352H12.195C13.317 70.6352 14.297 70.6882 15.12 70.8292C15.962 70.9512 16.697 71.1792 17.328 71.4942C17.941 71.8092 18.362 72.1072 18.765 72.7202C19.202 73.3512 19.308 73.8242 19.36 74.5942C19.5 76.4342 18.695 77.6602 17.083 78.7122C15.576 79.5002 13.509 79.6222 13.019 79.6392C13.019 79.6392 12.511 79.7452 13.089 79.9022C13.089 79.9022 13.807 80.0782 14.403 80.6212C15.681 81.6362 16.61 82.6882 19.5 86.5772H12.668C12.668 86.5772 11.494 84.2292 9.04201 80.7092C8.49901 79.9202 7.62301 80.0602 7.29001 80.0252L5.88901 86.5772ZM13.299 74.8922C13.264 74.2452 12.984 73.8062 12.476 73.5442C11.968 73.2632 11.232 73.1412 10.286 73.1412H8.76201L7.83301 77.4322H9.34001C10.654 77.4322 11.635 77.2052 12.335 76.7672C13.036 76.3112 13.352 75.6802 13.299 74.8922ZM39.452 86.5772C39.452 86.5772 37.841 86.6462 38.069 85.1232L40.871 72.0032C41.029 71.2492 41.765 70.6352 42.518 70.6352H49.279C50.523 70.6352 51.61 70.7232 52.52 70.8642C53.448 71.0042 54.272 71.2312 54.973 71.5822C55.655 71.9152 56.181 72.3702 56.567 72.9132C56.952 73.4562 57.162 74.2622 57.215 75.0862C57.337 76.9242 56.496 78.4142 54.693 79.5352C52.905 80.6742 50.33 81.0932 46.967 81.0932H45.111L43.919 86.5942H39.452V86.5772ZM51.189 74.9452C51.154 74.3322 50.856 73.8592 50.295 73.5612C49.735 73.2632 48.929 73.1062 47.878 73.1062H46.81L45.793 77.8882H46.652C48.141 77.8882 49.279 77.6432 50.085 77.1342C50.873 76.6272 51.241 75.8912 51.189 74.9452ZM79.829 75.8392C77.762 78.1862 77.237 81.2522 78.638 82.6882C80.039 84.1062 82.86 83.3712 84.927 81.0072C86.994 78.6592 87.52 75.5932 86.101 74.1572C84.699 72.7382 81.897 73.4912 79.829 75.8392ZM71.894 81.3912C71.053 76.8192 75.239 71.7572 80.53 70.2862C86.679 69.0422 91.863 71.4072 92.81 76.1362C93.457 80.7602 89.902 85.5952 83.946 86.9792C78.305 88.0312 72.875 86.0162 71.894 81.3912Z" fill="#FEFEFE"/>
</g>
<mask id="mask1" mask-type="alpha" maskUnits="userSpaceOnUse" x="11" y="0" width="86" height="59">
<path fill-rule="evenodd" clip-rule="evenodd" d="M11.1602 0.00012207H96.1949V58.6134H11.1602V0.00012207Z" fill="white"/>
</mask>
<g mask="url(#mask1)">
<path fill-rule="evenodd" clip-rule="evenodd" d="M91.4841 40.3758C73.6851 37.6598 44.6571 39.8318 27.8771 41.6608C27.6711 41.4968 26.7811 37.8528 26.9461 33.2778C28.8521 32.2978 41.7571 30.6558 49.1891 30.2268C74.9001 29.3378 92.8291 31.4998 93.0351 31.4998C93.0841 34.4758 91.4841 40.2118 91.4841 40.3758ZM40.1501 54.2348C34.6051 52.7188 28.8521 44.7978 28.8521 44.5508C47.3061 42.2778 69.0371 41.6328 71.2091 41.7148H73.6901C68.7131 49.3808 55.1801 58.3468 40.1501 54.2348ZM14.4471 29.8498C14.4671 26.0158 15.6711 23.4468 16.5621 20.5788C21.5051 18.8618 38.7961 17.9488 41.0711 17.8668C43.5021 17.7208 44.0131 16.5098 44.7941 15.1548C43.5531 15.0728 38.4631 15.1618 37.3261 15.1618C40.8561 9.68777 57.7701 0.812773 69.3021 6.27777C75.9281 9.41777 77.7041 13.7448 78.2991 14.6618C80.2881 17.7228 79.9691 22.9458 79.8511 26.7428C68.3961 26.0838 66.1361 25.7068 42.3121 27.2358C33.3161 28.2228 23.4421 28.8638 14.4471 29.8498ZM96.1711 29.6618C92.8761 28.1548 89.6741 27.5898 83.0841 27.1188C85.4381 15.2558 77.7521 0.262774 60.1111 0.00277356C53.7091 -0.0912264 48.8671 2.12577 45.7991 3.39277C39.6601 5.92877 34.7351 10.3948 31.2061 15.0678C24.5211 15.6328 18.9121 16.4078 14.0811 18.1138C13.0981 19.9968 9.95714 29.6868 11.6541 32.3148C11.9821 33.1428 12.0791 32.9838 12.5851 33.5478C16.4111 33.6298 19.7081 34.6748 23.5341 34.7578C23.3101 49.3878 35.9331 63.0488 56.6271 57.2478C65.4311 54.7798 71.1971 49.7778 75.9281 43.9728C80.5441 43.9418 90.1261 43.5308 93.3451 42.1028C94.9001 40.6618 96.4031 32.7628 96.1711 29.6618Z" fill="#FEFEFE"/>
</g>
</svg>
