<svg width="149" height="77" viewBox="0 0 149 77" fill="none" xmlns="http://www.w3.org/2000/svg">
<path fill-rule="evenodd" clip-rule="evenodd" d="M97.56 23.211C97.56 10.396 87.173 0 74.356 0C61.542 0 51.149 10.396 51.149 23.211C51.149 36.021 61.542 46.396 74.356 46.396C87.173 46.396 97.56 36.021 97.56 23.211ZM23.207 0.009C36.017 0.009 46.404 10.396 46.404 23.219C46.404 36.021 36.017 46.414 23.207 46.414C10.389 46.414 0 36.021 0 23.219C0 10.396 10.389 0.009 23.207 0.009ZM102.314 23.219C102.314 36.021 112.7 46.414 125.519 46.414C138.336 46.414 148.724 36.021 148.724 23.219C148.724 10.396 138.336 0.009 125.519 0.009C112.7 0.009 102.314 10.396 102.314 23.219ZM136.116 76.0942C136.703 76.289 137.426 76.529 139.278 76.529C143.451 76.529 145.806 73.726 145.806 69.607C145.806 67.105 144.675 65.327 140.312 63.57C136.787 62.1632 136.793 60.3698 136.794 60.0691L136.794 60.056L136.794 60.0313C136.791 59.6669 136.773 57.284 139.552 57.284C142.402 57.284 143.719 60.108 144.183 61.142C144.628 62.187 144.98 61.843 144.98 61.247C144.98 60.9442 144.973 60.0915 144.966 59.2339C144.959 58.3666 144.952 57.4943 144.952 57.181C144.952 56.558 144.558 56.443 144.382 56.443C144.327 56.443 144.291 56.4548 144.241 56.4709C144.136 56.5049 143.972 56.558 143.451 56.558C143.19 56.558 142.971 56.5019 142.678 56.4271C142.091 56.2772 141.209 56.052 139.108 56.052C135.965 56.052 133.042 58.251 133.042 62.122C133.042 64.219 133.474 66.39 137.931 68.408C141.255 69.923 141.973 70.67 141.973 72.317C141.973 72.486 141.752 75.155 138.815 75.155C135.887 75.155 134.199 72.099 133.794 71.082C133.387 70.083 133.024 70.677 133.017 71.123C133 71.406 133.046 72.9608 133.08 74.1228L133.08 74.1296C133.098 74.7546 133.113 75.2647 133.113 75.4C133.113 75.794 133.516 76.06 133.633 76.06C133.673 76.06 133.812 76.0289 133.984 75.9907C134.26 75.9291 134.619 75.849 134.786 75.849C135.377 75.849 135.715 75.9611 136.116 76.0942ZM125.608 76.273H132.214C132.507 76.273 132.895 75.808 132.231 75.355C131.562 74.899 131.058 73.808 130.757 72.871C130.445 71.934 125.608 58.437 125.25 57.582C124.879 56.677 124.523 56.505 124.138 56.505H122.406C121.848 56.505 121.622 57.243 121.586 57.582C121.555 57.9 121.478 58.231 121.219 58.903C121.089 59.2435 120.028 62.353 118.931 65.5676L118.93 65.5709L118.929 65.5741C117.817 68.8331 116.668 72.1985 116.416 72.895C115.864 74.427 115.113 74.981 114.32 75.566C113.709 76.005 114.156 76.252 114.48 76.252H118.735C119.404 76.252 119.142 75.671 118.719 75.481C117.774 75.059 117.485 74.17 117.7 73.272C117.794 72.871 118.378 71.021 118.641 70.429C118.891 69.85 119.249 69.78 119.625 69.78H123.777C124.513 69.78 124.796 70.177 124.978 70.67C125.032 70.8173 125.135 71.0918 125.257 71.4144L125.257 71.4152C125.54 72.1638 125.921 73.1715 126.002 73.453C126.117 73.85 126.132 74.134 126.132 74.509C126.132 74.885 126.117 75.144 125.489 75.591C124.91 76.005 125.073 76.273 125.608 76.273ZM121.349 62.514C121.494 62.01 121.864 61.987 122.059 62.514C122.093 62.6083 122.178 62.8425 122.293 63.1608L122.294 63.162C122.764 64.4612 123.739 67.1581 123.858 67.46C124.008 67.855 123.828 68.287 123.34 68.287H120.103C119.657 68.287 119.446 67.855 119.636 67.346C119.831 66.812 121.277 62.723 121.349 62.514ZM111.458 76.266C112.035 76.266 112.035 75.73 111.43 75.515C110.75 75.27 110.396 74.679 110.396 73.854V58.755C110.396 58.28 110.694 58.134 110.914 58.134H112.767C114.061 58.134 115.062 59.618 115.493 60.29C115.864 60.881 116.106 60.638 116.106 60.267C116.106 59.899 116.086 58.134 116.012 57.433C115.923 56.736 115.652 56.471 115.017 56.471H101.008C100.503 56.471 100.337 56.899 100.323 57.318C100.306 57.742 100.241 59.44 100.241 60.01C100.241 60.627 100.743 60.363 100.877 60.056C101.289 59.055 102.627 58.081 103.729 58.081H105.256C105.559 58.081 105.739 58.193 105.739 58.833V73.937C105.739 74.8109 105.189 75.1613 104.595 75.5392L104.517 75.589L104.458 75.627C103.825 76.06 104.299 76.266 104.623 76.266H111.458ZM98.453 57.032C97.848 57.284 97.107 57.822 97.107 58.769V73.937C97.107 74.8666 97.793 75.2282 98.4068 75.5516L98.453 75.576C99.021 75.859 98.918 76.266 98.367 76.266H91.118C90.566 76.266 90.459 75.859 91.019 75.576L91.047 75.5615C91.6777 75.2355 92.373 74.8761 92.373 73.937V58.769C92.373 57.822 91.629 57.284 91.019 57.032C90.121 56.654 90.541 56.316 91.046 56.316H98.439C98.939 56.316 99.363 56.654 98.453 57.032ZM89.226 76.266H84.745C84.388 76.266 84.12 76.238 83.78 75.559C83.5106 75.0303 81.769 71.0206 80.8741 68.9603L80.8737 68.9594L80.8733 68.9585L80.8731 68.9581L80.873 68.9577C80.6159 68.3658 80.4288 67.9352 80.367 67.795C80.095 67.188 79.682 67.073 79.471 67.073H78.601C78.441 67.073 78.195 67.199 78.195 67.577V73.92C78.195 74.367 78.826 75.32 79.429 75.559C80.031 75.775 79.807 76.266 79.429 76.266H72.469C72.18 76.266 71.46 75.952 72.192 75.407C72.3538 75.284 72.5056 75.1818 72.6441 75.0886L72.6444 75.0884C73.134 74.7588 73.456 74.542 73.456 73.92V59.167C73.456 58.081 72.715 57.426 72.145 57.16C71.657 56.934 71.641 56.471 72.192 56.471H81.826C84.713 56.471 87.681 58.193 87.681 61.405C87.681 64.3817 85.89 65.4267 85.1059 65.8841L85.1046 65.8849C85.0426 65.921 84.987 65.9535 84.939 65.983C84.3664 66.3454 84.6074 66.5818 84.8006 66.7711L84.8285 66.7986C84.8423 66.8123 84.8555 66.8258 84.868 66.839C84.8835 66.8553 84.8998 66.8723 84.9169 66.89C85.1308 67.1118 85.4641 67.4574 85.866 68.34C86.309 69.281 88.597 74.41 88.767 74.822C88.9241 75.19 89.0812 75.3117 89.284 75.4688C89.3149 75.4927 89.3468 75.5174 89.38 75.544C89.664 75.774 89.924 76.266 89.226 76.266ZM79.675 57.937H78.678C78.523 57.937 78.162 58.004 78.162 58.512V65.046C78.162 65.564 78.359 65.607 78.601 65.607H79.429C80.135 65.607 82.706 65.085 82.706 61.652C82.706 58.361 80.231 57.937 79.675 57.937ZM68.929 76.266H64C63.604 76.266 63.285 76.035 63.285 75.472V74.771C63.285 74.519 63.156 74.163 62.682 74.626C62.215 75.093 60.481 76.653 57.92 76.653C55.359 76.653 51.35 75.278 51.35 70.578V59.41C51.35 58.151 50.732 57.383 49.98 57.046C49.4 56.801 49.75 56.453 49.996 56.453H57.066C57.58 56.453 58.016 56.867 57.291 57.16C56.344 57.538 55.995 58.151 55.995 59.628V70.607C55.995 72.099 56.499 74.541 59.119 74.541C61.75 74.541 63.301 71.893 63.301 71.37V59.264C63.301 57.985 62.6654 57.6283 62.0105 57.2608C61.9757 57.2413 61.9408 57.2217 61.906 57.202C61.448 56.927 61.465 56.435 62.009 56.435H68.657C69.053 56.435 69.566 56.86 68.856 57.232C68.143 57.633 67.916 58.481 67.916 59.233V73.46C67.916 74.344 68.04 75.024 68.95 75.472C69.649 75.815 69.49 76.266 68.929 76.266ZM48.4417 71.8545C48.4526 71.8211 48.4616 71.7934 48.469 71.772C48.64 71.254 48.469 70.727 48.223 71.159L48.2089 71.1844C47.8897 71.7613 46.5672 74.151 43.273 74.151C39.937 74.151 37.871 70.816 37.871 65.907C37.871 60.91 38.992 57.318 42.954 57.318C46.276 57.318 47.615 61.58 47.795 62.166C47.948 62.723 48.277 62.658 48.288 62.352C48.309 62.042 48.309 57.41 48.309 57.058C48.309 56.693 47.948 56.634 47.8 56.634C47.7432 56.634 47.6538 56.6562 47.547 56.6828C47.3887 56.7221 47.1921 56.771 47.007 56.771C46.8773 56.771 46.6842 56.7116 46.4042 56.6255C45.6671 56.3988 44.3284 55.987 41.963 55.987C35.118 55.987 32.946 62.105 32.946 66.541C32.946 72.399 36.732 76.592 41.981 76.592C46.8975 76.592 48.1853 72.6412 48.4417 71.8545ZM31.675 75.372C31.651 75.723 31.518 76.245 30.624 76.245H18.815C18.388 76.245 17.694 76.005 18.536 75.394C19.256 74.878 19.61 74.468 19.61 73.828V58.971C19.61 58.361 19.514 58.04 18.398 57.172C17.781 56.707 17.811 56.375 18.435 56.375H30.249L30.3073 56.3748C30.7495 56.373 31.2553 56.371 31.375 57.275C31.4774 58.0881 31.4862 59.1464 31.4908 59.6999L31.492 59.841C31.518 60.319 31.283 60.778 30.796 60.056C30.314 59.325 29.177 57.909 27.537 57.909H24.736C24.476 57.909 24.171 58.018 24.171 58.739V64.733C24.171 65.128 24.313 65.348 24.635 65.348H27.138C28.4732 65.348 28.6637 65.1124 29.2632 64.3709L29.2633 64.3708C29.3902 64.2137 29.5356 64.034 29.714 63.829C30.054 63.446 30.401 63.298 30.401 63.925V68.244C30.401 68.677 30.202 69.155 29.683 68.423C29.163 67.691 28.119 66.961 26.95 66.961H24.685C24.363 66.961 24.262 67.167 24.262 67.703V73.135C24.262 73.664 24.818 74.802 26.12 74.802H27.225C29.188 74.802 30.371 73.433 31.319 71.893C31.581 71.465 31.955 71.465 31.955 71.934C31.955 72.3135 31.794 74.0688 31.7148 74.9324L31.7148 74.9326L31.7148 74.9327C31.6955 75.143 31.6811 75.3003 31.675 75.372ZM6.72102 76.0701C7.30871 76.2648 8.03085 76.504 9.873 76.504C14.058 76.504 16.403 73.712 16.403 69.584C16.403 67.094 15.285 65.284 10.914 63.554C7.38431 62.1437 7.38999 60.3542 7.39097 60.0442L7.391 60.031L7.39086 60.007C7.38801 59.6505 7.36891 57.264 10.15 57.264C13.009 57.264 14.325 60.077 14.771 61.117C15.234 62.156 15.59 61.82 15.59 61.22C15.59 60.9275 15.5825 60.0883 15.5748 59.2376L15.5748 59.2375V59.2374C15.567 58.3633 15.559 57.4772 15.559 57.16C15.559 56.547 15.165 56.418 14.994 56.418C14.9341 56.418 14.895 56.4318 14.8423 56.4504C14.7342 56.4886 14.5692 56.547 14.05 56.547C13.7902 56.547 13.5714 56.4899 13.2795 56.4137C12.6938 56.2608 11.8134 56.031 9.716 56.031C6.565 56.031 3.657 58.231 3.657 62.093C3.657 64.197 4.076 66.362 8.533 68.393C11.86 69.893 12.568 70.653 12.568 72.299C12.568 72.463 12.357 75.137 9.421 75.137C6.491 75.137 4.801 72.074 4.391 71.055C3.989 70.056 3.633 70.66 3.622 71.096C3.61002 71.376 3.64934 72.8513 3.68002 74.0027C3.69799 74.6771 3.713 75.2403 3.713 75.387C3.713 75.765 4.119 76.024 4.239 76.024C4.28004 76.024 4.42482 75.9934 4.6012 75.9562C4.87607 75.8982 5.22767 75.824 5.383 75.824C5.9779 75.824 6.31781 75.9366 6.72102 76.0701Z" fill="white"/>
</svg>
