<svg width="168" height="113" viewBox="0 0 168 113" fill="none" xmlns="http://www.w3.org/2000/svg">
<path fill-rule="evenodd" clip-rule="evenodd" d="M84.1062 84H22.104V1H146.104V84H84.1062Z" stroke="white" stroke-width="1.87"/>
<path fill-rule="evenodd" clip-rule="evenodd" d="M84.1101 10L85.052 13.0517L88.104 13.0432L85.63 14.9313L86.58 18L84.106 16.1034L81.628 18L82.578 14.9313L80.104 13.0389H83.1641L84.1101 10Z" fill="white"/>
<path fill-rule="evenodd" clip-rule="evenodd" d="M97.6063 14L98.6648 17.0488L102.104 17.0573L99.3145 18.9512L100.382 22L97.6017 20.1104L94.8168 22L95.8844 18.9512L93.104 17.0573H96.5341L97.6063 14Z" fill="white"/>
<path fill-rule="evenodd" clip-rule="evenodd" d="M108.629 23L109.682 26.8151H113.104L110.317 29.1849L111.379 33L108.602 30.6408L105.824 33L106.891 29.1849L104.104 26.8151H107.531L108.629 23Z" fill="white"/>
<path fill-rule="evenodd" clip-rule="evenodd" d="M112.126 38L113.062 41.0468H116.104L113.627 42.9404L114.571 46L112.102 44.1106L109.633 46L110.581 42.9404L108.104 41.0468H111.142L112.126 38Z" fill="white"/>
<path fill-rule="evenodd" clip-rule="evenodd" d="M108.615 51L109.674 54.4235L113.104 54.4188L110.324 56.5477L111.387 60L108.606 57.8663L105.826 60L106.894 56.5669L104.104 54.4092L107.534 54.3996L108.615 51Z" fill="white"/>
<path fill-rule="evenodd" clip-rule="evenodd" d="M97.6108 62L98.6683 65.0432L102.104 65.0389L99.3173 66.9313L100.379 70L97.6017 68.1034L94.8241 70L95.8907 66.9398L93.104 65.0389L96.5306 65.0304L97.6108 62Z" fill="white"/>
<path fill-rule="evenodd" clip-rule="evenodd" d="M84.106 66L85.047 68.666L88.104 68.6585L85.6244 70.3229L86.5735 73L84.102 71.3394L81.6265 72.9963L82.5755 70.3229L80.104 68.6585H83.153L84.106 66Z" fill="white"/>
<path fill-rule="evenodd" clip-rule="evenodd" d="M70.1116 62L71.2765 65.0432L75.104 65.0389L72.0077 66.9313L73.1877 70L70.1015 68.1034L67.0052 70L68.1902 66.9398L65.104 65.0389L68.9114 65.0304L70.1116 62Z" fill="white"/>
<path fill-rule="evenodd" clip-rule="evenodd" d="M60.108 51L61.0476 54.4235L64.104 54.4188L61.6322 56.5477L62.5758 60L60.1 57.8663L57.6242 60L58.5717 56.5573L56.104 54.4188L59.1484 54.4092L60.108 51Z" fill="white"/>
<path fill-rule="evenodd" clip-rule="evenodd" d="M56.1303 38L57.0631 41.0468H60.104L57.6244 42.9404L58.5735 46L56.102 44.1106L53.6265 46L54.5755 42.9404L52.104 41.0468H55.153L56.1303 38Z" fill="white"/>
<path fill-rule="evenodd" clip-rule="evenodd" d="M60.1101 23L61.05 26.8151H64.104L61.635 29.1849L62.579 33L60.102 30.6408L57.6249 33L58.573 29.1849L56.104 26.8151H59.1499L60.1101 23Z" fill="white"/>
<path fill-rule="evenodd" clip-rule="evenodd" d="M70.1116 14L71.2866 17.0521L75.104 17.0606L72.0178 18.9564L73.1978 22L70.1015 20.1126L67.0052 22L68.1902 18.9479L65.104 17.0521H68.9114L70.1116 14Z" fill="white"/>
<path fill-rule="evenodd" clip-rule="evenodd" d="M2.198 105.618V109.93H0V99.934H2.198V103.77H6.244V99.934H8.442V109.93H6.244V105.618H2.198ZM15.225 109.846C14.763 110.023 14.2473 110.112 13.678 110.112C13.1087 110.112 12.5953 110.023 12.138 109.846C11.6807 109.669 11.2887 109.414 10.962 109.083C10.6353 108.752 10.3833 108.353 10.206 107.886C10.0287 107.419 9.94 106.897 9.94 106.318C9.94 105.739 10.0287 105.214 10.206 104.743C10.3833 104.272 10.6353 103.87 10.962 103.539C11.2887 103.208 11.6807 102.951 12.138 102.769C12.5953 102.587 13.1087 102.496 13.678 102.496C14.2473 102.496 14.763 102.587 15.225 102.769C15.687 102.951 16.0813 103.208 16.408 103.539C16.7347 103.87 16.9867 104.272 17.164 104.743C17.3413 105.214 17.43 105.739 17.43 106.318C17.43 106.897 17.3413 107.419 17.164 107.886C16.9867 108.353 16.7347 108.752 16.408 109.083C16.0813 109.414 15.687 109.669 15.225 109.846ZM13.678 108.628C13.342 108.628 13.062 108.563 12.838 108.432C12.614 108.301 12.4343 108.126 12.299 107.907C12.1637 107.688 12.068 107.44 12.012 107.165C11.956 106.89 11.928 106.607 11.928 106.318C11.928 106.029 11.956 105.744 12.012 105.464C12.068 105.184 12.1637 104.937 12.299 104.722C12.4343 104.507 12.614 104.332 12.838 104.197C13.062 104.062 13.342 103.994 13.678 103.994C14.014 103.994 14.2963 104.062 14.525 104.197C14.7537 104.332 14.9357 104.507 15.071 104.722C15.2063 104.937 15.302 105.184 15.358 105.464C15.414 105.744 15.442 106.029 15.442 106.318C15.442 106.607 15.414 106.89 15.358 107.165C15.302 107.44 15.2063 107.688 15.071 107.907C14.9357 108.126 14.7537 108.301 14.525 108.432C14.2963 108.563 14.014 108.628 13.678 108.628ZM20.706 106.668V109.93H18.718V102.692H20.608V104.036H20.636C20.7293 103.812 20.8553 103.604 21.014 103.413C21.1727 103.222 21.3547 103.058 21.56 102.923C21.7653 102.788 21.9847 102.683 22.218 102.608C22.4513 102.533 22.694 102.496 22.946 102.496C23.0767 102.496 23.2213 102.519 23.38 102.566V104.414C23.2867 104.395 23.1747 104.379 23.044 104.365C22.9133 104.351 22.7873 104.344 22.666 104.344C22.302 104.344 21.994 104.405 21.742 104.526C21.49 104.647 21.287 104.813 21.133 105.023C20.979 105.233 20.8693 105.478 20.804 105.758C20.7387 106.038 20.706 106.341 20.706 106.668ZM26.208 101.572V99.934H24.22V101.572H26.208ZM26.208 102.692V109.93H24.22V102.692H26.208ZM33.978 109.93V108.432H29.946L33.712 104.19V102.692H27.608V104.19H31.094L27.328 108.432V109.93H33.978ZM40.103 109.846C39.641 110.023 39.1253 110.112 38.556 110.112C37.9867 110.112 37.4733 110.023 37.016 109.846C36.5587 109.669 36.1667 109.414 35.84 109.083C35.5133 108.752 35.2613 108.353 35.084 107.886C34.9067 107.419 34.818 106.897 34.818 106.318C34.818 105.739 34.9067 105.214 35.084 104.743C35.2613 104.272 35.5133 103.87 35.84 103.539C36.1667 103.208 36.5587 102.951 37.016 102.769C37.4733 102.587 37.9867 102.496 38.556 102.496C39.1253 102.496 39.641 102.587 40.103 102.769C40.565 102.951 40.9593 103.208 41.286 103.539C41.6127 103.87 41.8647 104.272 42.042 104.743C42.2193 105.214 42.308 105.739 42.308 106.318C42.308 106.897 42.2193 107.419 42.042 107.886C41.8647 108.353 41.6127 108.752 41.286 109.083C40.9593 109.414 40.565 109.669 40.103 109.846ZM38.556 108.628C38.22 108.628 37.94 108.563 37.716 108.432C37.492 108.301 37.3123 108.126 37.177 107.907C37.0417 107.688 36.946 107.44 36.89 107.165C36.834 106.89 36.806 106.607 36.806 106.318C36.806 106.029 36.834 105.744 36.89 105.464C36.946 105.184 37.0417 104.937 37.177 104.722C37.3123 104.507 37.492 104.332 37.716 104.197C37.94 104.062 38.22 103.994 38.556 103.994C38.892 103.994 39.1743 104.062 39.403 104.197C39.6317 104.332 39.8137 104.507 39.949 104.722C40.0843 104.937 40.18 105.184 40.236 105.464C40.292 105.744 40.32 106.029 40.32 106.318C40.32 106.607 40.292 106.89 40.236 107.165C40.18 107.44 40.0843 107.688 39.949 107.907C39.8137 108.126 39.6317 108.301 39.403 108.432C39.1743 108.563 38.892 108.628 38.556 108.628ZM45.584 106.136V109.93H43.596V102.692H45.486V103.7H45.528C45.78 103.28 46.1067 102.974 46.508 102.783C46.9093 102.592 47.32 102.496 47.74 102.496C48.272 102.496 48.7083 102.568 49.049 102.713C49.3897 102.858 49.658 103.058 49.854 103.315C50.05 103.572 50.1877 103.884 50.267 104.253C50.3463 104.622 50.386 105.03 50.386 105.478V109.93H48.398V105.842C48.398 105.245 48.3047 104.799 48.118 104.505C47.9313 104.211 47.6 104.064 47.124 104.064C46.5827 104.064 46.1907 104.225 45.948 104.547C45.7053 104.869 45.584 105.399 45.584 106.136ZM62.524 109.93V108.222H57.89C58.1327 107.886 58.4127 107.592 58.73 107.34C59.0473 107.088 59.374 106.852 59.71 106.633C60.046 106.414 60.3797 106.192 60.711 105.968C61.0423 105.744 61.3387 105.494 61.6 105.219C61.8613 104.944 62.0713 104.629 62.23 104.274C62.3887 103.919 62.468 103.495 62.468 103C62.468 102.524 62.377 102.095 62.195 101.712C62.013 101.329 61.768 101.007 61.46 100.746C61.152 100.485 60.795 100.284 60.389 100.144C59.983 100.004 59.556 99.934 59.108 99.934C58.52 99.934 57.9997 100.034 57.547 100.235C57.0943 100.436 56.7187 100.716 56.42 101.075C56.1213 101.434 55.8973 101.854 55.748 102.335C55.5987 102.816 55.5333 103.336 55.552 103.896H57.456C57.456 103.635 57.4817 103.371 57.533 103.105C57.5843 102.839 57.6707 102.596 57.792 102.377C57.9133 102.158 58.0743 101.98 58.275 101.845C58.4757 101.71 58.7207 101.642 59.01 101.642C59.4393 101.642 59.7917 101.775 60.067 102.041C60.3423 102.307 60.48 102.678 60.48 103.154C60.48 103.453 60.4123 103.719 60.277 103.952C60.1417 104.185 59.9737 104.395 59.773 104.582C59.5723 104.769 59.3507 104.939 59.108 105.093C58.8653 105.247 58.6367 105.399 58.422 105.548C58.002 105.837 57.603 106.122 57.225 106.402C56.847 106.682 56.518 106.988 56.238 107.319C55.958 107.65 55.7363 108.026 55.573 108.446C55.4097 108.866 55.328 109.361 55.328 109.93H62.524ZM68.089 109.86C67.655 110.028 67.1907 110.112 66.696 110.112C66.2107 110.112 65.751 110.028 65.317 109.86C64.883 109.692 64.5027 109.412 64.176 109.02C63.8493 108.628 63.5903 108.103 63.399 107.445C63.2077 106.787 63.112 105.968 63.112 104.988C63.112 104.036 63.2077 103.236 63.399 102.587C63.5903 101.938 63.8493 101.418 64.176 101.026C64.5027 100.634 64.883 100.354 65.317 100.186C65.751 100.018 66.2107 99.934 66.696 99.934C67.1907 99.934 67.655 100.018 68.089 100.186C68.523 100.354 68.9057 100.634 69.237 101.026C69.5683 101.418 69.8297 101.938 70.021 102.587C70.2123 103.236 70.308 104.036 70.308 104.988C70.308 105.968 70.2123 106.787 70.021 107.445C69.8297 108.103 69.5683 108.628 69.237 109.02C68.9057 109.412 68.523 109.692 68.089 109.86ZM66.696 108.488C66.2947 108.488 65.9867 108.357 65.772 108.096C65.5573 107.835 65.401 107.52 65.303 107.151C65.205 106.782 65.1467 106.4 65.128 106.003C65.1093 105.606 65.1 105.268 65.1 104.988C65.1 104.82 65.1023 104.617 65.107 104.379C65.1117 104.141 65.128 103.896 65.156 103.644C65.184 103.392 65.2307 103.142 65.296 102.895C65.3613 102.648 65.4523 102.426 65.569 102.23C65.6857 102.034 65.835 101.875 66.017 101.754C66.199 101.633 66.4253 101.572 66.696 101.572C66.9667 101.572 67.1953 101.633 67.382 101.754C67.5687 101.875 67.7227 102.034 67.844 102.23C67.9653 102.426 68.0563 102.648 68.117 102.895C68.1777 103.142 68.2243 103.392 68.257 103.644C68.2897 103.896 68.3083 104.141 68.313 104.379C68.3177 104.617 68.32 104.82 68.32 104.988C68.32 105.268 68.3107 105.606 68.292 106.003C68.2733 106.4 68.215 106.782 68.117 107.151C68.019 107.52 67.8603 107.835 67.641 108.096C67.4217 108.357 67.1067 108.488 66.696 108.488ZM78.092 108.222V109.93H70.896C70.896 109.361 70.9777 108.866 71.141 108.446C71.3043 108.026 71.526 107.65 71.806 107.319C72.086 106.988 72.415 106.682 72.793 106.402C73.171 106.122 73.57 105.837 73.99 105.548C74.2047 105.399 74.4333 105.247 74.676 105.093C74.9187 104.939 75.1403 104.769 75.341 104.582C75.5417 104.395 75.7097 104.185 75.845 103.952C75.9803 103.719 76.048 103.453 76.048 103.154C76.048 102.678 75.9103 102.307 75.635 102.041C75.3597 101.775 75.0073 101.642 74.578 101.642C74.2887 101.642 74.0437 101.71 73.843 101.845C73.6423 101.98 73.4813 102.158 73.36 102.377C73.2387 102.596 73.1523 102.839 73.101 103.105C73.0497 103.371 73.024 103.635 73.024 103.896H71.12C71.1013 103.336 71.1667 102.816 71.316 102.335C71.4653 101.854 71.6893 101.434 71.988 101.075C72.2867 100.716 72.6623 100.436 73.115 100.235C73.5677 100.034 74.088 99.934 74.676 99.934C75.124 99.934 75.551 100.004 75.957 100.144C76.363 100.284 76.72 100.485 77.028 100.746C77.336 101.007 77.581 101.329 77.763 101.712C77.945 102.095 78.036 102.524 78.036 103C78.036 103.495 77.9567 103.919 77.798 104.274C77.6393 104.629 77.4293 104.944 77.168 105.219C76.9067 105.494 76.6103 105.744 76.279 105.968C75.9477 106.192 75.614 106.414 75.278 106.633C74.942 106.852 74.6153 107.088 74.298 107.34C73.9807 107.592 73.7007 107.886 73.458 108.222H78.092ZM82.264 110.112C82.7587 110.112 83.223 110.028 83.657 109.86C84.091 109.692 84.4737 109.412 84.805 109.02C85.1363 108.628 85.3977 108.103 85.589 107.445C85.7803 106.787 85.876 105.968 85.876 104.988C85.876 104.036 85.7803 103.236 85.589 102.587C85.3977 101.938 85.1363 101.418 84.805 101.026C84.4737 100.634 84.091 100.354 83.657 100.186C83.223 100.018 82.7587 99.934 82.264 99.934C81.7787 99.934 81.319 100.018 80.885 100.186C80.451 100.354 80.0707 100.634 79.744 101.026C79.4173 101.418 79.1583 101.938 78.967 102.587C78.7757 103.236 78.68 104.036 78.68 104.988C78.68 105.968 78.7757 106.787 78.967 107.445C79.1583 108.103 79.4173 108.628 79.744 109.02C80.0707 109.412 80.451 109.692 80.885 109.86C81.319 110.028 81.7787 110.112 82.264 110.112ZM81.34 108.096C81.5547 108.357 81.8627 108.488 82.264 108.488C82.6747 108.488 82.9897 108.357 83.209 108.096C83.4283 107.835 83.587 107.52 83.685 107.151C83.783 106.782 83.8413 106.4 83.86 106.003C83.8787 105.606 83.888 105.268 83.888 104.988C83.888 104.82 83.8857 104.617 83.881 104.379C83.8763 104.141 83.8577 103.896 83.825 103.644C83.7923 103.392 83.7457 103.142 83.685 102.895C83.6243 102.648 83.5333 102.426 83.412 102.23C83.2907 102.034 83.1367 101.875 82.95 101.754C82.7633 101.633 82.5347 101.572 82.264 101.572C81.9933 101.572 81.767 101.633 81.585 101.754C81.403 101.875 81.2537 102.034 81.137 102.23C81.0203 102.426 80.9293 102.648 80.864 102.895C80.7987 103.142 80.752 103.392 80.724 103.644C80.696 103.896 80.6797 104.141 80.675 104.379C80.6703 104.617 80.668 104.82 80.668 104.988C80.668 105.268 80.6773 105.606 80.696 106.003C80.7147 106.4 80.773 106.782 80.871 107.151C80.969 107.52 81.1253 107.835 81.34 108.096ZM92.806 112.464V109.034H92.834C93.0767 109.389 93.387 109.657 93.765 109.839C94.143 110.021 94.556 110.112 95.004 110.112C95.536 110.112 96.0003 110.009 96.397 109.804C96.7937 109.599 97.125 109.323 97.391 108.978C97.657 108.633 97.8553 108.236 97.986 107.788C98.1167 107.34 98.182 106.873 98.182 106.388C98.182 105.875 98.1167 105.382 97.986 104.911C97.8553 104.44 97.6547 104.027 97.384 103.672C97.1133 103.317 96.7727 103.033 96.362 102.818C95.9513 102.603 95.4613 102.496 94.892 102.496C94.444 102.496 94.0333 102.585 93.66 102.762C93.2867 102.939 92.9787 103.224 92.736 103.616H92.708V102.692H90.818V112.464H92.806ZM93.66 108.432C93.884 108.563 94.1547 108.628 94.472 108.628C94.7987 108.628 95.0717 108.563 95.291 108.432C95.5103 108.301 95.6877 108.131 95.823 107.921C95.9583 107.711 96.054 107.466 96.11 107.186C96.166 106.906 96.194 106.621 96.194 106.332C96.194 106.043 96.1637 105.758 96.103 105.478C96.0423 105.198 95.942 104.948 95.802 104.729C95.662 104.51 95.4823 104.332 95.263 104.197C95.0437 104.062 94.7753 103.994 94.458 103.994C94.1313 103.994 93.8583 104.062 93.639 104.197C93.4197 104.332 93.2423 104.507 93.107 104.722C92.9717 104.937 92.876 105.184 92.82 105.464C92.764 105.744 92.736 106.033 92.736 106.332C92.736 106.621 92.7663 106.906 92.827 107.186C92.8877 107.466 92.9857 107.711 93.121 107.921C93.2563 108.131 93.436 108.301 93.66 108.432ZM101.36 109.93V106.668C101.36 106.341 101.393 106.038 101.458 105.758C101.523 105.478 101.633 105.233 101.787 105.023C101.941 104.813 102.144 104.647 102.396 104.526C102.648 104.405 102.956 104.344 103.32 104.344C103.441 104.344 103.567 104.351 103.698 104.365C103.829 104.379 103.941 104.395 104.034 104.414V102.566C103.875 102.519 103.731 102.496 103.6 102.496C103.348 102.496 103.105 102.533 102.872 102.608C102.639 102.683 102.419 102.788 102.214 102.923C102.009 103.058 101.827 103.222 101.668 103.413C101.509 103.604 101.383 103.812 101.29 104.036H101.262V102.692H99.372V109.93H101.36ZM109.879 109.846C109.417 110.023 108.901 110.112 108.332 110.112C107.763 110.112 107.249 110.023 106.792 109.846C106.335 109.669 105.943 109.414 105.616 109.083C105.289 108.752 105.037 108.353 104.86 107.886C104.683 107.419 104.594 106.897 104.594 106.318C104.594 105.739 104.683 105.214 104.86 104.743C105.037 104.272 105.289 103.87 105.616 103.539C105.943 103.208 106.335 102.951 106.792 102.769C107.249 102.587 107.763 102.496 108.332 102.496C108.901 102.496 109.417 102.587 109.879 102.769C110.341 102.951 110.735 103.208 111.062 103.539C111.389 103.87 111.641 104.272 111.818 104.743C111.995 105.214 112.084 105.739 112.084 106.318C112.084 106.897 111.995 107.419 111.818 107.886C111.641 108.353 111.389 108.752 111.062 109.083C110.735 109.414 110.341 109.669 109.879 109.846ZM108.332 108.628C107.996 108.628 107.716 108.563 107.492 108.432C107.268 108.301 107.088 108.126 106.953 107.907C106.818 107.688 106.722 107.44 106.666 107.165C106.61 106.89 106.582 106.607 106.582 106.318C106.582 106.029 106.61 105.744 106.666 105.464C106.722 105.184 106.818 104.937 106.953 104.722C107.088 104.507 107.268 104.332 107.492 104.197C107.716 104.062 107.996 103.994 108.332 103.994C108.668 103.994 108.95 104.062 109.179 104.197C109.408 104.332 109.59 104.507 109.725 104.722C109.86 104.937 109.956 105.184 110.012 105.464C110.068 105.744 110.096 106.029 110.096 106.318C110.096 106.607 110.068 106.89 110.012 107.165C109.956 107.44 109.86 107.688 109.725 107.907C109.59 108.126 109.408 108.301 109.179 108.432C108.95 108.563 108.668 108.628 108.332 108.628ZM118.566 112.324C118.071 112.548 117.409 112.66 116.578 112.66C116.223 112.66 115.862 112.616 115.493 112.527C115.124 112.438 114.788 112.301 114.485 112.114C114.182 111.927 113.93 111.687 113.729 111.393C113.528 111.099 113.414 110.747 113.386 110.336H115.36C115.453 110.709 115.635 110.968 115.906 111.113C116.177 111.258 116.489 111.33 116.844 111.33C117.404 111.33 117.812 111.162 118.069 110.826C118.326 110.49 118.449 110.065 118.44 109.552V108.6H118.412C118.197 108.983 117.892 109.265 117.495 109.447C117.098 109.629 116.681 109.72 116.242 109.72C115.701 109.72 115.234 109.624 114.842 109.433C114.45 109.242 114.128 108.98 113.876 108.649C113.624 108.318 113.44 107.93 113.323 107.487C113.206 107.044 113.148 106.575 113.148 106.08C113.148 105.613 113.216 105.163 113.351 104.729C113.486 104.295 113.685 103.912 113.946 103.581C114.207 103.25 114.532 102.986 114.919 102.79C115.306 102.594 115.752 102.496 116.256 102.496C116.732 102.496 117.15 102.585 117.509 102.762C117.868 102.939 118.169 103.238 118.412 103.658H118.44V102.692H120.33V109.468C120.33 109.757 120.29 110.089 120.211 110.462C120.132 110.835 119.961 111.183 119.7 111.505C119.439 111.827 119.061 112.1 118.566 112.324ZM116.746 108.222C116.438 108.222 116.181 108.157 115.976 108.026C115.771 107.895 115.605 107.727 115.479 107.522C115.353 107.317 115.264 107.086 115.213 106.829C115.162 106.572 115.136 106.313 115.136 106.052C115.136 105.781 115.166 105.522 115.227 105.275C115.288 105.028 115.386 104.808 115.521 104.617C115.656 104.426 115.824 104.274 116.025 104.162C116.226 104.05 116.466 103.994 116.746 103.994C117.073 103.994 117.343 104.055 117.558 104.176C117.773 104.297 117.945 104.461 118.076 104.666C118.207 104.871 118.3 105.107 118.356 105.373C118.412 105.639 118.44 105.921 118.44 106.22C118.44 106.481 118.405 106.731 118.335 106.969C118.265 107.207 118.16 107.419 118.02 107.606C117.88 107.793 117.703 107.942 117.488 108.054C117.273 108.166 117.026 108.222 116.746 108.222ZM123.914 106.668V109.93H121.926V102.692H123.816V104.036H123.844C123.937 103.812 124.063 103.604 124.222 103.413C124.381 103.222 124.563 103.058 124.768 102.923C124.973 102.788 125.193 102.683 125.426 102.608C125.659 102.533 125.902 102.496 126.154 102.496C126.285 102.496 126.429 102.519 126.588 102.566V104.414C126.495 104.395 126.383 104.379 126.252 104.365C126.121 104.351 125.995 104.344 125.874 104.344C125.51 104.344 125.202 104.405 124.95 104.526C124.698 104.647 124.495 104.813 124.341 105.023C124.187 105.233 124.077 105.478 124.012 105.758C123.947 106.038 123.914 106.341 123.914 106.668ZM129.528 110.112C129.976 110.112 130.415 110.047 130.844 109.916C131.273 109.785 131.647 109.557 131.964 109.23C131.973 109.351 131.99 109.47 132.013 109.587C132.036 109.704 132.067 109.818 132.104 109.93H134.12C134.027 109.781 133.961 109.557 133.924 109.258C133.887 108.959 133.868 108.647 133.868 108.32V104.554C133.868 104.115 133.77 103.763 133.574 103.497C133.378 103.231 133.126 103.023 132.818 102.874C132.51 102.725 132.169 102.624 131.796 102.573C131.423 102.522 131.054 102.496 130.69 102.496C130.289 102.496 129.89 102.536 129.493 102.615C129.096 102.694 128.739 102.827 128.422 103.014C128.105 103.201 127.843 103.448 127.638 103.756C127.433 104.064 127.316 104.451 127.288 104.918H129.276C129.313 104.526 129.444 104.246 129.668 104.078C129.892 103.91 130.2 103.826 130.592 103.826C130.769 103.826 130.935 103.838 131.089 103.861C131.243 103.884 131.378 103.931 131.495 104.001C131.612 104.071 131.705 104.169 131.775 104.295C131.845 104.421 131.88 104.591 131.88 104.806C131.889 105.011 131.829 105.168 131.698 105.275C131.567 105.382 131.39 105.464 131.166 105.52C130.942 105.576 130.685 105.618 130.396 105.646C130.107 105.674 129.813 105.711 129.514 105.758C129.215 105.805 128.919 105.868 128.625 105.947C128.331 106.026 128.07 106.145 127.841 106.304C127.612 106.463 127.426 106.675 127.281 106.941C127.136 107.207 127.064 107.545 127.064 107.956C127.064 108.329 127.127 108.651 127.253 108.922C127.379 109.193 127.554 109.417 127.778 109.594C128.002 109.771 128.263 109.902 128.562 109.986C128.861 110.07 129.183 110.112 129.528 110.112ZM129.808 108.754C129.957 108.782 130.111 108.796 130.27 108.796C130.662 108.796 130.965 108.731 131.18 108.6C131.395 108.469 131.553 108.313 131.656 108.131C131.759 107.949 131.822 107.765 131.845 107.578C131.868 107.391 131.88 107.242 131.88 107.13V106.388C131.796 106.463 131.691 106.521 131.565 106.563C131.439 106.605 131.304 106.64 131.159 106.668C131.014 106.696 130.863 106.719 130.704 106.738C130.545 106.757 130.387 106.78 130.228 106.808C130.079 106.836 129.932 106.873 129.787 106.92C129.642 106.967 129.516 107.03 129.409 107.109C129.302 107.188 129.215 107.289 129.15 107.41C129.085 107.531 129.052 107.685 129.052 107.872C129.052 108.049 129.085 108.199 129.15 108.32C129.215 108.441 129.304 108.537 129.416 108.607C129.528 108.677 129.659 108.726 129.808 108.754ZM137.452 109.93V105.73C137.452 105.375 137.503 105.088 137.606 104.869C137.709 104.65 137.832 104.482 137.977 104.365C138.122 104.248 138.271 104.169 138.425 104.127C138.579 104.085 138.703 104.064 138.796 104.064C139.113 104.064 139.354 104.118 139.517 104.225C139.68 104.332 139.797 104.475 139.867 104.652C139.937 104.829 139.977 105.023 139.986 105.233C139.995 105.443 140 105.655 140 105.87V109.93H141.988V105.898C141.988 105.674 142.004 105.452 142.037 105.233C142.07 105.014 142.135 104.818 142.233 104.645C142.331 104.472 142.466 104.332 142.639 104.225C142.812 104.118 143.038 104.064 143.318 104.064C143.598 104.064 143.82 104.111 143.983 104.204C144.146 104.297 144.27 104.423 144.354 104.582C144.438 104.741 144.489 104.927 144.508 105.142C144.527 105.357 144.536 105.585 144.536 105.828V109.93H146.524V105.086C146.524 104.619 146.459 104.22 146.328 103.889C146.197 103.558 146.015 103.289 145.782 103.084C145.549 102.879 145.269 102.729 144.942 102.636C144.615 102.543 144.261 102.496 143.878 102.496C143.374 102.496 142.938 102.617 142.569 102.86C142.2 103.103 141.909 103.383 141.694 103.7C141.498 103.252 141.211 102.939 140.833 102.762C140.455 102.585 140.037 102.496 139.58 102.496C139.104 102.496 138.682 102.599 138.313 102.804C137.944 103.009 137.629 103.299 137.368 103.672H137.34V102.692H135.464V109.93H137.452ZM150.136 105.73V109.93H148.148V102.692H150.024V103.672H150.052C150.313 103.299 150.628 103.009 150.997 102.804C151.366 102.599 151.788 102.496 152.264 102.496C152.721 102.496 153.139 102.585 153.517 102.762C153.895 102.939 154.182 103.252 154.378 103.7C154.593 103.383 154.884 103.103 155.253 102.86C155.622 102.617 156.058 102.496 156.562 102.496C156.945 102.496 157.299 102.543 157.626 102.636C157.953 102.729 158.233 102.879 158.466 103.084C158.699 103.289 158.881 103.558 159.012 103.889C159.143 104.22 159.208 104.619 159.208 105.086V109.93H157.22V105.828C157.22 105.585 157.211 105.357 157.192 105.142C157.173 104.927 157.122 104.741 157.038 104.582C156.954 104.423 156.83 104.297 156.667 104.204C156.504 104.111 156.282 104.064 156.002 104.064C155.722 104.064 155.496 104.118 155.323 104.225C155.15 104.332 155.015 104.472 154.917 104.645C154.819 104.818 154.754 105.014 154.721 105.233C154.688 105.452 154.672 105.674 154.672 105.898V109.93H152.684V105.87C152.684 105.655 152.679 105.443 152.67 105.233C152.661 105.023 152.621 104.829 152.551 104.652C152.481 104.475 152.364 104.332 152.201 104.225C152.038 104.118 151.797 104.064 151.48 104.064C151.387 104.064 151.263 104.085 151.109 104.127C150.955 104.169 150.806 104.248 150.661 104.365C150.516 104.482 150.393 104.65 150.29 104.869C150.187 105.088 150.136 105.375 150.136 105.73ZM164.122 110.112C164.943 110.112 165.643 109.925 166.222 109.552C166.801 109.179 167.23 108.558 167.51 107.69H165.76C165.695 107.914 165.517 108.126 165.228 108.327C164.939 108.528 164.593 108.628 164.192 108.628C163.632 108.628 163.203 108.483 162.904 108.194C162.605 107.905 162.442 107.438 162.414 106.794H167.636C167.673 106.234 167.627 105.697 167.496 105.184C167.365 104.671 167.153 104.213 166.859 103.812C166.565 103.411 166.189 103.091 165.732 102.853C165.275 102.615 164.738 102.496 164.122 102.496C163.571 102.496 163.07 102.594 162.617 102.79C162.164 102.986 161.775 103.254 161.448 103.595C161.121 103.936 160.869 104.339 160.692 104.806C160.515 105.273 160.426 105.777 160.426 106.318C160.426 106.878 160.512 107.391 160.685 107.858C160.858 108.325 161.103 108.726 161.42 109.062C161.737 109.398 162.125 109.657 162.582 109.839C163.039 110.021 163.553 110.112 164.122 110.112ZM162.414 105.534H165.648C165.555 105.03 165.389 104.647 165.151 104.386C164.913 104.125 164.551 103.994 164.066 103.994C163.749 103.994 163.485 104.048 163.275 104.155C163.065 104.262 162.897 104.395 162.771 104.554C162.645 104.713 162.556 104.881 162.505 105.058C162.454 105.235 162.423 105.394 162.414 105.534Z" fill="white"/>
</svg>
