<svg width="180" height="45" viewBox="0 0 180 45" fill="none" xmlns="http://www.w3.org/2000/svg">
<path fill-rule="evenodd" clip-rule="evenodd" d="M163.812 38.4952C166.382 38.4952 169.106 37.8904 171.753 36.1506V25.563C159.499 26.8478 156.778 29.949 156.778 33.5803C156.778 36.5285 159.426 38.4952 163.812 38.4952ZM151.634 10.3626C156.324 8.01732 161.088 6.95875 165.248 6.95875C174.398 6.95875 179.012 11.4957 179.012 19.2097V44.1685L173.038 41.7481C169.937 43.6383 166.382 44.47 162.829 44.47C153.45 44.47 149.215 39.4034 149.215 34.1845C149.215 31.0082 150.199 28.2098 152.541 26.0168C155.945 22.8411 162.072 20.7227 171.753 19.891C171.676 15.2769 169.257 13.2356 164.34 13.2356C161.315 13.2356 157.458 14.2177 153.299 16.4113L151.634 10.3626ZM136.888 43.6383H144.147V7.63813H136.888V43.6383ZM116.771 25.4865L132.123 43.6383H122.896L107.619 25.6376L123.198 7.63813H132.349L116.771 25.4865ZM82.0565 10.209C86.1403 7.94085 90.1496 6.95875 93.8549 6.95875C97.7119 6.95875 100.965 8.16836 103.006 10.2849C104.896 12.2529 105.955 15.0506 105.955 18.9828V43.6383H98.6953V20.8737C98.6953 17.9236 98.165 16.3361 97.0306 15.2023C96.0485 14.2177 94.2328 13.6129 92.0405 13.6129C89.3931 13.6129 86.4437 14.3694 83.3425 16.2602V43.6383H76.0823V7.2602L82.0565 10.209ZM53.5453 38.4952C56.1162 38.4952 58.8387 37.8904 61.4861 36.1506V25.563C49.2345 26.8478 46.5119 29.949 46.5119 33.5803C46.5119 36.5285 49.158 38.4952 53.5453 38.4952ZM41.3689 10.3626C46.0575 8.01732 50.8227 6.95875 54.9817 6.95875C64.1328 6.95875 68.7457 11.4957 68.7457 19.2097V44.1685L62.7709 41.7481C59.6704 43.6383 56.1162 44.47 52.5613 44.47C43.1846 44.47 38.9484 39.4034 38.9484 34.1845C38.9484 31.0082 39.9317 28.2098 42.2758 26.0168C45.6796 22.8411 51.8054 20.7227 61.4861 19.891C61.4103 15.2769 58.9898 13.2356 54.0749 13.2356C51.0489 13.2356 47.1926 14.2177 43.0322 16.4113L41.3689 10.3626ZM7.55723 35.8428C10.355 37.3539 13.7639 38.1932 17.3947 38.1932C24.5032 38.1932 27.9134 35.0168 27.9134 29.8744C27.9134 24.5803 24.44 21.4848 15.7306 20.9496C19.3607 18.3015 21.0248 15.2769 21.0248 12.5549C21.0248 9.30277 18.8311 6.20163 13.1591 6.20163C11.4951 6.20163 9.59853 6.42851 7.55723 7.03458V35.8428ZM35.7777 30.5544C35.7777 38.949 29.6462 44.47 17.7726 44.47C13.7639 44.47 9.19975 43.4873 5.87174 41.7481L0 44.1685V2.04193C4.14074 0.801984 9.22566 0 13.1591 0C22.764 0 28.3608 4.6141 28.3608 11.0426C28.3608 13.5377 27.5291 15.579 25.7147 17.5463C32.0667 18.9828 35.7777 23.8238 35.7777 30.5544Z" fill="white"/>
</svg>
