<svg width="208" height="53" viewBox="0 0 208 53" fill="none" xmlns="http://www.w3.org/2000/svg">
<path fill-rule="evenodd" clip-rule="evenodd" d="M37.3893 4.91576C36.6906 5.43403 35.733 6.40112 35.4179 7.90135C35.047 9.67279 34.6352 11.7191 34.2277 13.7436C33.8515 15.613 33.479 17.4638 33.146 19.0626C32.3398 22.8987 35.391 25.3958 39.2434 25.3958H51.0719C51.9758 25.3958 52.7038 25.0933 53.3927 24.6147C53.8617 24.3147 59.153 20.2231 59.8859 19.6429C61.0438 18.7229 60.4258 18.155 59.6905 18.155H42.9151C41.7718 18.155 41.6399 17.6268 41.7694 16.992C42.5244 13.3861 43.8403 6.6173 44.5217 3.11249C44.7597 1.88848 44.9202 1.06257 44.9525 0.908523C45.1577 -0.0684901 44.2904 -0.185037 43.753 0.216679C43.676 0.275096 43.0809 0.713837 42.2201 1.34852C40.925 2.30338 39.0284 3.70174 37.3893 4.91576ZM2.9899 25.3958C2.00852 25.3958 1.77181 24.5957 3.27839 23.4549C5.33152 21.9062 7.30163 20.307 8.4144 19.4037L8.41474 19.4034L8.41482 19.4034L8.41492 19.4033C8.83608 19.0614 9.13436 18.8193 9.26774 18.7174C9.86199 18.2606 10.5672 17.9299 11.4499 17.9299H19.8409C20.4081 17.9299 21.059 17.6927 21.5547 17.2989C23.8478 15.4918 30.2933 10.4009 30.4388 10.2747C31.1983 9.63618 32.0884 9.93401 31.8862 10.9184C31.3509 13.4926 30.7054 16.6901 30.3364 18.5177L30.3361 18.5192L30.3356 18.5216L30.3353 18.523C30.1814 19.2854 30.0758 19.8083 30.0468 19.9466C29.4969 22.6043 25.5689 25.3958 22.0947 25.3958H2.9899ZM96.8466 17.3187C96.819 14.7409 95.8986 13.6751 94.7481 13.0456C93.7112 12.4933 92.4201 12.3864 91.4189 12.3034C91.2922 12.2929 91.1701 12.2828 91.0538 12.2722C90.0934 12.1805 88.8228 12.1458 87.5096 12.1458C85.8831 12.1458 84.1918 12.194 82.8758 12.2314C82.0588 12.2546 81.3865 12.2738 80.964 12.2747C74.8786 12.3094 72.9577 15.5514 71.8647 18.5778C70.8167 21.5917 68.6057 32.1109 68.2905 35.3628C68.253 35.7519 68.2305 36.1411 68.233 36.5153C68.2305 37.8984 68.5081 39.155 69.1609 40.0597C69.8137 40.9595 70.8242 41.5865 72.5751 41.7229C74.5585 41.8691 76.9321 41.9583 79.2632 41.9583C81.8995 41.9583 84.4932 41.8443 86.4066 41.5841C90.4235 41.0834 93.0448 38.0446 93.4249 36.3443L94.3154 31.2682H87.0044L86.7393 32.6041C86.4416 34.2549 84.9184 35.6429 82.6223 35.8015H79.1057C78.1302 35.8015 77.3073 35.3678 76.782 34.7332C76.2493 34.1037 75.9842 33.2882 75.9842 32.4703C75.9842 32.2447 75.9992 32.0117 76.0467 31.7738L78.0927 22.4072C78.2152 21.7876 78.5104 20.8705 79.1132 20.0525C79.7034 19.242 80.6789 18.5183 82.0195 18.5158H86.3691L86.3909 18.516C86.6992 18.5183 87.3187 18.5229 87.9048 18.9198C88.5201 19.3263 88.9578 20.1467 88.9478 21.3811C88.9478 21.6289 88.9328 21.8941 88.8978 22.1841H96.1162L96.7315 18.9248C96.8115 18.3349 96.8466 17.8045 96.8466 17.3187ZM176.747 13.1289C175.919 12.6764 174.875 12.5218 174.123 12.4104L173.976 12.3885C172.987 12.2325 170.505 12.1434 167.917 12.1459C165.054 12.1434 162.005 12.2524 160.599 12.4678C155.721 13.1908 154.114 16.6252 153.681 18.8066L152.685 23.5261C152.61 23.9693 152.568 24.3977 152.57 24.8112C152.625 27.0224 153.509 28.6542 156.662 29.0726C159.836 29.4202 162.376 29.5842 164.289 29.7077C164.869 29.7452 165.392 29.779 165.857 29.813C167.644 29.9219 168.395 31.2343 168.36 32.1158C168.36 32.1925 168.36 32.2495 168.355 32.3163C168.342 32.4253 168.334 32.5222 168.326 32.6186L168.326 32.6191C168.292 33.0221 168.259 33.4174 167.909 34.6538L167.889 34.7256C167.541 35.466 166.793 35.877 165.977 36.2286C165.149 36.5629 164.24 36.7709 163.487 36.7733H160.346C159.25 36.7709 158.482 36.5901 157.933 36.1791C157.378 35.7606 157.19 35.1193 157.2 34.5696C157.205 34.0456 157.332 33.534 157.447 33.0716L157.447 33.0715L157.447 33.0713L157.448 33.0691H150.52L149.694 37.5533C149.674 37.6846 149.672 37.8133 149.672 37.9421C149.689 39.6134 150.836 41.4136 153.636 41.738C155.04 41.8989 158.161 41.9583 160.952 41.9583C163.039 41.9583 164.961 41.9237 165.867 41.884C171.433 41.5844 174.204 39.3856 175.17 36.2038L176.474 30.3726C176.576 29.8897 176.624 29.4465 176.624 29.0355C176.616 27.7628 176.191 26.854 175.365 26.1483C174.537 25.4426 173.25 24.9573 171.546 24.7567C171.544 24.7567 171.283 24.7307 170.854 24.6878C169.095 24.5123 164.519 24.0555 163.447 23.9619C162.926 23.9124 162.228 23.8257 161.59 23.5781C160.984 23.3528 160.286 22.8576 160.279 21.986C160.279 21.9241 160.279 21.8523 160.289 21.7879C160.3 21.7078 160.311 21.6212 160.324 21.5293C160.432 20.7147 160.596 19.4867 161.034 18.7546C161.472 18.1084 162.378 17.6082 163.732 17.5265C164.22 17.4968 164.889 17.4844 165.542 17.4844C166.293 17.4844 167.011 17.4992 167.419 17.5265C167.463 17.53 167.524 17.5314 167.599 17.5331C167.943 17.5411 168.573 17.5556 169.186 17.8162C169.959 18.1183 170.672 18.9651 170.645 20.2948C170.645 20.4706 170.635 20.6563 170.61 20.8519H177.352L178.148 17.1823C178.243 16.6945 178.286 16.2661 178.286 15.8848C178.268 14.3199 177.617 13.6266 176.747 13.1289ZM98.1247 34.8041L102.757 12.1458H123.259L121.914 18.4653H108.649C108.386 18.4653 108.155 18.6549 108.104 18.9219L107.203 23.4924C107.169 23.6596 107.211 23.8317 107.318 23.9665C107.425 24.0987 107.583 24.1735 107.751 24.1735H119.768L118.803 29.1907H106.442C106.179 29.1907 105.951 29.3828 105.9 29.6473L104.985 34.3351C104.956 34.5048 104.995 34.6794 105.104 34.8091C105.209 34.9438 105.367 35.0187 105.532 35.0187H118.43L117.299 40.8542H103.744C100.173 40.8217 97.9568 38.9506 97.9471 36.1938C97.9471 35.7597 98.0055 35.2956 98.1247 34.8041ZM133.732 18.9144C133.786 18.6524 134.015 18.4653 134.279 18.4653H140.328C140.571 18.4703 141.118 18.5002 141.693 18.8121C142.266 19.1015 142.849 19.7976 142.829 20.8155C142.829 21.0275 142.81 21.2446 142.771 21.4766L142.761 21.509L141.929 24.9968C141.773 25.905 141.22 26.5087 140.654 26.8031C140.091 27.1075 139.528 27.1649 139.167 27.1674H132.679C132.511 27.1674 132.353 27.09 132.248 26.9553C132.14 26.8206 132.099 26.6459 132.136 26.4763L133.732 18.9144ZM129.144 40.8542L130.626 33.4794C130.68 33.2149 130.909 33.0253 131.17 33.0253H141.678C144.163 33.0278 147.961 31.1517 148.881 27.0127L150.604 18.8296C150.721 18.2632 150.772 17.7343 150.772 17.2478C150.768 13.9122 148.349 12.1808 146.05 12.1458H128.071L122.159 40.8542H129.144ZM188.749 26.9628C188.855 27.09 189.012 27.1699 189.177 27.1699H198.311C198.57 27.1699 198.793 26.9852 198.848 26.7183L199.86 21.988L199.864 21.9556C199.925 21.5864 199.952 21.2546 199.952 20.9502C199.981 19.8624 199.499 19.0815 198.848 18.7847C198.338 18.5359 197.817 18.5071 197.407 18.4845C197.315 18.4794 197.229 18.4746 197.15 18.4678L190.568 18.4653C190.304 18.4653 190.072 18.6574 190.023 18.9269L188.63 26.4913C188.599 26.6584 188.644 26.8306 188.749 26.9628ZM207.836 18.9194L203.15 40.8542H195.991L197.312 33.7064C197.341 33.5392 197.298 33.3671 197.191 33.2349C197.087 33.1076 196.93 33.0278 196.768 33.0278H187.522C187.261 33.0278 187.038 33.2149 186.983 33.4744L185.367 40.8542H178.286L184.259 12.1458H202.339C203.406 12.1808 204.87 12.4727 206.004 13.2461C207.139 14.027 207.988 15.202 208 17.2778C208 17.7717 207.947 18.3181 207.836 18.9194ZM23.1168 48.0835C23.8146 47.5653 24.7803 46.6007 25.0948 45.1005C25.4646 43.3491 25.8733 41.3302 26.2783 39.3296L26.2784 39.329L26.2785 39.3286L26.2786 39.3282C26.6619 37.4346 27.0419 35.5576 27.3824 33.9396C28.1932 30.1036 25.1243 27.6042 21.2518 27.6042H9.51901C8.60741 27.6042 7.87764 27.9092 7.17981 28.3853C4.76691 30.1532 1.38097 32.7767 0.646291 33.3594C-0.515934 34.2818 0.100807 34.8472 0.847776 34.8472H17.5538C18.7087 34.8472 18.8365 35.3729 18.7087 36.0052C18.0001 39.3713 16.8015 45.4897 16.0865 49.14L16.0863 49.141L16.0862 49.1415C15.7674 50.7689 15.5447 51.9054 15.5046 52.0881C15.3031 53.0701 16.1754 53.1866 16.7135 52.78C16.9076 52.6386 20.3697 50.1044 23.1168 48.0835ZM57.5218 27.6042C58.4988 27.6042 58.7916 28.4143 57.2314 29.5425C55.0218 31.1507 52.9293 32.8775 51.8667 33.7544L51.8667 33.7545C51.5519 34.0143 51.3274 34.1995 51.2172 34.2848C50.6217 34.7366 49.9179 35.0698 49.0345 35.0698H40.6628C40.0968 35.0698 39.4471 35.307 38.95 35.7007C36.6639 37.5103 30.2363 42.5984 30.0862 42.7246C29.3258 43.3632 28.4374 43.0679 28.6441 42.0811C29.2372 39.2161 29.9682 35.5767 30.3016 33.9171L30.3018 33.916C30.393 33.4621 30.4544 33.1566 30.475 33.0557C31.0287 30.3956 34.9463 27.6042 38.4136 27.6042H57.5218Z" fill="#FFFFFE"/>
<path fill-rule="evenodd" clip-rule="evenodd" d="M37.3893 4.91576C36.6906 5.43403 35.733 6.40112 35.4179 7.90135C35.047 9.67279 34.6352 11.7191 34.2277 13.7436C33.8515 15.613 33.479 17.4638 33.146 19.0626C32.3398 22.8987 35.391 25.3958 39.2434 25.3958H51.0719C51.9758 25.3958 52.7038 25.0933 53.3927 24.6147C53.8617 24.3147 59.153 20.2231 59.8859 19.6429C61.0438 18.7229 60.4258 18.155 59.6905 18.155H42.9151C41.7718 18.155 41.6399 17.6268 41.7694 16.992C42.5244 13.3861 43.8403 6.6173 44.5217 3.11249C44.7597 1.88848 44.9202 1.06257 44.9525 0.908523C45.1577 -0.0684901 44.2904 -0.185037 43.753 0.216679C43.676 0.275096 43.0809 0.713837 42.2201 1.34852C40.925 2.30338 39.0284 3.70174 37.3893 4.91576ZM2.9899 25.3958C2.00852 25.3958 1.77181 24.5957 3.27839 23.4549C5.33152 21.9062 7.30163 20.307 8.4144 19.4037L8.41474 19.4034L8.41482 19.4034L8.41492 19.4033C8.83608 19.0614 9.13436 18.8193 9.26774 18.7174C9.86199 18.2606 10.5672 17.9299 11.4499 17.9299H19.8409C20.4081 17.9299 21.059 17.6927 21.5547 17.2989C23.8478 15.4918 30.2933 10.4009 30.4388 10.2747C31.1983 9.63618 32.0884 9.93401 31.8862 10.9184C31.3509 13.4926 30.7054 16.6901 30.3364 18.5177L30.3361 18.5192L30.3356 18.5216L30.3353 18.523C30.1814 19.2854 30.0758 19.8083 30.0468 19.9466C29.4969 22.6043 25.5689 25.3958 22.0947 25.3958H2.9899ZM96.8466 17.3187C96.819 14.7409 95.8986 13.6751 94.7481 13.0456C93.7112 12.4933 92.4201 12.3864 91.4189 12.3034C91.2922 12.2929 91.1701 12.2828 91.0538 12.2722C90.0934 12.1805 88.8228 12.1458 87.5096 12.1458C85.8831 12.1458 84.1918 12.194 82.8758 12.2314C82.0588 12.2546 81.3865 12.2738 80.964 12.2747C74.8786 12.3094 72.9577 15.5514 71.8647 18.5778C70.8167 21.5917 68.6057 32.1109 68.2905 35.3628C68.253 35.7519 68.2305 36.1411 68.233 36.5153C68.2305 37.8984 68.5081 39.155 69.1609 40.0597C69.8137 40.9595 70.8242 41.5865 72.5751 41.7229C74.5585 41.8691 76.9321 41.9583 79.2632 41.9583C81.8995 41.9583 84.4932 41.8443 86.4066 41.5841C90.4235 41.0834 93.0448 38.0446 93.4249 36.3443L94.3154 31.2682H87.0044L86.7393 32.6041C86.4416 34.2549 84.9184 35.6429 82.6223 35.8015H79.1057C78.1302 35.8015 77.3073 35.3678 76.782 34.7332C76.2493 34.1037 75.9842 33.2882 75.9842 32.4703C75.9842 32.2447 75.9992 32.0117 76.0467 31.7738L78.0927 22.4072C78.2152 21.7876 78.5104 20.8705 79.1132 20.0525C79.7034 19.242 80.6789 18.5183 82.0195 18.5158H86.3691L86.3909 18.516C86.6992 18.5183 87.3187 18.5229 87.9048 18.9198C88.5201 19.3263 88.9578 20.1467 88.9478 21.3811C88.9478 21.6289 88.9328 21.8941 88.8978 22.1841H96.1162L96.7315 18.9248C96.8115 18.3349 96.8466 17.8045 96.8466 17.3187ZM176.747 13.1289C175.919 12.6764 174.875 12.5218 174.123 12.4104L173.976 12.3885C172.987 12.2325 170.505 12.1434 167.917 12.1459C165.054 12.1434 162.005 12.2524 160.599 12.4678C155.721 13.1908 154.114 16.6252 153.681 18.8066L152.685 23.5261C152.61 23.9693 152.568 24.3977 152.57 24.8112C152.625 27.0224 153.509 28.6542 156.662 29.0726C159.836 29.4202 162.376 29.5842 164.289 29.7077C164.869 29.7452 165.392 29.779 165.857 29.813C167.644 29.9219 168.395 31.2343 168.36 32.1158C168.36 32.1925 168.36 32.2495 168.355 32.3163C168.342 32.4253 168.334 32.5222 168.326 32.6186L168.326 32.6191C168.292 33.0221 168.259 33.4174 167.909 34.6538L167.889 34.7256C167.541 35.466 166.793 35.877 165.977 36.2286C165.149 36.5629 164.24 36.7709 163.487 36.7733H160.346C159.25 36.7709 158.482 36.5901 157.933 36.1791C157.378 35.7606 157.19 35.1193 157.2 34.5696C157.205 34.0456 157.332 33.534 157.447 33.0716L157.447 33.0715L157.447 33.0713L157.448 33.0691H150.52L149.694 37.5533C149.674 37.6846 149.672 37.8133 149.672 37.9421C149.689 39.6134 150.836 41.4136 153.636 41.738C155.04 41.8989 158.161 41.9583 160.952 41.9583C163.039 41.9583 164.961 41.9237 165.867 41.884C171.433 41.5844 174.204 39.3856 175.17 36.2038L176.474 30.3726C176.576 29.8897 176.624 29.4465 176.624 29.0355C176.616 27.7628 176.191 26.854 175.365 26.1483C174.537 25.4426 173.25 24.9573 171.546 24.7567C171.544 24.7567 171.283 24.7307 170.854 24.6878C169.095 24.5123 164.519 24.0555 163.447 23.9619C162.926 23.9124 162.228 23.8257 161.59 23.5781C160.984 23.3528 160.286 22.8576 160.279 21.986C160.279 21.9241 160.279 21.8523 160.289 21.7879C160.3 21.7078 160.311 21.6212 160.324 21.5293C160.432 20.7147 160.596 19.4867 161.034 18.7546C161.472 18.1084 162.378 17.6082 163.732 17.5265C164.22 17.4968 164.889 17.4844 165.542 17.4844C166.293 17.4844 167.011 17.4992 167.419 17.5265C167.463 17.53 167.524 17.5314 167.599 17.5331C167.943 17.5411 168.573 17.5556 169.186 17.8162C169.959 18.1183 170.672 18.9651 170.645 20.2948C170.645 20.4706 170.635 20.6563 170.61 20.8519H177.352L178.148 17.1823C178.243 16.6945 178.286 16.2661 178.286 15.8848C178.268 14.3199 177.617 13.6266 176.747 13.1289ZM98.1247 34.8041L102.757 12.1458H123.259L121.914 18.4653H108.649C108.386 18.4653 108.155 18.6549 108.104 18.9219L107.203 23.4924C107.169 23.6596 107.211 23.8317 107.318 23.9665C107.425 24.0987 107.583 24.1735 107.751 24.1735H119.768L118.803 29.1907H106.442C106.179 29.1907 105.951 29.3828 105.9 29.6473L104.985 34.3351C104.956 34.5048 104.995 34.6794 105.104 34.8091C105.209 34.9438 105.367 35.0187 105.532 35.0187H118.43L117.299 40.8542H103.744C100.173 40.8217 97.9568 38.9506 97.9471 36.1938C97.9471 35.7597 98.0055 35.2956 98.1247 34.8041ZM133.732 18.9144C133.786 18.6524 134.015 18.4653 134.279 18.4653H140.328C140.571 18.4703 141.118 18.5002 141.693 18.8121C142.266 19.1015 142.849 19.7976 142.829 20.8155C142.829 21.0275 142.81 21.2446 142.771 21.4766L142.761 21.509L141.929 24.9968C141.773 25.905 141.22 26.5087 140.654 26.8031C140.091 27.1075 139.528 27.1649 139.167 27.1674H132.679C132.511 27.1674 132.353 27.09 132.248 26.9553C132.14 26.8206 132.099 26.6459 132.136 26.4763L133.732 18.9144ZM129.144 40.8542L130.626 33.4794C130.68 33.2149 130.909 33.0253 131.17 33.0253H141.678C144.163 33.0278 147.961 31.1517 148.881 27.0127L150.604 18.8296C150.721 18.2632 150.772 17.7343 150.772 17.2478C150.768 13.9122 148.349 12.1808 146.05 12.1458H128.071L122.159 40.8542H129.144ZM188.749 26.9628C188.855 27.09 189.012 27.1699 189.177 27.1699H198.311C198.57 27.1699 198.793 26.9852 198.848 26.7183L199.86 21.988L199.864 21.9556C199.925 21.5864 199.952 21.2546 199.952 20.9502C199.981 19.8624 199.499 19.0815 198.848 18.7847C198.338 18.5359 197.817 18.5071 197.407 18.4845C197.315 18.4794 197.229 18.4746 197.15 18.4678L190.568 18.4653C190.304 18.4653 190.072 18.6574 190.023 18.9269L188.63 26.4913C188.599 26.6584 188.644 26.8306 188.749 26.9628ZM207.836 18.9194L203.15 40.8542H195.991L197.312 33.7064C197.341 33.5392 197.298 33.3671 197.191 33.2349C197.087 33.1076 196.93 33.0278 196.768 33.0278H187.522C187.261 33.0278 187.038 33.2149 186.983 33.4744L185.367 40.8542H178.286L184.259 12.1458H202.339C203.406 12.1808 204.87 12.4727 206.004 13.2461C207.139 14.027 207.988 15.202 208 17.2778C208 17.7717 207.947 18.3181 207.836 18.9194ZM23.1168 48.0835C23.8146 47.5653 24.7803 46.6007 25.0948 45.1005C25.4646 43.3491 25.8733 41.3302 26.2783 39.3296L26.2784 39.329L26.2785 39.3286L26.2786 39.3282C26.6619 37.4346 27.0419 35.5576 27.3824 33.9396C28.1932 30.1036 25.1243 27.6042 21.2518 27.6042H9.51901C8.60741 27.6042 7.87764 27.9092 7.17981 28.3853C4.76691 30.1532 1.38097 32.7767 0.646291 33.3594C-0.515934 34.2818 0.100807 34.8472 0.847776 34.8472H17.5538C18.7087 34.8472 18.8365 35.3729 18.7087 36.0052C18.0001 39.3713 16.8015 45.4897 16.0865 49.14L16.0863 49.141L16.0862 49.1415C15.7674 50.7689 15.5447 51.9054 15.5046 52.0881C15.3031 53.0701 16.1754 53.1866 16.7135 52.78C16.9076 52.6386 20.3697 50.1044 23.1168 48.0835ZM57.5218 27.6042C58.4988 27.6042 58.7916 28.4143 57.2314 29.5425C55.0218 31.1507 52.9293 32.8775 51.8667 33.7544L51.8667 33.7545C51.5519 34.0143 51.3274 34.1995 51.2172 34.2848C50.6217 34.7366 49.9179 35.0698 49.0345 35.0698H40.6628C40.0968 35.0698 39.4471 35.307 38.95 35.7007C36.6639 37.5103 30.2363 42.5984 30.0862 42.7246C29.3258 43.3632 28.4374 43.0679 28.6441 42.0811C29.2372 39.2161 29.9682 35.5767 30.3016 33.9171L30.3018 33.916C30.393 33.4621 30.4544 33.1566 30.475 33.0557C31.0287 30.3956 34.9463 27.6042 38.4136 27.6042H57.5218Z" fill="#FFFFFE"/>
</svg>
