<svg width="188" height="56" viewBox="0 0 188 56" fill="none" xmlns="http://www.w3.org/2000/svg">
<path fill-rule="evenodd" clip-rule="evenodd" d="M135 53.7856C134.209 54.5476 133.202 55 131.956 55C129.343 55 128 53.1188 128 50.0477C128 46.8572 129.463 45 132.675 45C133.538 45 134.281 45.0955 135 45.2856V53.7856ZM127 50.089C127 53.889 129.032 56 132.312 56C133.605 56 134.667 55.5333 135.453 54.8666L135.499 55.7334H137V44.6223C135.776 44.1777 134.575 44 133.143 44C129.009 44 127 46.1778 127 50.089ZM123 53.7143C122.193 54.5 121.125 55 119.868 55C117.305 55 116 53.1188 116 50.0477C116 46.7857 117.447 45 120.437 45C121.244 45 122.146 45.1428 123 45.3809V53.7143ZM122.395 44.1463C121.637 43.9437 120.835 43.8309 119.986 43.8309C115.995 43.8309 114 45.9943 114 50.0057C114 53.8592 116.041 56 118.954 56C120.583 56 121.661 55.5267 122.44 54.7831L122.509 55.7296H124V40C123.472 40 122.876 40.0675 122.395 40.2253V44.1463ZM105.932 49.4222L104.901 49.0665C103.542 48.6001 102.687 48.222 102.687 46.9778C102.687 45.8888 103.542 45.3333 105.23 45.3333C106.304 45.3333 107.422 45.511 108.43 45.8888C108.562 45.4445 108.627 44.9555 108.649 44.5777C107.641 44.1777 106.458 44 105.186 44C102.71 44 101.219 45.0443 101.219 47.022C101.219 48.8001 102.293 49.8 104.244 50.4L105.252 50.7111C106.304 51.0445 107.51 51.5111 107.51 52.8444C107.51 54.1112 106.479 54.6444 104.792 54.6444C103.674 54.6444 102.249 54.3775 101.219 53.7778C101.109 54.0888 101.022 54.5111 101 55.1334C102.03 55.7334 103.301 56 104.835 56C107.466 56 109 54.8224 109 52.8C109 50.8667 107.663 50.0222 105.932 49.4222ZM110 24.1349C110 20.3596 111.723 18 115.431 18C116.439 18 117.252 18.0676 118 18.2022V28.7865C117.057 29.528 115.919 30 114.52 30C111.334 30 110 27.573 110 24.1349ZM118.342 30.6001L118.547 32.6001H122V15.9332C120.017 15.2666 118 15 115.538 15C109.213 15 106 18.3331 106 24.2C106 29.8 109.008 33 113.521 33C115.914 33 117.385 32.0668 118.342 30.6001ZM111 56H113V44H111V56ZM112.011 40C111.43 40 111 40.4304 111 41.011C111 41.5914 111.43 42 112.011 42C112.591 42 113 41.5914 113 41.011C113 40.4304 112.591 40 112.011 40ZM128.724 18.4772C129.74 18.3066 130.79 18.2043 131.67 18.2043C135.395 18.2043 136.276 19.5001 136.276 22.193V33H140V21.5455C140 17.4203 138.002 15 131.772 15C129.977 15 127.37 15.3749 125 15.9544V33H128.724V18.4772ZM163 22C163.29 19.3845 164.613 18 167.129 18C169.581 18 171 19.4768 171 22H163ZM167.324 15C161.354 15 159 18.9334 159 23.8999C159 29.5998 162.036 33 168.313 33C170.326 33 172.134 32.6999 173.84 31.9332C174.079 30.8334 174.284 29.5667 174.42 28.5999C172.544 29.4332 170.463 29.8666 168.416 29.8666C165.072 29.8666 163.298 28.4333 162.821 25.4667H174.795C174.932 24.4999 175 23.6667 175 22.6332C175 18.4331 172.68 15 167.324 15ZM184.62 15C182.437 15 179.655 15.4089 178 15.9544V33H181.873V18.4088C182.824 18.2727 183.774 18.2043 184.725 18.2043C185.817 18.2043 186.732 18.2384 187.648 18.3409C187.859 17.625 188 16.2614 188 15.1363C187.155 15.0338 185.817 15 184.62 15ZM160 49H153C153.184 46.5529 154.313 45 156.615 45C158.895 45 160 46.5765 160 48.9059V49ZM156.191 44C152.506 44 151 46.6224 151 49.9333C151 53.7557 152.978 56 156.73 56C158.011 56 159.18 55.7999 160.303 55.1555C160.416 54.6667 160.506 54.0667 160.55 53.6666C159.337 54.3557 157.989 54.6221 156.775 54.6221C154.214 54.6221 152.798 53.1999 152.596 50.5333H160.91C160.978 50.089 161 49.6223 161 49.1554C161 46.289 159.562 44 156.191 44ZM146 24.1349C146 20.2922 147.671 18 151.173 18C152.104 18 153.068 18.135 154 18.3372V28.7189C153.036 29.4941 151.879 30 150.466 30C147.317 30 146 27.573 146 24.1349ZM154.357 30.4382L154.562 32.5957H158V9C156.774 9 155.447 9.10133 154.289 9.50591V15.0676C153.404 14.8991 152.485 14.798 151.498 14.798C145.2 14.798 142 18.1685 142 24.1013C142 29.764 144.996 33 149.489 33C151.94 33 153.404 32.0226 154.357 30.4382ZM148 53.7143C147.193 54.5 146.125 55 144.868 55C142.305 55 141 53.1188 141 50.0477C141 46.7857 142.447 45 145.437 45C146.244 45 147.145 45.1428 148 45.3809V53.7143ZM147.395 44.1463C146.637 43.9437 145.835 43.8309 144.986 43.8309C140.995 43.8309 139 45.9943 139 50.0057C139 53.8592 141.041 56 143.954 56C145.582 56 146.661 55.5267 147.44 54.7831L147.509 55.7296H149V40C148.473 40 147.876 40.0675 147.395 40.2253V44.1463ZM166.932 49.4222L165.901 49.0665C164.542 48.6001 163.688 48.222 163.688 46.9778C163.688 45.8888 164.542 45.3333 166.23 45.3333C167.304 45.3333 168.422 45.511 169.43 45.8888C169.562 45.4445 169.628 44.9555 169.649 44.5777C168.641 44.1777 167.458 44 166.186 44C163.71 44 162.219 45.0443 162.219 47.022C162.219 48.8001 163.293 49.8 165.244 50.4L166.252 50.7111C167.304 51.0445 168.509 51.5111 168.509 52.8444C168.509 54.1112 167.479 54.6444 165.792 54.6444C164.674 54.6444 163.249 54.3775 162.219 53.7778C162.109 54.0888 162.022 54.5111 162 55.1334C163.03 55.7334 164.302 56 165.835 56C168.466 56 170 54.8224 170 52.8C170 50.8667 168.663 50.0222 166.932 49.4222ZM83.772 15C81.9774 15 79.3701 15.3749 77 15.9544V33H80.7245V18.4772C81.7404 18.3066 82.7899 18.2043 83.6705 18.2043C87.395 18.2043 88.2755 19.5001 88.2755 22.193V33H92V21.5455C92 17.4203 90.0022 15 83.772 15ZM68 56H70V44H68V56ZM49.7663 19.6742L47.8961 18.9118C45.4718 17.9172 44.1212 16.9226 44.1212 15.1988C44.1212 13.4423 45.5064 12.3151 48.5195 12.3151C50.1125 12.3151 52.3289 12.6134 54.1993 13.2763C54.5455 12.3151 54.7878 11.2874 54.8917 9.96145C52.9177 9.29847 50.8051 9 48.5542 9C42.9439 9 40.208 11.42 40.208 15.1988C40.208 18.7127 42.4243 20.4697 45.6798 21.8288L47.4458 22.558C50.7013 23.9171 52.0173 24.8121 52.0173 26.7347C52.0173 28.6908 50.2164 29.6851 46.9958 29.6851C45.091 29.6851 42.5974 29.2543 40.658 28.3925C40.2772 29.4531 40.0695 30.3812 40 31.7406C41.9394 32.6024 44.2599 33 47.0997 33C52.9871 33 56 30.3812 56 26.569C56 23.3538 54.1644 21.4643 49.7663 19.6742ZM60.087 44C58.8697 44 57.4566 44.2272 56 44.6365V56H57.5217V45.7274C58.3478 45.5225 59.2609 45.409 60.0436 45.409C62.7175 45.409 63.4783 46.4999 63.4783 48.6137V56H65V48.318C65 45.5682 63.761 44 60.087 44ZM101.162 33C102.254 33 103.38 32.8652 104.437 32.4606C104.648 31.4832 104.789 30.3371 104.894 29.326C104.049 29.6293 102.993 29.8314 101.866 29.8314C99.9999 29.8314 98.8733 28.9888 98.8733 26.7979V18.5394H104.648C104.824 17.562 104.929 16.517 105 15.3708H98.8733V9C97.6761 9 96.1972 9.16872 95 9.53937V27.2359C95 31.3482 97.3945 33 101.162 33ZM24.3681 14.6573C24.3176 13.5042 23.9913 12.3602 23.3878 11.3262L18.0645 2.20527C17.6586 1.50989 17.3783 0.764352 17.2225 0L17 0.381168C15.6824 2.63884 15.6824 5.42011 17 7.67756L21.2586 14.9744C22.576 17.2321 22.576 20.0136 21.2586 22.271L21.0361 22.6522C20.8803 21.8878 20.5998 21.1425 20.1941 20.4472L16.2953 13.7669L13.8061 9.50189C13.4002 8.80629 13.1197 8.06097 12.9639 7.29662L12.7416 7.67801C11.4283 9.92785 11.4243 12.6979 12.7285 14.9513L12.728 14.9516L17 22.271C18.3176 24.5287 18.3176 27.3102 17 29.5676L16.7775 29.9488C16.6217 29.1845 16.3414 28.4391 15.9355 27.7438L10.6122 18.6228C9.89818 17.3994 9.57218 16.0225 9.63172 14.6582C3.93328 16.1311 0 19.2584 0 22.8791C0 27.9164 7.6112 32 17 32C26.3888 32 34 27.9164 34 22.8791C34 19.2582 30.0672 16.13 24.3681 14.6573ZM51.3627 50.3147C51.3627 52.8089 49.8187 54.5169 47.0118 54.5169C44.2516 54.5169 42.6373 52.8089 42.6373 50.247V40C42.1228 40 41.4212 40.1348 41 40.2473V50.4716C41 53.5954 43.0818 56 47.0118 56C50.9182 56 53 53.5954 53 50.4716V40C52.4855 40 51.7836 40.1348 51.3627 40.2473V50.3147ZM69.0107 40C68.4303 40 68 40.4304 68 41.011C68 41.5914 68.4303 42 69.0107 42C69.5914 42 70 41.5914 70 41.011C70 40.4304 69.5914 40 69.0107 40ZM90 49H83C83.1839 46.5529 84.3123 45 86.615 45C88.8947 45 90 46.5765 90 48.9059V49ZM87.1911 44C83.5056 44 82 46.6224 82 49.9333C82 53.7557 83.9776 56 87.7303 56C89.0113 56 90.1798 55.7999 91.3034 55.1555C91.4156 54.6667 91.5057 54.0667 91.5504 53.6666C90.337 54.3557 88.9887 54.6221 87.7753 54.6221C85.2134 54.6221 83.7978 53.1999 83.5957 50.5333H91.9101C91.9774 50.089 92 49.6223 92 49.1554C92 46.289 90.5616 44 87.1911 44ZM71 28.7865C70.057 29.528 68.9187 30 67.5204 30C64.3333 30 63 27.573 63 24.1349C63 20.3596 64.7234 18 68.4309 18C69.4389 18 70.2521 18.0676 71 18.2022V28.7865ZM74 15.9332C72.0168 15.2666 70 15 67.5384 15C61.2137 15 58 18.3331 58 24.2C58 29.8 61.0084 33 65.5213 33C67.9143 33 69.3846 32.0668 70.3418 30.6001L70.5468 32.6001H74V15.9332ZM75.5584 54.4187L71.7748 44H70L74.5073 56H76.5391L81 44H79.2484L75.5584 54.4187ZM93 44.5933V56H94.6666V45.6198C95.4525 45.4602 96.3095 45.3688 96.9999 45.3688C97.6667 45.3688 98.2859 45.3917 98.8335 45.4602C98.9287 45.1636 99 44.5703 99 44.0912C98.4761 44.0227 97.738 44 96.9523 44C95.6666 44 94.0477 44.251 93 44.5933Z" fill="white"/>
</svg>
