<svg width="177" height="48" viewBox="0 0 177 48" fill="none" xmlns="http://www.w3.org/2000/svg">
<path fill-rule="evenodd" clip-rule="evenodd" d="M52.0311 18.7501C54.568 13.1409 56.6298 8.82771 58.6202 4.79164C58.8364 4.35447 59.2177 3.89192 59.854 3.74164L64 3C62.2604 7.39128 58.3102 14.835 55.6387 21.3263C54.2234 24.769 53.2669 27.3843 53.0915 29.6931C53.0344 30.4582 53.0915 31.1276 53.3118 31.7736L52.8101 32C50.369 31.2681 49.125 29.5916 49.125 27.2086C49.125 26.506 49.282 25.6883 49.5349 24.812C47.571 26.8729 43.79 29.738 39.9173 29.8434C36.2954 29.9429 34.9719 27.8176 35.0005 25.134C35.0433 21.3516 37.2825 17.0736 40.1702 14.0621C42.3584 11.8196 45.758 9.98506 48.5723 10.0104C50.524 10.0299 51.5008 10.8067 51.4682 12.3076C51.4376 13.8923 50.4179 15.4205 48.9333 16.9447C46.2556 19.6029 43.2802 21.1857 40.3191 22.5968C40.1437 23.2233 39.9316 24.4607 39.9275 25.3253C39.9234 26.7871 40.5047 27.5072 41.8098 27.4916C44.9362 27.4565 48.5315 24.1933 51.1664 20.6198C51.456 19.9777 51.7496 19.3473 52.0311 18.7501ZM40.7147 21.053C44.8913 18.6759 48.1522 15.44 48.1665 12.9087C48.1685 12.3642 47.9197 11.9465 47.2875 11.9426C44.6955 11.9289 41.765 17.1165 40.7147 21.053Z" fill="white"/>
<path fill-rule="evenodd" clip-rule="evenodd" d="M120.256 24.5017C121.504 21.3223 123.511 17.0128 125.193 13.3297C125.466 12.7334 125.917 12.3352 126.531 12.1738C127.09 12.0252 131.039 11.3364 131.039 11.3364C128.444 16.9138 126.325 21.5936 124.873 25.352C124.282 26.9708 123.96 28.2171 123.968 28.8134C123.977 29.5238 124.411 29.8833 125.052 29.8273C126.181 29.8101 127.864 28.5938 129.375 26.7448C129.727 23.5783 131.407 19.0621 134.702 15.3488C137.347 12.3653 140.656 11.0221 143.266 11.0006C145.239 10.9834 147.45 11.3407 147.442 13.3362C147.433 15.0582 145.318 16.7093 143.068 17.6005L142.679 17.2388C143.573 16.3756 144.226 15.0173 144.226 14.0637C144.226 13.2457 143.823 12.8174 142.9 12.8174C139.533 12.8368 134.535 21.7033 134.5 27.5627C134.491 29.0932 135.134 29.9478 136.324 29.9306C138.403 29.9048 140.462 28.0643 141.899 26.6177C142.153 26.3616 142.731 25.6663 143.301 24.9215C143.842 23.3415 144.597 21.8691 145.283 20.6141C149.284 13.3082 154.733 10.9963 160.163 11.2051C161.806 11.2675 163.347 11.683 164 12.2469C162.555 15.3338 160.061 21.318 158.508 26.5359C158.042 28.1138 156.991 32.8689 157.744 34.7869L157.262 35C155.12 34.548 153.627 33.0562 153.685 30.4193C153.708 29.4721 153.941 28.0557 154.167 27.2463L154.084 27.1989C151.728 30.6776 148.716 32.7096 146.104 32.7096C143.673 32.7139 142.569 31.0866 142.569 28.8995C142.569 28.667 142.579 28.4367 142.596 28.2042C140.477 30.5721 137.457 32.6429 134.302 32.7398C131.276 32.8323 129.794 31.2911 129.407 29.1578C127.383 31.1856 124.919 32.6537 122.515 32.7075C120.194 32.7613 119 31.5429 119 29.5711C119 28.4324 119.468 26.508 120.256 24.5017ZM147.456 28.4711C147.437 29.3688 147.962 29.7649 148.875 29.5281C151.48 28.8565 154.288 24.3554 156.155 19.8758C157.349 17.0107 158.869 13.8356 159.194 13.1403C158.32 12.9315 157.274 12.9724 155.979 13.6031C151.755 15.6545 147.535 24.4802 147.456 28.4711Z" fill="white"/>
<path fill-rule="evenodd" clip-rule="evenodd" d="M71.9636 9.76101C73.9736 9.78169 74.9743 10.6047 74.945 12.1949C74.9114 13.874 73.8624 15.4931 72.3349 17.1081C69.5781 19.9246 66.5191 21.6016 63.4726 23.0967C63.288 23.7749 63.0656 25.0674 63.0698 25.9834C63.0803 27.4682 63.7118 28.3015 65.2728 28.2829C68.1136 28.2477 71.9993 25.8718 75.8576 20.82C77.1459 17.41 78.4173 14.0642 79.053 12.5257C78.0501 12.5051 77.1647 12.5816 76.4367 12.838L76.2374 12.4017C77.2822 11.3367 78.5348 10.8136 79.8922 10.6006C84.4871 1.23933 91.0687 0.0441075 96.3916 0.00068232C100.586 -0.0344714 103.194 1.29103 103.175 3.44575C103.164 4.82915 101.381 6.85152 98.8316 8.05502L98.5127 7.73864C99.6289 6.57236 100.044 5.45571 99.9038 4.05577C99.7401 2.39734 97.7847 1.31585 94.86 1.43165C90.1729 1.61569 86.9586 5.08143 84.6717 10.4517C84.6717 10.4517 92.2751 10.4434 93.3242 10.4393C94.3753 10.4331 96.3496 10.4021 97.1847 10.2325L96.7 11.5373C96.4713 11.5993 96.1209 11.6697 95.7894 11.7772C91.8408 13.0613 87.8146 21.157 87.8167 26C87.8167 27.3751 88.144 28.3677 89.5371 28.3656C92.7451 28.3553 97.5602 20.1107 97.3063 13.1275C97.2896 12.6912 97.6987 12.4865 98.9533 12.3107C100.993 11.8826 102.86 11.407 104.612 10.9583C105.873 10.6357 107.144 10.2676 108.086 10.2594C109.421 10.249 110.033 10.6957 110.069 11.7999C110.107 12.9662 109.169 15.4621 107.992 18.0883L108.061 18.1297C111.032 13.5742 114.576 10.1622 118.145 10.1767C120.05 10.1808 120.92 11.1713 120.994 12.2879C121.138 14.544 118.749 18.6839 117.4 21.5251C116.531 23.3531 114.341 27.9893 114.391 30.6465C114.408 31.4674 114.448 32.1953 114.737 32.7474L114.253 33.0204C111.821 32.4352 110.409 30.8719 110.363 28.285C110.291 24.2754 115.518 16.2003 115.824 14.1118C115.942 13.5742 115.784 13.1957 115.218 13.1999C113.592 13.2081 109.53 18.3427 107.728 21.4465C106.202 24.0665 105.034 26.5707 103.164 30.4397L98.7897 30.4417C98.8065 30.3239 102.768 21.1591 105.048 14.8873C105.424 13.8554 105.669 12.5195 104.427 12.6953C103.798 12.7822 102.522 13.0076 101.202 13.2433C101.081 15.3505 100.414 17.4638 99.3813 19.937C97.5875 24.2381 92.8857 30.7767 87.2922 30.7561C84.38 30.7437 83.0604 29.2093 82.8422 26.9822C82.3491 21.9304 86.4613 14.2752 91.3604 12.1329C89.4868 12.5588 86.1487 12.4823 83.8031 12.4823C82.3449 16.1238 80.4734 21.4114 78.2536 27.4971C76.0318 33.5808 74.0302 37.2885 68.6528 36.9824L68.4367 36.6309C70.2746 35.2475 71.1579 32.8922 72.358 29.9517C72.7651 28.9591 73.4658 27.129 74.2736 24.9991C71.0614 28.316 67.3352 30.6609 63.267 30.7747C59.4611 30.8822 57.9715 28.5496 58.0008 25.7849C58.0449 21.7774 60.3507 17.2446 63.3195 14.0539C65.5707 11.6779 69.0703 9.73413 71.9636 9.76101ZM63.8797 21.461C68.1765 18.9423 71.5335 15.5138 71.5482 12.8318C71.5482 12.2549 71.2922 11.8123 70.6418 11.8082C67.9751 11.7937 64.9602 17.2901 63.8797 21.461Z" fill="white"/>
<path fill-rule="evenodd" clip-rule="evenodd" d="M131.955 7.99963C133.301 7.97401 134.637 6.83792 134.94 5.45626C135.24 4.07673 134.393 2.97481 133.045 3.00044C131.699 3.02393 130.363 4.16215 130.06 5.54381C129.76 6.92121 130.607 8.02312 131.955 7.99963Z" fill="white"/>
<path fill-rule="evenodd" clip-rule="evenodd" d="M88.5 45C44.5976 45 0 45.6728 0 46.5013C0 47.3272 44.5976 48 88.5 48C132.402 48 177 47.3272 177 46.5013C177 45.6728 132.402 45 88.5 45Z" fill="white"/>
<path fill-rule="evenodd" clip-rule="evenodd" d="M18.9821 14.5154L19.2563 14.3093C18.8646 13.6359 18.7141 12.5196 18.7326 11.8421C18.8749 6.24042 24.8514 3.05491 34.209 3.05491C34.209 3.05491 36.5283 3.05491 39.3795 3.05491C36.3696 4.79562 33.8544 7.09139 31.9207 11.4136C31.0878 13.2788 27.1357 23.3087 25.5215 27.8309C23.5176 33.1693 22.2394 35.612 20.6437 36.5018L20.8973 36.9793C25.3792 37.2425 28.0449 34.9855 29.7745 30.794C31.4114 26.831 33.5741 20.5416 34.6502 17.7356C38.0993 8.7423 39.6084 4.93642 42.342 3.05287C46.1477 3.05083 49.8545 3.05083 49.8648 3.04879C53.9756 2.93043 55.7321 1.92029 57 0.344876L56.7196 0C55.6971 0.530579 53.4561 0.638735 51.5697 0.655061H32.9906C22.5528 0.655061 16.1515 4.03444 15.1021 9.09942C14.5991 11.5299 15.9639 14.2011 18.9821 14.5154Z" fill="white"/>
</svg>
