<svg width="214" height="29" viewBox="0 0 214 29" fill="none" xmlns="http://www.w3.org/2000/svg">
<path fill-rule="evenodd" clip-rule="evenodd" d="M169.583 5.81677L164.21 8.51298C163.362 6.87883 162.311 6.06186 161.061 6.06186C160.463 6.06186 159.953 6.25162 159.53 6.63395C159.106 6.99759 158.894 7.46929 158.894 8.04992C158.894 9.06778 160.145 10.0759 162.65 11.0743C166.097 12.4732 168.418 13.7641 169.612 14.9438C170.805 16.1247 171.402 17.7146 171.403 19.7126C171.403 22.2728 170.401 24.4175 168.399 26.1422C166.453 27.7765 164.103 28.5946 161.349 28.5946C156.632 28.5946 153.29 26.4239 151.325 22.0817L156.872 19.6576C157.642 20.93 158.229 21.7374 158.634 22.0817C159.423 22.7724 160.367 23.1179 161.466 23.1179C163.66 23.1179 164.759 22.1734 164.759 20.2836C164.759 19.1944 163.911 18.1776 162.217 17.2321C161.561 16.9234 160.907 16.6244 160.252 16.333C159.597 16.0426 158.932 15.7436 158.259 15.434C156.37 14.5618 155.042 13.6907 154.273 12.8186C153.29 11.7111 152.799 10.2853 152.799 8.54097C152.799 6.23444 153.636 4.32721 155.312 2.81938C157.025 1.31145 159.106 0.558026 161.552 0.556946C165.154 0.556946 167.83 2.31094 169.583 5.81677ZM29.9387 1.29309H36.4672V3.74551C38.7397 1.6201 41.3007 0.556957 44.1514 0.556957C47.4252 0.556957 49.9771 1.52954 51.807 3.47351C53.3856 5.12711 54.175 7.8243 54.1761 11.5655V27.8316H47.6469V13.0096C47.6469 10.3932 47.2617 8.58647 46.4914 7.58699C45.7403 6.5701 44.3727 6.06176 42.3895 6.06176C40.232 6.06176 38.7008 6.73425 37.7961 8.07695C36.9097 9.40463 36.4672 11.7197 36.4672 15.0258V27.8316H29.9387V1.29309ZM6.4999 1.29309V16.524C6.4999 20.9203 8.33856 23.1179 12.0174 23.1179C15.6952 23.1179 17.5339 20.9203 17.535 16.524V1.29309H24.0349V16.66C24.0349 18.7854 23.755 20.6202 23.1971 22.1637C22.657 23.5453 21.7237 24.7887 20.3948 25.8973C18.1996 27.6954 15.406 28.5946 12.0174 28.5946C8.64655 28.5946 5.86437 27.6954 3.66856 25.8973C2.31982 24.7887 1.36646 23.5453 0.808599 22.1637C0.269101 20.9299 0 19.0951 0 16.66V1.29309H6.4999ZM66.247 27.8315H59.7471V1.29305H66.247V27.8315ZM127.373 16.0049H107.209C107.382 18.1863 108.133 19.9198 109.462 21.2096C110.791 22.4821 112.495 23.1179 114.575 23.1179C116.193 23.1179 117.531 22.7553 118.59 22.0278C119.631 21.3002 120.815 19.9575 122.144 17.9951L127.633 20.8836C126.785 22.2458 125.889 23.4179 124.946 24.398C124.002 25.3619 122.991 26.1606 121.913 26.7963C120.834 27.4137 119.668 27.8671 118.417 28.1586C117.165 28.449 115.808 28.5936 114.344 28.5946C110.146 28.5946 106.775 27.323 104.234 24.7801C101.691 22.2187 100.42 18.822 100.42 14.5898C100.42 10.3932 101.653 6.99762 104.118 4.39846C106.602 1.83819 109.895 0.556978 113.998 0.556978C118.137 0.556978 121.411 1.80264 123.819 4.2905C126.207 6.76118 127.401 10.1849 127.402 14.5618L127.373 16.0049ZM120.699 10.9934C119.794 7.72403 117.608 6.0888 114.142 6.0888C113.352 6.0888 112.611 6.20638 111.917 6.44282C111.224 6.66089 110.589 6.9879 110.011 7.42394C109.452 7.84161 108.971 8.35005 108.566 8.94916C108.162 9.54914 107.853 10.2303 107.642 10.9934H120.699ZM138.839 1.29309H132.339V27.8316H138.839V14.0706C138.839 9.02241 140.61 6.49672 144.154 6.49672C145.328 6.4978 146.532 6.91547 147.764 7.75092L150.74 2.13718C148.871 1.08377 147.08 0.556957 145.367 0.556957C144.076 0.558037 142.959 0.784757 142.016 1.23917C141.092 1.67521 140.032 2.48375 138.839 3.6623V1.29309ZM182.854 27.8315H176.355V1.29305H182.854V27.8315ZM204.249 17.9489C204.249 19.4805 204.039 23.8293 198.224 23.8293C195.814 23.8293 193.665 23.187 193.665 20.5674C193.665 17.9974 195.762 17.2558 198.067 16.8113C198.642 16.7127 199.236 16.6358 199.824 16.5596C201.594 16.3304 203.306 16.1087 204.249 15.3292V17.9489ZM195.122 10.1407C195.385 7.37431 197.218 6.28632 200.047 6.28632C202.667 6.28632 204.868 6.7309 204.868 9.74568C204.868 12.1011 202 12.4206 198.448 12.8164C197.678 12.9021 196.877 12.9914 196.065 13.1057C191.456 13.6993 186.844 15.082 186.844 20.8642C186.844 26.1012 190.931 28.5233 196.065 28.5233C199.367 28.5233 202.824 27.6826 205.182 25.3608C205.235 26.2006 205.444 27.0402 205.705 27.8316H213.25C212.569 26.7943 212.308 24.4714 212.308 22.1487V8.8562C212.308 2.72862 205.811 1.59103 200.414 1.59103C194.337 1.59103 188.102 3.56839 187.683 10.1407H195.122ZM87.2964 14.6816L71.4948 21.5474V28.4143L96.7065 16.9472L96.6934 12.5023L71.4948 0.949858V7.84275L87.2964 14.6816Z" fill="white"/>
</svg>
