<svg width="24" height="25" viewBox="0 0 24 25" fill="none" xmlns="http://www.w3.org/2000/svg">
<path fill-rule="evenodd" clip-rule="evenodd" d="M23.0264 12C23.041 18.6274 17.9041 24.0114 11.5529 24.0254C5.20158 24.0394 0.0410648 18.6781 0.0264498 12.0507C0.0118348 5.42335 5.1487 0.0394249 11.5 0.0254189C17.8512 0.0114128 23.0118 5.37263 23.0264 12ZM6.30207 11.9045C6.28055 11.9244 6.26007 11.9454 6.24071 11.9674C5.93309 12.3173 5.9618 12.8555 6.30486 13.1693L14.6655 20.811C15.0049 21.1093 15.5146 21.0809 15.8202 20.7467C16.1345 20.403 16.1161 19.8644 15.7791 19.5438L8.10903 12.5329L15.7481 5.48833C16.0743 5.17517 16.0999 4.65511 15.806 4.31016C15.5037 3.95534 14.9767 3.91771 14.6289 4.22603L6.30207 11.9045Z" fill="#0E3540"/>
</svg>
