<svg width="23" height="24" viewBox="0 0 23 24" fill="none" xmlns="http://www.w3.org/2000/svg">
<path fill-rule="evenodd" clip-rule="evenodd" d="M0 12C0 5.37259 5.14873 0 11.5 0C17.8513 0 23 5.37259 23 12C23 18.6274 17.8513 24 11.5 24C5.14873 24 0 18.6274 0 12ZM16.7241 12.1324C16.7456 12.1126 16.7662 12.0916 16.7856 12.0696C17.094 11.7204 17.0664 11.1822 16.7241 10.8676L8.38032 3.20749C8.04157 2.90847 7.53175 2.93575 7.22546 3.26923C6.91042 3.61229 6.92763 4.1509 7.26394 4.47226L14.9185 11.5L7.26394 18.5277C6.93702 18.8402 6.91028 19.3602 7.20342 19.7058C7.50491 20.0613 8.03184 20.1001 8.38032 19.7925L16.7241 12.1324Z" fill="#0E3540"/>
</svg>
